<ttFont>
    <TTGlyph name=".notdef" xMin="133" yMin="0" xMax="932" yMax="932">
      <contour>
        <pt x="200" y="67" on="1"/>
        <pt x="866" y="67" on="1"/>
        <pt x="866" y="866" on="1"/>
        <pt x="200" y="866" on="1"/>
      </contour>
      <contour>
        <pt x="133" y="0" on="1"/>
        <pt x="133" y="932" on="1"/>
        <pt x="932" y="932" on="1"/>
        <pt x="932" y="0" on="1"/>
      </contour>
    </TTGlyph>
    <TTGlyph name="aadeva" xMin="24" yMin="0" xMax="1056" yMax="666">
      <contour>
        <pt x="310" y="47" on="1"/>
        <pt x="230" y="47" on="0"/>
        <pt x="80" y="180" on="0"/>
        <pt x="24" y="300" on="1"/>
        <pt x="71" y="340" on="1"/>
        <pt x="121" y="232" on="0"/>
        <pt x="246" y="113" on="0"/>
        <pt x="310" y="113" on="1"/>
        <pt x="352" y="113" on="0"/>
        <pt x="410" y="184" on="0"/>
        <pt x="410" y="233" on="1"/>
        <pt x="410" y="280" on="0"/>
        <pt x="344" y="346" on="0"/>
        <pt x="297" y="346" on="1"/>
        <pt x="282" y="346" on="0"/>
        <pt x="249" y="340" on="0"/>
        <pt x="230" y="333" on="1"/>
        <pt x="204" y="393" on="1"/>
        <pt x="264" y="398" on="0"/>
        <pt x="357" y="475" on="0"/>
        <pt x="357" y="519" on="1"/>
        <pt x="357" y="555" on="0"/>
        <pt x="302" y="606" on="0"/>
        <pt x="264" y="606" on="1"/>
        <pt x="232" y="606" on="0"/>
        <pt x="154" y="557" on="0"/>
        <pt x="117" y="513" on="1"/>
        <pt x="71" y="559" on="1"/>
        <pt x="105" y="610" on="0"/>
        <pt x="208" y="666" on="0"/>
        <pt x="264" y="666" on="1"/>
        <pt x="330" y="666" on="0"/>
        <pt x="423" y="581" on="0"/>
        <pt x="423" y="519" on="1"/>
        <pt x="423" y="483" on="0"/>
        <pt x="391" y="417" on="0"/>
        <pt x="364" y="393" on="1"/>
        <pt x="409" y="366" on="0"/>
        <pt x="497" y="340" on="0"/>
        <pt x="537" y="340" on="1"/>
        <pt x="547" y="340" on="0"/>
        <pt x="581" y="353" on="0"/>
        <pt x="603" y="366" on="1"/>
        <pt x="603" y="606" on="1"/>
        <pt x="483" y="606" on="1"/>
        <pt x="483" y="666" on="1"/>
        <pt x="1056" y="666" on="1"/>
        <pt x="1056" y="606" on="1"/>
        <pt x="943" y="606" on="1"/>
        <pt x="943" y="0" on="1"/>
        <pt x="876" y="0" on="1"/>
        <pt x="876" y="606" on="1"/>
        <pt x="670" y="606" on="1"/>
        <pt x="670" y="0" on="1"/>
        <pt x="603" y="0" on="1"/>
        <pt x="603" y="300" on="1"/>
        <pt x="587" y="286" on="0"/>
        <pt x="554" y="273" on="0"/>
        <pt x="537" y="273" on="1"/>
        <pt x="509" y="273" on="0"/>
        <pt x="463" y="284" on="0"/>
        <pt x="450" y="293" on="1"/>
        <pt x="463" y="282" on="0"/>
        <pt x="477" y="244" on="0"/>
        <pt x="477" y="220" on="1"/>
        <pt x="477" y="148" on="0"/>
        <pt x="380" y="47" on="0"/>
      </contour>
    </TTGlyph>
    <TTGlyph name="aasigndeva" xMin="-13" yMin="0" xMax="280" yMax="666">
      <contour>
        <pt x="-13" y="606" on="1"/>
        <pt x="-13" y="666" on="1"/>
        <pt x="280" y="666" on="1"/>
        <pt x="280" y="606" on="1"/>
        <pt x="166" y="606" on="1"/>
        <pt x="166" y="0" on="1"/>
        <pt x="100" y="0" on="1"/>
        <pt x="100" y="606" on="1"/>
      </contour>
    </TTGlyph>
    <TTGlyph name="abbreviationsigndeva" xMin="100" yMin="325" xMax="446" yMax="666">
      <contour>
        <pt x="274" y="381" on="1"/>
        <pt x="320" y="381" on="0"/>
        <pt x="385" y="448" on="0"/>
        <pt x="385" y="544" on="0"/>
        <pt x="320" y="610" on="0"/>
        <pt x="274" y="610" on="1"/>
        <pt x="229" y="610" on="0"/>
        <pt x="164" y="544" on="0"/>
        <pt x="164" y="448" on="0"/>
        <pt x="229" y="381" on="0"/>
      </contour>
      <contour>
        <pt x="345" y="325" on="0"/>
        <pt x="201" y="325" on="0"/>
        <pt x="100" y="425" on="0"/>
        <pt x="100" y="496" on="1"/>
        <pt x="100" y="566" on="0"/>
        <pt x="201" y="666" on="0"/>
        <pt x="345" y="666" on="0"/>
        <pt x="446" y="566" on="0"/>
        <pt x="446" y="496" on="1"/>
        <pt x="446" y="425" on="0"/>
      </contour>
    </TTGlyph>
    <TTGlyph name="acandradeva" xMin="23" yMin="0" xMax="790" yMax="939">
      <component glyphName="ecandrasigndeva" x="717" y="0" flags="0x1004"/>
      <component glyphName="adeva" x="0" y="0" flags="0x1004"/>
    </TTGlyph>
    <TTGlyph name="acombiningletterdeva" xMin="-379" yMin="729" xMax="52" yMax="1033">
      <contour>
        <pt x="-215" y="750" on="1"/>
        <pt x="-261" y="750" on="0"/>
        <pt x="-303" y="780" on="1"/>
        <pt x="-346" y="810" on="0"/>
        <pt x="-377" y="865" on="1"/>
        <pt x="-379" y="868" on="1"/>
        <pt x="-345" y="884" on="1"/>
        <pt x="-343" y="881" on="1"/>
        <pt x="-317" y="836" on="0"/>
        <pt x="-283" y="811" on="1"/>
        <pt x="-250" y="787" on="0"/>
        <pt x="-215" y="787" on="1"/>
        <pt x="-193" y="787" on="0"/>
        <pt x="-178" y="800" on="1"/>
        <pt x="-163" y="812" on="0"/>
        <pt x="-163" y="830" on="1"/>
        <pt x="-163" y="852" on="0"/>
        <pt x="-198" y="883" on="0"/>
        <pt x="-222" y="883" on="1"/>
        <pt x="-230" y="883" on="0"/>
        <pt x="-248" y="881" on="0"/>
        <pt x="-258" y="878" on="1"/>
        <pt x="-261" y="877" on="1"/>
        <pt x="-280" y="911" on="1"/>
        <pt x="-275" y="911" on="1"/>
        <pt x="-242" y="914" on="0"/>
        <pt x="-217" y="929" on="1"/>
        <pt x="-194" y="945" on="0"/>
        <pt x="-194" y="961" on="1"/>
        <pt x="-194" y="976" on="0"/>
        <pt x="-217" y="999" on="0"/>
        <pt x="-233" y="999" on="1"/>
        <pt x="-254" y="999" on="0"/>
        <pt x="-299" y="978" on="0"/>
        <pt x="-320" y="958" on="1"/>
        <pt x="-322" y="956" on="1"/>
        <pt x="-354" y="981" on="1"/>
        <pt x="-351" y="984" on="1"/>
        <pt x="-331" y="1007" on="0"/>
        <pt x="-269" y="1033" on="0"/>
        <pt x="-233" y="1033" on="1"/>
        <pt x="-198" y="1033" on="0"/>
        <pt x="-173" y="1012" on="1"/>
        <pt x="-148" y="991" on="0"/>
        <pt x="-148" y="961" on="1"/>
        <pt x="-148" y="945" on="0"/>
        <pt x="-158" y="930" on="1"/>
        <pt x="-165" y="918" on="0"/>
        <pt x="-178" y="909" on="1"/>
        <pt x="-153" y="898" on="0"/>
        <pt x="-134" y="892" on="1"/>
        <pt x="-113" y="885" on="0"/>
        <pt x="-100" y="885" on="1"/>
        <pt x="-93" y="885" on="0"/>
        <pt x="-81" y="888" on="1"/>
        <pt x="-70" y="892" on="0"/>
        <pt x="-56" y="898" on="1"/>
        <pt x="-56" y="999" on="1"/>
        <pt x="-122" y="999" on="1"/>
        <pt x="-122" y="1033" on="1"/>
        <pt x="52" y="1033" on="1"/>
        <pt x="52" y="999" on="1"/>
        <pt x="-12" y="999" on="1"/>
        <pt x="-12" y="729" on="1"/>
        <pt x="-56" y="729" on="1"/>
        <pt x="-56" y="860" on="1"/>
        <pt x="-62" y="856" on="0"/>
        <pt x="-69" y="854" on="1"/>
        <pt x="-79" y="851" on="0"/>
        <pt x="-89" y="851" on="1"/>
        <pt x="-105" y="851" on="0"/>
        <pt x="-118" y="853" on="1"/>
        <pt x="-121" y="854" on="0"/>
        <pt x="-124" y="855" on="1"/>
        <pt x="-123" y="853" on="0"/>
        <pt x="-123" y="851" on="1"/>
        <pt x="-119" y="842" on="0"/>
        <pt x="-119" y="831" on="1"/>
        <pt x="-119" y="797" on="0"/>
        <pt x="-147" y="774" on="1"/>
        <pt x="-175" y="750" on="0"/>
      </contour>
    </TTGlyph>
    <TTGlyph name="acutedeva" xMin="-178" yMin="714" xMax="-37" yMax="925">
      <contour>
        <pt x="-178" y="714" on="1"/>
        <pt x="-124" y="925" on="1"/>
        <pt x="-37" y="925" on="1"/>
        <pt x="-129" y="714" on="1"/>
      </contour>
    </TTGlyph>
    <TTGlyph name="adeva" xMin="23" yMin="0" xMax="782" yMax="666">
      <contour>
        <pt x="309" y="47" on="1"/>
        <pt x="229" y="47" on="0"/>
        <pt x="79" y="180" on="0"/>
        <pt x="23" y="300" on="1"/>
        <pt x="72" y="328" on="1"/>
        <pt x="120" y="226" on="0"/>
        <pt x="244" y="113" on="0"/>
        <pt x="309" y="113" on="1"/>
        <pt x="350" y="113" on="0"/>
        <pt x="409" y="174" on="0"/>
        <pt x="409" y="218" on="1"/>
        <pt x="409" y="272" on="0"/>
        <pt x="342" y="346" on="0"/>
        <pt x="296" y="346" on="1"/>
        <pt x="281" y="346" on="0"/>
        <pt x="248" y="340" on="0"/>
        <pt x="229" y="333" on="1"/>
        <pt x="202" y="393" on="1"/>
        <pt x="262" y="398" on="0"/>
        <pt x="354" y="471" on="0"/>
        <pt x="354" y="513" on="1"/>
        <pt x="354" y="551" on="0"/>
        <pt x="308" y="606" on="0"/>
        <pt x="276" y="606" on="1"/>
        <pt x="237" y="606" on="0"/>
        <pt x="153" y="557" on="0"/>
        <pt x="116" y="513" on="1"/>
        <pt x="69" y="559" on="1"/>
        <pt x="104" y="610" on="0"/>
        <pt x="213" y="666" on="0"/>
        <pt x="276" y="666" on="1"/>
        <pt x="337" y="666" on="0"/>
        <pt x="422" y="577" on="0"/>
        <pt x="422" y="513" on="1"/>
        <pt x="422" y="479" on="0"/>
        <pt x="390" y="417" on="0"/>
        <pt x="362" y="393" on="1"/>
        <pt x="413" y="364" on="0"/>
        <pt x="491" y="333" on="0"/>
        <pt x="515" y="333" on="1"/>
        <pt x="530" y="333" on="0"/>
        <pt x="574" y="350" on="0"/>
        <pt x="602" y="366" on="1"/>
        <pt x="602" y="606" on="1"/>
        <pt x="482" y="606" on="1"/>
        <pt x="482" y="666" on="1"/>
        <pt x="782" y="666" on="1"/>
        <pt x="782" y="606" on="1"/>
        <pt x="668" y="606" on="1"/>
        <pt x="668" y="0" on="1"/>
        <pt x="602" y="0" on="1"/>
        <pt x="602" y="300" on="1"/>
        <pt x="586" y="286" on="0"/>
        <pt x="553" y="273" on="0"/>
        <pt x="535" y="273" on="1"/>
        <pt x="507" y="273" on="0"/>
        <pt x="462" y="284" on="0"/>
        <pt x="449" y="293" on="1"/>
        <pt x="462" y="282" on="0"/>
        <pt x="475" y="244" on="0"/>
        <pt x="475" y="220" on="1"/>
        <pt x="475" y="148" on="0"/>
        <pt x="378" y="47" on="0"/>
      </contour>
    </TTGlyph>
    <TTGlyph name="aideva" xMin="-13" yMin="-127" xMax="505" yMax="945">
      <contour>
        <pt x="-13" y="606" on="1"/>
        <pt x="-13" y="666" on="1"/>
        <pt x="352" y="666" on="1"/>
        <pt x="152" y="892" on="1"/>
        <pt x="212" y="945" on="1"/>
        <pt x="426" y="666" on="1"/>
        <pt x="505" y="666" on="1"/>
        <pt x="505" y="606" on="1"/>
        <pt x="431" y="606" on="1"/>
        <pt x="431" y="413" on="1"/>
        <pt x="431" y="369" on="0"/>
        <pt x="386" y="288" on="0"/>
        <pt x="345" y="260" on="1"/>
        <pt x="305" y="313" on="1"/>
        <pt x="333" y="337" on="0"/>
        <pt x="365" y="390" on="0"/>
        <pt x="365" y="415" on="1"/>
        <pt x="365" y="606" on="1"/>
        <pt x="125" y="606" on="1"/>
        <pt x="125" y="340" on="1"/>
        <pt x="125" y="324" on="0"/>
        <pt x="153" y="278" on="0"/>
        <pt x="178" y="253" on="1"/>
        <pt x="398" y="47" on="1"/>
        <pt x="421" y="24" on="0"/>
        <pt x="445" y="-17" on="0"/>
        <pt x="445" y="-33" on="1"/>
        <pt x="445" y="-63" on="0"/>
        <pt x="401" y="-113" on="0"/>
        <pt x="365" y="-127" on="1"/>
        <pt x="312" y="-80" on="1"/>
        <pt x="340" y="-75" on="0"/>
        <pt x="376" y="-49" on="0"/>
        <pt x="376" y="-33" on="1"/>
        <pt x="376" y="-23" on="0"/>
        <pt x="356" y="9" on="0"/>
        <pt x="338" y="27" on="1"/>
        <pt x="119" y="233" on="1"/>
        <pt x="91" y="257" on="0"/>
        <pt x="59" y="313" on="0"/>
        <pt x="59" y="341" on="1"/>
        <pt x="59" y="606" on="1"/>
      </contour>
    </TTGlyph>
    <TTGlyph name="aisign_ra_virama.alt1" xMin="-465" yMin="666" xMax="55" yMax="999">
      <contour>
        <pt x="-172" y="666" on="1"/>
        <pt x="-465" y="799" on="1"/>
        <pt x="-431" y="866" on="1"/>
        <pt x="-125" y="672" on="1"/>
        <pt x="-292" y="959" on="1"/>
        <pt x="-225" y="999" on="1"/>
        <pt x="-165" y="859" on="1"/>
        <pt x="-145" y="899" on="0"/>
        <pt x="-67" y="945" on="0"/>
        <pt x="-19" y="945" on="1"/>
        <pt x="0" y="945" on="0"/>
        <pt x="36" y="939" on="0"/>
        <pt x="55" y="932" on="1"/>
        <pt x="55" y="872" on="1"/>
        <pt x="27" y="883" on="0"/>
        <pt x="-9" y="892" on="0"/>
        <pt x="-19" y="892" on="1"/>
        <pt x="-65" y="892" on="0"/>
        <pt x="-132" y="834" on="0"/>
        <pt x="-132" y="792" on="1"/>
        <pt x="-132" y="784" on="0"/>
        <pt x="-123" y="755" on="0"/>
        <pt x="-112" y="732" on="1"/>
        <pt x="-85" y="666" on="1"/>
      </contour>
    </TTGlyph>
    <TTGlyph name="aisign_ra_virama_anusvara" xMin="-458" yMin="666" xMax="55" yMax="999">
      <contour>
        <pt x="-172" y="666" on="1"/>
        <pt x="-458" y="806" on="1"/>
        <pt x="-431" y="866" on="1"/>
        <pt x="-125" y="672" on="1"/>
        <pt x="-292" y="959" on="1"/>
        <pt x="-225" y="999" on="1"/>
        <pt x="-165" y="859" on="1"/>
        <pt x="-145" y="899" on="0"/>
        <pt x="-67" y="945" on="0"/>
        <pt x="-19" y="945" on="1"/>
        <pt x="0" y="945" on="0"/>
        <pt x="36" y="939" on="0"/>
        <pt x="55" y="932" on="1"/>
        <pt x="55" y="872" on="1"/>
        <pt x="27" y="883" on="0"/>
        <pt x="-9" y="892" on="0"/>
        <pt x="-19" y="892" on="1"/>
        <pt x="-65" y="892" on="0"/>
        <pt x="-132" y="834" on="0"/>
        <pt x="-132" y="792" on="1"/>
        <pt x="-132" y="784" on="0"/>
        <pt x="-123" y="755" on="0"/>
        <pt x="-112" y="732" on="1"/>
        <pt x="-85" y="666" on="1"/>
      </contour>
      <contour>
        <pt x="-52" y="739" on="1"/>
        <pt x="-52" y="812" on="1"/>
        <pt x="21" y="812" on="1"/>
        <pt x="21" y="739" on="1"/>
      </contour>
    </TTGlyph>
    <TTGlyph name="aisigndeva" xMin="-478" yMin="666" xMax="-105" yMax="999">
      <contour>
        <pt x="-192" y="666" on="1"/>
        <pt x="-478" y="846" on="1"/>
        <pt x="-438" y="905" on="1"/>
        <pt x="-145" y="672" on="1"/>
        <pt x="-285" y="959" on="1"/>
        <pt x="-218" y="999" on="1"/>
        <pt x="-105" y="666" on="1"/>
      </contour>
    </TTGlyph>
    <TTGlyph name="aisigndeva_anusvaradeva" xMin="-478" yMin="666" xMax="-12" yMax="999">
      <contour>
        <pt x="-112" y="832" on="1"/>
        <pt x="-112" y="925" on="1"/>
        <pt x="-12" y="925" on="1"/>
        <pt x="-12" y="832" on="1"/>
      </contour>
      <contour>
        <pt x="-192" y="666" on="1"/>
        <pt x="-478" y="806" on="1"/>
        <pt x="-445" y="866" on="1"/>
        <pt x="-145" y="672" on="1"/>
        <pt x="-292" y="959" on="1"/>
        <pt x="-225" y="999" on="1"/>
        <pt x="-105" y="666" on="1"/>
      </contour>
    </TTGlyph>
    <TTGlyph name="ampersand" xMin="100" yMin="-13" xMax="662" yMax="738">
      <contour>
        <pt x="244" y="587" on="1"/>
        <pt x="244" y="562" on="0"/>
        <pt x="284" y="483" on="0"/>
        <pt x="322" y="434" on="1"/>
        <pt x="370" y="462" on="0"/>
        <pt x="426" y="539" on="0"/>
        <pt x="426" y="578" on="1"/>
        <pt x="426" y="621" on="0"/>
        <pt x="378" y="682" on="0"/>
        <pt x="345" y="682" on="1"/>
        <pt x="304" y="682" on="0"/>
        <pt x="244" y="626" on="0"/>
      </contour>
      <contour>
        <pt x="166" y="184" on="1"/>
        <pt x="166" y="127" on="0"/>
        <pt x="254" y="45" on="0"/>
        <pt x="316" y="45" on="1"/>
        <pt x="360" y="45" on="0"/>
        <pt x="443" y="96" on="0"/>
        <pt x="474" y="140" on="1"/>
        <pt x="304" y="352" on="1"/>
        <pt x="240" y="314" on="0"/>
        <pt x="166" y="225" on="0"/>
      </contour>
      <contour>
        <pt x="100" y="174" on="1"/>
        <pt x="100" y="232" on="0"/>
        <pt x="192" y="352" on="0"/>
        <pt x="272" y="398" on="1"/>
        <pt x="225" y="457" on="0"/>
        <pt x="177" y="559" on="0"/>
        <pt x="177" y="598" on="1"/>
        <pt x="177" y="655" on="0"/>
        <pt x="272" y="738" on="0"/>
        <pt x="338" y="738" on="1"/>
        <pt x="402" y="738" on="0"/>
        <pt x="494" y="644" on="0"/>
        <pt x="494" y="578" on="1"/>
        <pt x="494" y="526" on="0"/>
        <pt x="422" y="425" on="0"/>
        <pt x="360" y="389" on="1"/>
        <pt x="505" y="200" on="1"/>
        <pt x="513" y="232" on="0"/>
        <pt x="522" y="289" on="0"/>
        <pt x="522" y="314" on="1"/>
        <pt x="579" y="314" on="1"/>
        <pt x="579" y="262" on="0"/>
        <pt x="562" y="178" on="0"/>
        <pt x="545" y="149" on="1"/>
        <pt x="662" y="-5" on="1"/>
        <pt x="582" y="-5" on="1"/>
        <pt x="502" y="89" on="1"/>
        <pt x="469" y="41" on="0"/>
        <pt x="364" y="-13" on="0"/>
        <pt x="305" y="-13" on="1"/>
        <pt x="220" y="-13" on="0"/>
        <pt x="100" y="97" on="0"/>
      </contour>
    </TTGlyph>
    <TTGlyph name="anudattadeva" xMin="-637" yMin="-159" xMax="-111" yMax="-99">
      <contour>
        <pt x="-637" y="-159" on="1"/>
        <pt x="-637" y="-99" on="1"/>
        <pt x="-111" y="-99" on="1"/>
        <pt x="-111" y="-159" on="1"/>
      </contour>
    </TTGlyph>
    <TTGlyph name="anusvaradeva" xMin="-177" yMin="832" xMax="-77" yMax="925">
      <contour>
        <pt x="-177" y="832" on="1"/>
        <pt x="-177" y="925" on="1"/>
        <pt x="-77" y="925" on="1"/>
        <pt x="-77" y="832" on="1"/>
      </contour>
    </TTGlyph>
    <TTGlyph name="apostrophe" xMin="97" yMin="583" xMax="218" yMax="858">
      <contour>
        <pt x="218" y="771" on="1"/>
        <pt x="218" y="739" on="0"/>
        <pt x="212" y="687" on="0"/>
        <pt x="200" y="642" on="0"/>
        <pt x="183" y="603" on="0"/>
        <pt x="171" y="583" on="1"/>
        <pt x="97" y="583" on="1"/>
        <pt x="124" y="622" on="0"/>
        <pt x="154" y="702" on="0"/>
        <pt x="154" y="739" on="1"/>
        <pt x="101" y="739" on="1"/>
        <pt x="101" y="858" on="1"/>
        <pt x="218" y="858" on="1"/>
      </contour>
    </TTGlyph>
    <TTGlyph name="asciicircum" xMin="100" yMin="138" xMax="571" yMax="481">
      <contour>
        <pt x="290" y="481" on="1"/>
        <pt x="377" y="481" on="1"/>
        <pt x="571" y="138" on="1"/>
        <pt x="493" y="138" on="1"/>
        <pt x="336" y="423" on="1"/>
        <pt x="178" y="138" on="1"/>
        <pt x="100" y="138" on="1"/>
      </contour>
    </TTGlyph>
    <TTGlyph name="asciitilde" xMin="100" yMin="266" xMax="622" yMax="407">
      <contour>
        <pt x="136" y="304" on="1"/>
        <pt x="100" y="349" on="1"/>
        <pt x="133" y="377" on="0"/>
        <pt x="206" y="407" on="0"/>
        <pt x="276" y="407" on="0"/>
        <pt x="333" y="391" on="0"/>
        <pt x="352" y="376" on="1"/>
        <pt x="382" y="350" on="0"/>
        <pt x="438" y="322" on="0"/>
        <pt x="459" y="322" on="1"/>
        <pt x="495" y="322" on="0"/>
        <pt x="561" y="354" on="0"/>
        <pt x="585" y="382" on="1"/>
        <pt x="622" y="340" on="1"/>
        <pt x="593" y="305" on="0"/>
        <pt x="507" y="266" on="0"/>
        <pt x="459" y="266" on="1"/>
        <pt x="429" y="266" on="0"/>
        <pt x="373" y="285" on="0"/>
        <pt x="352" y="304" on="1"/>
        <pt x="329" y="324" on="0"/>
        <pt x="272" y="344" on="0"/>
        <pt x="242" y="344" on="1"/>
        <pt x="214" y="344" on="0"/>
        <pt x="158" y="324" on="0"/>
      </contour>
    </TTGlyph>
    <TTGlyph name="ashortdeva" xMin="23" yMin="0" xMax="782" yMax="986">
      <contour>
        <pt x="309" y="47" on="1"/>
        <pt x="229" y="47" on="0"/>
        <pt x="79" y="180" on="0"/>
        <pt x="23" y="300" on="1"/>
        <pt x="72" y="328" on="1"/>
        <pt x="120" y="226" on="0"/>
        <pt x="244" y="113" on="0"/>
        <pt x="309" y="113" on="1"/>
        <pt x="350" y="113" on="0"/>
        <pt x="409" y="174" on="0"/>
        <pt x="409" y="218" on="1"/>
        <pt x="409" y="272" on="0"/>
        <pt x="342" y="346" on="0"/>
        <pt x="296" y="346" on="1"/>
        <pt x="281" y="346" on="0"/>
        <pt x="248" y="340" on="0"/>
        <pt x="229" y="333" on="1"/>
        <pt x="202" y="393" on="1"/>
        <pt x="262" y="398" on="0"/>
        <pt x="354" y="471" on="0"/>
        <pt x="354" y="513" on="1"/>
        <pt x="354" y="551" on="0"/>
        <pt x="308" y="606" on="0"/>
        <pt x="276" y="606" on="1"/>
        <pt x="237" y="606" on="0"/>
        <pt x="153" y="557" on="0"/>
        <pt x="116" y="513" on="1"/>
        <pt x="69" y="559" on="1"/>
        <pt x="104" y="610" on="0"/>
        <pt x="213" y="666" on="0"/>
        <pt x="276" y="666" on="1"/>
        <pt x="337" y="666" on="0"/>
        <pt x="422" y="577" on="0"/>
        <pt x="422" y="513" on="1"/>
        <pt x="422" y="479" on="0"/>
        <pt x="390" y="417" on="0"/>
        <pt x="362" y="393" on="1"/>
        <pt x="413" y="364" on="0"/>
        <pt x="491" y="333" on="0"/>
        <pt x="515" y="333" on="1"/>
        <pt x="530" y="333" on="0"/>
        <pt x="574" y="350" on="0"/>
        <pt x="602" y="366" on="1"/>
        <pt x="602" y="606" on="1"/>
        <pt x="482" y="606" on="1"/>
        <pt x="482" y="666" on="1"/>
        <pt x="606" y="666" on="1"/>
        <pt x="606" y="723" on="0"/>
        <pt x="528" y="806" on="0"/>
        <pt x="473" y="806" on="1"/>
        <pt x="400" y="806" on="0"/>
        <pt x="287" y="907" on="0"/>
        <pt x="273" y="986" on="1"/>
        <pt x="340" y="986" on="1"/>
        <pt x="349" y="931" on="0"/>
        <pt x="425" y="859" on="0"/>
        <pt x="473" y="859" on="1"/>
        <pt x="556" y="859" on="0"/>
        <pt x="673" y="746" on="0"/>
        <pt x="673" y="666" on="1"/>
        <pt x="782" y="666" on="1"/>
        <pt x="782" y="606" on="1"/>
        <pt x="668" y="606" on="1"/>
        <pt x="668" y="0" on="1"/>
        <pt x="602" y="0" on="1"/>
        <pt x="602" y="300" on="1"/>
        <pt x="586" y="286" on="0"/>
        <pt x="553" y="273" on="0"/>
        <pt x="535" y="273" on="1"/>
        <pt x="507" y="273" on="0"/>
        <pt x="462" y="284" on="0"/>
        <pt x="449" y="293" on="1"/>
        <pt x="462" y="282" on="0"/>
        <pt x="475" y="244" on="0"/>
        <pt x="475" y="220" on="1"/>
        <pt x="475" y="148" on="0"/>
        <pt x="378" y="47" on="0"/>
      </contour>
    </TTGlyph>
    <TTGlyph name="asterisk" xMin="90" yMin="400" xMax="470" yMax="739">
      <contour>
        <pt x="210" y="400" on="1"/>
        <pt x="150" y="439" on="1"/>
        <pt x="250" y="559" on="1"/>
        <pt x="97" y="533" on="1"/>
        <pt x="90" y="613" on="1"/>
        <pt x="243" y="599" on="1"/>
        <pt x="157" y="706" on="1"/>
        <pt x="230" y="739" on="1"/>
        <pt x="276" y="626" on="1"/>
        <pt x="330" y="739" on="1"/>
        <pt x="396" y="706" on="1"/>
        <pt x="316" y="599" on="1"/>
        <pt x="470" y="619" on="1"/>
        <pt x="470" y="546" on="1"/>
        <pt x="316" y="559" on="1"/>
        <pt x="430" y="439" on="1"/>
        <pt x="356" y="400" on="1"/>
        <pt x="290" y="546" on="1"/>
      </contour>
    </TTGlyph>
    <TTGlyph name="at" xMin="100" yMin="-64" xMax="944" yMax="723">
      <contour>
        <pt x="382" y="320" on="1"/>
        <pt x="382" y="265" on="0"/>
        <pt x="451" y="185" on="0"/>
        <pt x="553" y="185" on="0"/>
        <pt x="622" y="265" on="0"/>
        <pt x="622" y="320" on="1"/>
        <pt x="622" y="374" on="0"/>
        <pt x="553" y="453" on="0"/>
        <pt x="451" y="453" on="0"/>
        <pt x="382" y="374" on="0"/>
      </contour>
      <contour>
        <pt x="317" y="320" on="1"/>
        <pt x="317" y="398" on="0"/>
        <pt x="425" y="511" on="0"/>
        <pt x="502" y="511" on="1"/>
        <pt x="537" y="511" on="0"/>
        <pt x="599" y="483" on="0"/>
        <pt x="622" y="457" on="1"/>
        <pt x="622" y="505" on="1"/>
        <pt x="688" y="505" on="1"/>
        <pt x="688" y="208" on="1"/>
        <pt x="688" y="188" on="0"/>
        <pt x="723" y="158" on="0"/>
        <pt x="748" y="158" on="1"/>
        <pt x="803" y="158" on="0"/>
        <pt x="880" y="266" on="0"/>
        <pt x="880" y="344" on="1"/>
        <pt x="880" y="475" on="0"/>
        <pt x="678" y="662" on="0"/>
        <pt x="535" y="662" on="1"/>
        <pt x="381" y="662" on="0"/>
        <pt x="162" y="458" on="0"/>
        <pt x="162" y="314" on="1"/>
        <pt x="162" y="184" on="0"/>
        <pt x="381" y="0" on="0"/>
        <pt x="535" y="0" on="1"/>
        <pt x="595" y="0" on="0"/>
        <pt x="700" y="32" on="0"/>
        <pt x="740" y="63" on="1"/>
        <pt x="772" y="8" on="1"/>
        <pt x="722" y="-27" on="0"/>
        <pt x="601" y="-64" on="0"/>
        <pt x="535" y="-64" on="1"/>
        <pt x="356" y="-64" on="0"/>
        <pt x="100" y="157" on="0"/>
        <pt x="100" y="314" on="1"/>
        <pt x="100" y="483" on="0"/>
        <pt x="356" y="723" on="0"/>
        <pt x="535" y="723" on="1"/>
        <pt x="704" y="723" on="0"/>
        <pt x="944" y="501" on="0"/>
        <pt x="944" y="344" on="1"/>
        <pt x="944" y="241" on="0"/>
        <pt x="830" y="95" on="0"/>
        <pt x="748" y="95" on="1"/>
        <pt x="702" y="95" on="0"/>
        <pt x="631" y="144" on="0"/>
        <pt x="625" y="182" on="1"/>
        <pt x="607" y="152" on="0"/>
        <pt x="541" y="119" on="0"/>
        <pt x="502" y="119" on="1"/>
        <pt x="423" y="119" on="0"/>
        <pt x="317" y="237" on="0"/>
      </contour>
    </TTGlyph>
    <TTGlyph name="audeva" xMin="24" yMin="0" xMax="1056" yMax="999">
      <contour>
        <pt x="310" y="47" on="1"/>
        <pt x="230" y="47" on="0"/>
        <pt x="80" y="180" on="0"/>
        <pt x="24" y="300" on="1"/>
        <pt x="71" y="340" on="1"/>
        <pt x="121" y="232" on="0"/>
        <pt x="246" y="113" on="0"/>
        <pt x="310" y="113" on="1"/>
        <pt x="352" y="113" on="0"/>
        <pt x="410" y="176" on="0"/>
        <pt x="410" y="220" on="1"/>
        <pt x="410" y="272" on="0"/>
        <pt x="344" y="346" on="0"/>
        <pt x="297" y="346" on="1"/>
        <pt x="282" y="346" on="0"/>
        <pt x="249" y="340" on="0"/>
        <pt x="230" y="333" on="1"/>
        <pt x="204" y="393" on="1"/>
        <pt x="264" y="398" on="0"/>
        <pt x="357" y="471" on="0"/>
        <pt x="357" y="513" on="1"/>
        <pt x="357" y="551" on="0"/>
        <pt x="294" y="606" on="0"/>
        <pt x="250" y="606" on="1"/>
        <pt x="220" y="606" on="0"/>
        <pt x="152" y="561" on="0"/>
        <pt x="124" y="519" on="1"/>
        <pt x="71" y="559" on="1"/>
        <pt x="108" y="613" on="0"/>
        <pt x="204" y="672" on="0"/>
        <pt x="250" y="672" on="1"/>
        <pt x="322" y="672" on="0"/>
        <pt x="423" y="579" on="0"/>
        <pt x="423" y="513" on="1"/>
        <pt x="423" y="479" on="0"/>
        <pt x="391" y="417" on="0"/>
        <pt x="364" y="393" on="1"/>
        <pt x="414" y="364" on="0"/>
        <pt x="499" y="333" on="0"/>
        <pt x="530" y="333" on="1"/>
        <pt x="539" y="333" on="0"/>
        <pt x="573" y="349" on="0"/>
        <pt x="603" y="366" on="1"/>
        <pt x="603" y="606" on="1"/>
        <pt x="483" y="606" on="1"/>
        <pt x="483" y="666" on="1"/>
        <pt x="846" y="666" on="1"/>
        <pt x="570" y="846" on="1"/>
        <pt x="610" y="905" on="1"/>
        <pt x="903" y="672" on="1"/>
        <pt x="763" y="959" on="1"/>
        <pt x="830" y="999" on="1"/>
        <pt x="940" y="666" on="1"/>
        <pt x="1056" y="666" on="1"/>
        <pt x="1056" y="606" on="1"/>
        <pt x="943" y="606" on="1"/>
        <pt x="943" y="0" on="1"/>
        <pt x="876" y="0" on="1"/>
        <pt x="876" y="606" on="1"/>
        <pt x="670" y="606" on="1"/>
        <pt x="670" y="0" on="1"/>
        <pt x="603" y="0" on="1"/>
        <pt x="603" y="300" on="1"/>
        <pt x="587" y="286" on="0"/>
        <pt x="554" y="273" on="0"/>
        <pt x="537" y="273" on="1"/>
        <pt x="509" y="273" on="0"/>
        <pt x="463" y="284" on="0"/>
        <pt x="450" y="293" on="1"/>
        <pt x="463" y="282" on="0"/>
        <pt x="477" y="244" on="0"/>
        <pt x="477" y="220" on="1"/>
        <pt x="477" y="148" on="0"/>
        <pt x="380" y="47" on="0"/>
      </contour>
    </TTGlyph>
    <TTGlyph name="ausign_ra_virama.alt1" xMin="-193" yMin="0" xMax="326" yMax="999">
      <contour>
        <pt x="-13" y="606" on="1"/>
        <pt x="-13" y="666" on="1"/>
        <pt x="87" y="666" on="1"/>
        <pt x="-193" y="799" on="1"/>
        <pt x="-160" y="866" on="1"/>
        <pt x="146" y="666" on="1"/>
        <pt x="-20" y="959" on="1"/>
        <pt x="47" y="999" on="1"/>
        <pt x="107" y="859" on="1"/>
        <pt x="127" y="899" on="0"/>
        <pt x="205" y="945" on="0"/>
        <pt x="253" y="945" on="1"/>
        <pt x="272" y="945" on="0"/>
        <pt x="308" y="939" on="0"/>
        <pt x="326" y="932" on="1"/>
        <pt x="326" y="872" on="1"/>
        <pt x="298" y="883" on="0"/>
        <pt x="262" y="892" on="0"/>
        <pt x="253" y="892" on="1"/>
        <pt x="206" y="892" on="0"/>
        <pt x="140" y="834" on="0"/>
        <pt x="140" y="792" on="1"/>
        <pt x="184" y="666" on="1"/>
        <pt x="280" y="666" on="1"/>
        <pt x="280" y="606" on="1"/>
        <pt x="166" y="606" on="1"/>
        <pt x="166" y="0" on="1"/>
        <pt x="100" y="0" on="1"/>
        <pt x="100" y="606" on="1"/>
      </contour>
    </TTGlyph>
    <TTGlyph name="ausign_ra_virama_anusvara" xMin="-193" yMin="0" xMax="320" yMax="999">
      <contour>
        <pt x="213" y="739" on="1"/>
        <pt x="213" y="812" on="1"/>
        <pt x="286" y="812" on="1"/>
        <pt x="286" y="739" on="1"/>
      </contour>
      <contour>
        <pt x="-13" y="606" on="1"/>
        <pt x="-13" y="666" on="1"/>
        <pt x="80" y="666" on="1"/>
        <pt x="-193" y="806" on="1"/>
        <pt x="-166" y="866" on="1"/>
        <pt x="146" y="666" on="1"/>
        <pt x="-27" y="959" on="1"/>
        <pt x="40" y="999" on="1"/>
        <pt x="100" y="859" on="1"/>
        <pt x="120" y="899" on="0"/>
        <pt x="198" y="945" on="0"/>
        <pt x="246" y="945" on="1"/>
        <pt x="265" y="945" on="0"/>
        <pt x="301" y="939" on="0"/>
        <pt x="320" y="932" on="1"/>
        <pt x="320" y="872" on="1"/>
        <pt x="292" y="883" on="0"/>
        <pt x="256" y="892" on="0"/>
        <pt x="246" y="892" on="1"/>
        <pt x="200" y="892" on="0"/>
        <pt x="133" y="834" on="0"/>
        <pt x="133" y="792" on="1"/>
        <pt x="177" y="666" on="1"/>
        <pt x="280" y="666" on="1"/>
        <pt x="280" y="606" on="1"/>
        <pt x="166" y="606" on="1"/>
        <pt x="166" y="0" on="1"/>
        <pt x="100" y="0" on="1"/>
        <pt x="100" y="606" on="1"/>
      </contour>
    </TTGlyph>
    <TTGlyph name="ausigndeva" xMin="-200" yMin="0" xMax="280" yMax="999">
      <contour>
        <pt x="-13" y="606" on="1"/>
        <pt x="-13" y="666" on="1"/>
        <pt x="76" y="666" on="1"/>
        <pt x="-200" y="846" on="1"/>
        <pt x="-160" y="905" on="1"/>
        <pt x="133" y="666" on="1"/>
        <pt x="-7" y="959" on="1"/>
        <pt x="60" y="999" on="1"/>
        <pt x="170" y="666" on="1"/>
        <pt x="280" y="666" on="1"/>
        <pt x="280" y="606" on="1"/>
        <pt x="166" y="606" on="1"/>
        <pt x="166" y="0" on="1"/>
        <pt x="100" y="0" on="1"/>
        <pt x="100" y="606" on="1"/>
      </contour>
    </TTGlyph>
    <TTGlyph name="ausigndeva_anusvaradeva" xMin="-186" yMin="0" xMax="280" yMax="999">
      <contour>
        <pt x="180" y="832" on="1"/>
        <pt x="180" y="925" on="1"/>
        <pt x="280" y="925" on="1"/>
        <pt x="280" y="832" on="1"/>
      </contour>
      <contour>
        <pt x="-13" y="606" on="1"/>
        <pt x="-13" y="666" on="1"/>
        <pt x="87" y="666" on="1"/>
        <pt x="-186" y="806" on="1"/>
        <pt x="-153" y="866" on="1"/>
        <pt x="146" y="666" on="1"/>
        <pt x="0" y="959" on="1"/>
        <pt x="67" y="999" on="1"/>
        <pt x="184" y="666" on="1"/>
        <pt x="280" y="666" on="1"/>
        <pt x="280" y="606" on="1"/>
        <pt x="166" y="606" on="1"/>
        <pt x="166" y="0" on="1"/>
        <pt x="100" y="0" on="1"/>
        <pt x="100" y="606" on="1"/>
      </contour>
    </TTGlyph>
    <TTGlyph name="avagrahacombiningsigndeva" xMin="-252" yMin="736" xMax="-36" yMax="1032">
      <contour>
        <pt x="-125" y="736" on="1"/>
        <pt x="-165" y="736" on="0"/>
        <pt x="-235" y="789" on="0"/>
        <pt x="-251" y="832" on="1"/>
        <pt x="-252" y="835" on="1"/>
        <pt x="-212" y="852" on="1"/>
        <pt x="-211" y="849" on="1"/>
        <pt x="-198" y="816" on="0"/>
        <pt x="-174" y="796" on="1"/>
        <pt x="-151" y="776" on="0"/>
        <pt x="-125" y="776" on="1"/>
        <pt x="-107" y="776" on="0"/>
        <pt x="-81" y="803" on="0"/>
        <pt x="-81" y="823" on="1"/>
        <pt x="-81" y="841" on="0"/>
        <pt x="-100" y="862" on="1"/>
        <pt x="-121" y="883" on="0"/>
        <pt x="-156" y="902" on="1"/>
        <pt x="-182" y="914" on="0"/>
        <pt x="-196" y="934" on="1"/>
        <pt x="-210" y="953" on="0"/>
        <pt x="-210" y="975" on="1"/>
        <pt x="-210" y="999" on="0"/>
        <pt x="-186" y="1016" on="1"/>
        <pt x="-162" y="1032" on="0"/>
        <pt x="-129" y="1032" on="1"/>
        <pt x="-36" y="1032" on="1"/>
        <pt x="-36" y="995" on="1"/>
        <pt x="-129" y="995" on="1"/>
        <pt x="-145" y="995" on="0"/>
        <pt x="-156" y="988" on="1"/>
        <pt x="-166" y="982" on="0"/>
        <pt x="-166" y="974" on="1"/>
        <pt x="-166" y="961" on="0"/>
        <pt x="-148" y="944" on="1"/>
        <pt x="-130" y="926" on="0"/>
        <pt x="-97" y="909" on="1"/>
        <pt x="-69" y="894" on="0"/>
        <pt x="-53" y="872" on="1"/>
        <pt x="-36" y="849" on="0"/>
        <pt x="-36" y="823" on="1"/>
        <pt x="-36" y="787" on="0"/>
        <pt x="-88" y="736" on="0"/>
      </contour>
    </TTGlyph>
    <TTGlyph name="avagrahadeva" xMin="25" yMin="5" xMax="398" yMax="652">
      <contour>
        <pt x="245" y="5" on="1"/>
        <pt x="176" y="5" on="0"/>
        <pt x="53" y="121" on="0"/>
        <pt x="25" y="214" on="1"/>
        <pt x="85" y="246" on="1"/>
        <pt x="108" y="170" on="0"/>
        <pt x="197" y="77" on="0"/>
        <pt x="245" y="77" on="1"/>
        <pt x="281" y="77" on="0"/>
        <pt x="332" y="144" on="0"/>
        <pt x="332" y="192" on="1"/>
        <pt x="332" y="236" on="0"/>
        <pt x="257" y="333" on="0"/>
        <pt x="192" y="376" on="1"/>
        <pt x="148" y="403" on="0"/>
        <pt x="99" y="487" on="0"/>
        <pt x="99" y="533" on="1"/>
        <pt x="99" y="582" on="0"/>
        <pt x="181" y="652" on="0"/>
        <pt x="238" y="652" on="1"/>
        <pt x="398" y="652" on="1"/>
        <pt x="398" y="585" on="1"/>
        <pt x="238" y="585" on="1"/>
        <pt x="208" y="585" on="0"/>
        <pt x="165" y="553" on="0"/>
        <pt x="165" y="530" on="1"/>
        <pt x="165" y="498" on="0"/>
        <pt x="233" y="417" on="0"/>
        <pt x="292" y="378" on="1"/>
        <pt x="341" y="345" on="0"/>
        <pt x="370" y="296" on="1"/>
        <pt x="398" y="246" on="0"/>
        <pt x="398" y="192" on="1"/>
        <pt x="398" y="115" on="0"/>
        <pt x="309" y="5" on="0"/>
      </contour>
    </TTGlyph>
    <TTGlyph name="awdeva" xMin="24" yMin="0" xMax="1056" yMax="998">
      <contour>
        <pt x="310" y="47" on="1"/>
        <pt x="230" y="47" on="0"/>
        <pt x="80" y="180" on="0"/>
        <pt x="24" y="300" on="1"/>
        <pt x="71" y="340" on="1"/>
        <pt x="121" y="232" on="0"/>
        <pt x="246" y="113" on="0"/>
        <pt x="310" y="113" on="1"/>
        <pt x="352" y="113" on="0"/>
        <pt x="410" y="176" on="0"/>
        <pt x="410" y="220" on="1"/>
        <pt x="410" y="272" on="0"/>
        <pt x="344" y="346" on="0"/>
        <pt x="297" y="346" on="1"/>
        <pt x="282" y="346" on="0"/>
        <pt x="249" y="340" on="0"/>
        <pt x="230" y="333" on="1"/>
        <pt x="204" y="393" on="1"/>
        <pt x="264" y="398" on="0"/>
        <pt x="357" y="471" on="0"/>
        <pt x="357" y="513" on="1"/>
        <pt x="357" y="551" on="0"/>
        <pt x="294" y="606" on="0"/>
        <pt x="250" y="606" on="1"/>
        <pt x="220" y="606" on="0"/>
        <pt x="152" y="561" on="0"/>
        <pt x="124" y="519" on="1"/>
        <pt x="71" y="559" on="1"/>
        <pt x="108" y="613" on="0"/>
        <pt x="204" y="672" on="0"/>
        <pt x="250" y="672" on="1"/>
        <pt x="322" y="672" on="0"/>
        <pt x="423" y="579" on="0"/>
        <pt x="423" y="513" on="1"/>
        <pt x="423" y="479" on="0"/>
        <pt x="391" y="417" on="0"/>
        <pt x="364" y="393" on="1"/>
        <pt x="414" y="364" on="0"/>
        <pt x="499" y="333" on="0"/>
        <pt x="530" y="333" on="1"/>
        <pt x="539" y="333" on="0"/>
        <pt x="573" y="349" on="0"/>
        <pt x="603" y="366" on="1"/>
        <pt x="603" y="606" on="1"/>
        <pt x="483" y="606" on="1"/>
        <pt x="483" y="666" on="1"/>
        <pt x="844" y="666" on="1"/>
        <pt x="831" y="690" on="0"/>
        <pt x="808" y="708" on="1"/>
        <pt x="763" y="744" on="0"/>
        <pt x="709" y="736" on="1"/>
        <pt x="636" y="725" on="0"/>
        <pt x="519" y="786" on="0"/>
        <pt x="494" y="863" on="1"/>
        <pt x="560" y="872" on="1"/>
        <pt x="577" y="819" on="0"/>
        <pt x="653" y="781" on="0"/>
        <pt x="701" y="788" on="1"/>
        <pt x="783" y="800" on="0"/>
        <pt x="831" y="750" on="1"/>
        <pt x="864" y="715" on="0"/>
        <pt x="880" y="666" on="1"/>
        <pt x="916" y="666" on="1"/>
        <pt x="916" y="701" on="0"/>
        <pt x="898" y="734" on="1"/>
        <pt x="871" y="784" on="0"/>
        <pt x="817" y="797" on="1"/>
        <pt x="747" y="816" on="0"/>
        <pt x="662" y="918" on="0"/>
        <pt x="669" y="998" on="1"/>
        <pt x="733" y="981" on="1"/>
        <pt x="728" y="925" on="0"/>
        <pt x="784" y="861" on="0"/>
        <pt x="831" y="849" on="1"/>
        <pt x="911" y="828" on="0"/>
        <pt x="936" y="763" on="1"/>
        <pt x="953" y="718" on="0"/>
        <pt x="949" y="666" on="1"/>
        <pt x="1056" y="666" on="1"/>
        <pt x="1056" y="606" on="1"/>
        <pt x="943" y="606" on="1"/>
        <pt x="943" y="0" on="1"/>
        <pt x="876" y="0" on="1"/>
        <pt x="876" y="606" on="1"/>
        <pt x="670" y="606" on="1"/>
        <pt x="670" y="0" on="1"/>
        <pt x="603" y="0" on="1"/>
        <pt x="603" y="300" on="1"/>
        <pt x="587" y="286" on="0"/>
        <pt x="554" y="273" on="0"/>
        <pt x="537" y="273" on="1"/>
        <pt x="509" y="273" on="0"/>
        <pt x="463" y="284" on="0"/>
        <pt x="450" y="293" on="1"/>
        <pt x="463" y="282" on="0"/>
        <pt x="477" y="244" on="0"/>
        <pt x="477" y="220" on="1"/>
        <pt x="477" y="148" on="0"/>
        <pt x="380" y="47" on="0"/>
      </contour>
    </TTGlyph>
    <TTGlyph name="awsigndeva" xMin="-288" yMin="0" xMax="280" yMax="998">
      <contour>
        <pt x="167" y="666" on="1"/>
        <pt x="280" y="666" on="1"/>
        <pt x="280" y="606" on="1"/>
        <pt x="166" y="606" on="1"/>
        <pt x="166" y="0" on="1"/>
        <pt x="100" y="0" on="1"/>
        <pt x="100" y="606" on="1"/>
        <pt x="-13" y="606" on="1"/>
        <pt x="-13" y="666" on="1"/>
        <pt x="62" y="666" on="1"/>
        <pt x="49" y="690" on="0"/>
        <pt x="26" y="708" on="1"/>
        <pt x="-4" y="731" on="0"/>
        <pt x="-54" y="737" on="1"/>
        <pt x="-63" y="738" on="0"/>
        <pt x="-73" y="736" on="1"/>
        <pt x="-88" y="733" on="0"/>
        <pt x="-111" y="733" on="1"/>
        <pt x="-162" y="733" on="0"/>
        <pt x="-204" y="756" on="1"/>
        <pt x="-263" y="787" on="0"/>
        <pt x="-288" y="863" on="1"/>
        <pt x="-222" y="872" on="1"/>
        <pt x="-205" y="819" on="0"/>
        <pt x="-167" y="800" on="1"/>
        <pt x="-139" y="786" on="0"/>
        <pt x="-106" y="786" on="1"/>
        <pt x="-96" y="786" on="0"/>
        <pt x="-66" y="790" on="0"/>
        <pt x="-51" y="790" on="1"/>
        <pt x="-48" y="790" on="0"/>
        <pt x="-46" y="790" on="1"/>
        <pt x="11" y="790" on="0"/>
        <pt x="49" y="750" on="1"/>
        <pt x="82" y="716" on="0"/>
        <pt x="98" y="666" on="1"/>
        <pt x="134" y="666" on="1"/>
        <pt x="134" y="701" on="0"/>
        <pt x="116" y="734" on="1"/>
        <pt x="89" y="784" on="0"/>
        <pt x="35" y="797" on="1"/>
        <pt x="-37" y="816" on="0"/>
        <pt x="-78" y="867" on="1"/>
        <pt x="-114" y="911" on="0"/>
        <pt x="-114" y="976" on="1"/>
        <pt x="-114" y="987" on="0"/>
        <pt x="-113" y="998" on="1"/>
        <pt x="-49" y="981" on="1"/>
        <pt x="-50" y="973" on="0"/>
        <pt x="-50" y="965" on="1"/>
        <pt x="-48" y="919" on="0"/>
        <pt x="-26" y="893" on="1"/>
        <pt x="0" y="862" on="0"/>
        <pt x="49" y="849" on="1"/>
        <pt x="129" y="828" on="0"/>
        <pt x="154" y="763" on="1"/>
        <pt x="167" y="729" on="0"/>
        <pt x="168" y="686" on="1"/>
        <pt x="168" y="675" on="0"/>
      </contour>
    </TTGlyph>
    <TTGlyph name="ba_virama_ra_viramadeva" xMin="-13" yMin="-2" xMax="380" yMax="666">
      <contour>
        <pt x="-13" y="606" on="1"/>
        <pt x="-13" y="666" on="1"/>
        <pt x="380" y="666" on="1"/>
        <pt x="380" y="606" on="1"/>
      </contour>
      <contour>
        <pt x="226" y="211" on="1"/>
        <pt x="250" y="211" on="0"/>
        <pt x="290" y="224" on="0"/>
        <pt x="306" y="238" on="1"/>
        <pt x="126" y="384" on="1"/>
        <pt x="117" y="372" on="0"/>
        <pt x="106" y="339" on="0"/>
        <pt x="106" y="318" on="1"/>
        <pt x="106" y="274" on="0"/>
        <pt x="177" y="211" on="0"/>
      </contour>
      <contour>
        <pt x="373" y="198" on="1"/>
        <pt x="73" y="-2" on="1"/>
        <pt x="40" y="51" on="1"/>
        <pt x="195" y="152" on="1"/>
        <pt x="127" y="167" on="0"/>
        <pt x="40" y="260" on="0"/>
        <pt x="40" y="318" on="1"/>
        <pt x="40" y="397" on="0"/>
        <pt x="157" y="511" on="0"/>
        <pt x="239" y="511" on="1"/>
        <pt x="265" y="511" on="0"/>
        <pt x="309" y="500" on="0"/>
        <pt x="326" y="491" on="1"/>
        <pt x="306" y="437" on="1"/>
        <pt x="291" y="444" on="0"/>
        <pt x="258" y="451" on="0"/>
        <pt x="239" y="451" on="1"/>
        <pt x="210" y="451" on="0"/>
        <pt x="169" y="436" on="0"/>
        <pt x="159" y="424" on="1"/>
        <pt x="353" y="278" on="1"/>
        <pt x="373" y="304" on="1"/>
      </contour>
    </TTGlyph>
    <TTGlyph name="backslash" xMin="100" yMin="-129" xMax="506" yMax="812">
      <contour>
        <pt x="506" y="-129" on="1"/>
        <pt x="438" y="-129" on="1"/>
        <pt x="100" y="812" on="1"/>
        <pt x="168" y="812" on="1"/>
      </contour>
    </TTGlyph>
    <TTGlyph name="badeva" xMin="-13" yMin="0" xMax="551" yMax="666">
      <contour>
        <pt x="225" y="213" on="1"/>
        <pt x="249" y="213" on="0"/>
        <pt x="289" y="226" on="0"/>
        <pt x="305" y="240" on="1"/>
        <pt x="125" y="386" on="1"/>
        <pt x="116" y="374" on="0"/>
        <pt x="105" y="341" on="0"/>
        <pt x="105" y="320" on="1"/>
        <pt x="105" y="276" on="0"/>
        <pt x="176" y="213" on="0"/>
      </contour>
      <contour>
        <pt x="39" y="320" on="1"/>
        <pt x="39" y="399" on="0"/>
        <pt x="156" y="513" on="0"/>
        <pt x="238" y="513" on="1"/>
        <pt x="264" y="513" on="0"/>
        <pt x="308" y="502" on="0"/>
        <pt x="325" y="493" on="1"/>
        <pt x="305" y="439" on="1"/>
        <pt x="290" y="446" on="0"/>
        <pt x="257" y="453" on="0"/>
        <pt x="238" y="453" on="1"/>
        <pt x="209" y="453" on="0"/>
        <pt x="168" y="438" on="0"/>
        <pt x="158" y="426" on="1"/>
        <pt x="352" y="280" on="1"/>
        <pt x="372" y="306" on="1"/>
        <pt x="372" y="606" on="1"/>
        <pt x="-13" y="606" on="1"/>
        <pt x="-13" y="666" on="1"/>
        <pt x="551" y="666" on="1"/>
        <pt x="551" y="606" on="1"/>
        <pt x="438" y="606" on="1"/>
        <pt x="438" y="0" on="1"/>
        <pt x="372" y="0" on="1"/>
        <pt x="372" y="213" on="1"/>
        <pt x="340" y="181" on="0"/>
        <pt x="264" y="146" on="0"/>
        <pt x="225" y="146" on="1"/>
        <pt x="148" y="146" on="0"/>
        <pt x="39" y="248" on="0"/>
      </contour>
    </TTGlyph>
    <TTGlyph name="badeva_viramadeva" xMin="-13" yMin="127" xMax="393" yMax="666">
      <contour>
        <pt x="-13" y="606" on="1"/>
        <pt x="-13" y="666" on="1"/>
        <pt x="380" y="666" on="1"/>
        <pt x="380" y="606" on="1"/>
      </contour>
      <contour>
        <pt x="226" y="193" on="1"/>
        <pt x="256" y="193" on="0"/>
        <pt x="308" y="214" on="0"/>
        <pt x="326" y="233" on="1"/>
        <pt x="127" y="380" on="1"/>
        <pt x="117" y="368" on="0"/>
        <pt x="107" y="334" on="0"/>
        <pt x="107" y="313" on="1"/>
        <pt x="107" y="264" on="0"/>
        <pt x="177" y="193" on="0"/>
      </contour>
      <contour>
        <pt x="226" y="127" on="1"/>
        <pt x="149" y="127" on="0"/>
        <pt x="40" y="236" on="0"/>
        <pt x="40" y="313" on="1"/>
        <pt x="40" y="395" on="0"/>
        <pt x="157" y="513" on="0"/>
        <pt x="240" y="513" on="1"/>
        <pt x="258" y="513" on="0"/>
        <pt x="292" y="506" on="0"/>
        <pt x="306" y="499" on="1"/>
        <pt x="306" y="433" on="1"/>
        <pt x="297" y="439" on="0"/>
        <pt x="262" y="446" on="0"/>
        <pt x="240" y="446" on="1"/>
        <pt x="216" y="446" on="0"/>
        <pt x="176" y="433" on="0"/>
        <pt x="160" y="419" on="1"/>
        <pt x="366" y="266" on="1"/>
        <pt x="393" y="300" on="1"/>
        <pt x="393" y="213" on="1"/>
        <pt x="365" y="172" on="0"/>
        <pt x="276" y="127" on="0"/>
      </contour>
    </TTGlyph>
    <TTGlyph name="badeva_viramadeva_radeva" xMin="-13" yMin="0" xMax="563" yMax="666">
      <contour>
        <pt x="237" y="213" on="1"/>
        <pt x="261" y="213" on="0"/>
        <pt x="301" y="226" on="0"/>
        <pt x="317" y="240" on="1"/>
        <pt x="137" y="386" on="1"/>
        <pt x="128" y="374" on="0"/>
        <pt x="117" y="341" on="0"/>
        <pt x="117" y="320" on="1"/>
        <pt x="117" y="276" on="0"/>
        <pt x="188" y="213" on="0"/>
      </contour>
      <contour>
        <pt x="51" y="320" on="1"/>
        <pt x="51" y="399" on="0"/>
        <pt x="168" y="513" on="0"/>
        <pt x="250" y="513" on="1"/>
        <pt x="276" y="513" on="0"/>
        <pt x="320" y="502" on="0"/>
        <pt x="337" y="493" on="1"/>
        <pt x="317" y="439" on="1"/>
        <pt x="302" y="446" on="0"/>
        <pt x="269" y="453" on="0"/>
        <pt x="250" y="453" on="1"/>
        <pt x="221" y="453" on="0"/>
        <pt x="180" y="438" on="0"/>
        <pt x="170" y="426" on="1"/>
        <pt x="364" y="280" on="1"/>
        <pt x="384" y="306" on="1"/>
        <pt x="384" y="606" on="1"/>
        <pt x="-13" y="606" on="1"/>
        <pt x="-13" y="666" on="1"/>
        <pt x="563" y="666" on="1"/>
        <pt x="563" y="606" on="1"/>
        <pt x="450" y="606" on="1"/>
        <pt x="450" y="0" on="1"/>
        <pt x="384" y="0" on="1"/>
        <pt x="384" y="200" on="1"/>
        <pt x="84" y="0" on="1"/>
        <pt x="51" y="53" on="1"/>
        <pt x="206" y="154" on="1"/>
        <pt x="138" y="169" on="0"/>
        <pt x="51" y="262" on="0"/>
      </contour>
    </TTGlyph>
    <TTGlyph name="bar" xMin="100" yMin="-326" xMax="166" yMax="999">
      <contour>
        <pt x="100" y="-326" on="1"/>
        <pt x="100" y="999" on="1"/>
        <pt x="166" y="999" on="1"/>
        <pt x="166" y="-326" on="1"/>
      </contour>
    </TTGlyph>
    <TTGlyph name="bbadeva" xMin="-15" yMin="-60" xMax="551" yMax="666">
      <contour>
        <pt x="225" y="213" on="1"/>
        <pt x="249" y="213" on="0"/>
        <pt x="289" y="226" on="0"/>
        <pt x="305" y="240" on="1"/>
        <pt x="125" y="386" on="1"/>
        <pt x="116" y="374" on="0"/>
        <pt x="105" y="341" on="0"/>
        <pt x="105" y="320" on="1"/>
        <pt x="105" y="276" on="0"/>
        <pt x="176" y="213" on="0"/>
      </contour>
      <contour>
        <pt x="39" y="320" on="1"/>
        <pt x="39" y="399" on="0"/>
        <pt x="156" y="513" on="0"/>
        <pt x="238" y="513" on="1"/>
        <pt x="264" y="513" on="0"/>
        <pt x="308" y="502" on="0"/>
        <pt x="325" y="493" on="1"/>
        <pt x="305" y="439" on="1"/>
        <pt x="290" y="446" on="0"/>
        <pt x="257" y="453" on="0"/>
        <pt x="238" y="453" on="1"/>
        <pt x="209" y="453" on="0"/>
        <pt x="168" y="438" on="0"/>
        <pt x="158" y="426" on="1"/>
        <pt x="352" y="280" on="1"/>
        <pt x="372" y="306" on="1"/>
        <pt x="372" y="606" on="1"/>
        <pt x="-13" y="606" on="1"/>
        <pt x="-13" y="666" on="1"/>
        <pt x="551" y="666" on="1"/>
        <pt x="551" y="606" on="1"/>
        <pt x="438" y="606" on="1"/>
        <pt x="438" y="0" on="1"/>
        <pt x="438" y="-60" on="1"/>
        <pt x="-15" y="-60" on="1"/>
        <pt x="-15" y="0" on="1"/>
        <pt x="372" y="0" on="1"/>
        <pt x="372" y="213" on="1"/>
        <pt x="340" y="181" on="0"/>
        <pt x="264" y="146" on="0"/>
        <pt x="225" y="146" on="1"/>
        <pt x="148" y="146" on="0"/>
        <pt x="39" y="248" on="0"/>
      </contour>
    </TTGlyph>
    <TTGlyph name="bhadeva" xMin="19" yMin="0" xMax="671" yMax="679">
      <contour>
        <pt x="119" y="326" on="1"/>
        <pt x="119" y="337" on="0"/>
        <pt x="138" y="353" on="0"/>
        <pt x="152" y="353" on="1"/>
        <pt x="205" y="353" on="1"/>
        <pt x="205" y="546" on="1"/>
        <pt x="205" y="574" on="0"/>
        <pt x="170" y="613" on="0"/>
        <pt x="120" y="613" on="0"/>
        <pt x="85" y="585" on="0"/>
        <pt x="85" y="566" on="1"/>
        <pt x="85" y="543" on="0"/>
        <pt x="120" y="513" on="0"/>
        <pt x="145" y="513" on="1"/>
        <pt x="145" y="446" on="1"/>
        <pt x="93" y="446" on="0"/>
        <pt x="19" y="517" on="0"/>
        <pt x="19" y="566" on="1"/>
        <pt x="19" y="613" on="0"/>
        <pt x="93" y="679" on="0"/>
        <pt x="197" y="679" on="0"/>
        <pt x="272" y="601" on="0"/>
        <pt x="272" y="546" on="1"/>
        <pt x="272" y="353" on="1"/>
        <pt x="491" y="353" on="1"/>
        <pt x="491" y="606" on="1"/>
        <pt x="318" y="606" on="1"/>
        <pt x="318" y="666" on="1"/>
        <pt x="671" y="666" on="1"/>
        <pt x="671" y="606" on="1"/>
        <pt x="558" y="606" on="1"/>
        <pt x="558" y="0" on="1"/>
        <pt x="491" y="0" on="1"/>
        <pt x="491" y="286" on="1"/>
        <pt x="272" y="286" on="1"/>
        <pt x="272" y="233" on="1"/>
        <pt x="272" y="222" on="0"/>
        <pt x="252" y="206" on="0"/>
        <pt x="238" y="206" on="1"/>
        <pt x="218" y="206" on="0"/>
        <pt x="119" y="306" on="0"/>
      </contour>
    </TTGlyph>
    <TTGlyph name="bhadeva_viramadeva" xMin="20" yMin="206" xMax="493" yMax="679">
      <contour>
        <pt x="113" y="313" on="1"/>
        <pt x="113" y="329" on="0"/>
        <pt x="137" y="353" on="0"/>
        <pt x="153" y="353" on="1"/>
        <pt x="206" y="353" on="1"/>
        <pt x="206" y="546" on="1"/>
        <pt x="206" y="574" on="0"/>
        <pt x="172" y="613" on="0"/>
        <pt x="146" y="613" on="1"/>
        <pt x="121" y="613" on="0"/>
        <pt x="87" y="585" on="0"/>
        <pt x="87" y="566" on="1"/>
        <pt x="87" y="543" on="0"/>
        <pt x="117" y="513" on="0"/>
        <pt x="140" y="513" on="1"/>
        <pt x="140" y="446" on="1"/>
        <pt x="91" y="446" on="0"/>
        <pt x="20" y="517" on="0"/>
        <pt x="20" y="566" on="1"/>
        <pt x="20" y="613" on="0"/>
        <pt x="95" y="679" on="0"/>
        <pt x="146" y="679" on="1"/>
        <pt x="198" y="679" on="0"/>
        <pt x="273" y="601" on="0"/>
        <pt x="273" y="546" on="1"/>
        <pt x="273" y="353" on="1"/>
        <pt x="493" y="353" on="1"/>
        <pt x="493" y="293" on="1"/>
        <pt x="273" y="293" on="1"/>
        <pt x="273" y="233" on="1"/>
        <pt x="273" y="222" on="0"/>
        <pt x="253" y="206" on="0"/>
        <pt x="240" y="206" on="1"/>
        <pt x="218" y="206" on="0"/>
        <pt x="113" y="296" on="0"/>
      </contour>
      <contour>
        <pt x="320" y="606" on="1"/>
        <pt x="320" y="666" on="1"/>
        <pt x="479" y="666" on="1"/>
        <pt x="479" y="606" on="1"/>
      </contour>
    </TTGlyph>
    <TTGlyph name="bhadeva_viramadeva_radeva" xMin="20" yMin="0" xMax="672" yMax="679">
      <contour>
        <pt x="120" y="326" on="1"/>
        <pt x="120" y="337" on="0"/>
        <pt x="140" y="353" on="0"/>
        <pt x="153" y="353" on="1"/>
        <pt x="206" y="353" on="1"/>
        <pt x="206" y="546" on="1"/>
        <pt x="206" y="574" on="0"/>
        <pt x="172" y="613" on="0"/>
        <pt x="146" y="613" on="1"/>
        <pt x="121" y="613" on="0"/>
        <pt x="87" y="585" on="0"/>
        <pt x="87" y="566" on="1"/>
        <pt x="87" y="543" on="0"/>
        <pt x="117" y="513" on="0"/>
        <pt x="140" y="513" on="1"/>
        <pt x="140" y="446" on="1"/>
        <pt x="91" y="446" on="0"/>
        <pt x="20" y="517" on="0"/>
        <pt x="20" y="566" on="1"/>
        <pt x="20" y="613" on="0"/>
        <pt x="95" y="679" on="0"/>
        <pt x="146" y="679" on="1"/>
        <pt x="198" y="679" on="0"/>
        <pt x="273" y="601" on="0"/>
        <pt x="273" y="546" on="1"/>
        <pt x="273" y="353" on="1"/>
        <pt x="493" y="353" on="1"/>
        <pt x="493" y="606" on="1"/>
        <pt x="320" y="606" on="1"/>
        <pt x="320" y="666" on="1"/>
        <pt x="672" y="666" on="1"/>
        <pt x="672" y="606" on="1"/>
        <pt x="559" y="606" on="1"/>
        <pt x="559" y="0" on="1"/>
        <pt x="493" y="0" on="1"/>
        <pt x="493" y="166" on="1"/>
        <pt x="180" y="0" on="1"/>
        <pt x="153" y="53" on="1"/>
        <pt x="493" y="226" on="1"/>
        <pt x="493" y="286" on="1"/>
        <pt x="273" y="286" on="1"/>
        <pt x="273" y="233" on="1"/>
        <pt x="273" y="222" on="0"/>
        <pt x="253" y="206" on="0"/>
        <pt x="240" y="206" on="1"/>
        <pt x="220" y="206" on="0"/>
        <pt x="120" y="306" on="0"/>
      </contour>
    </TTGlyph>
    <TTGlyph name="braceleft" xMin="100" yMin="-194" xMax="385" yMax="783">
      <contour>
        <pt x="100" y="310" on="1"/>
        <pt x="141" y="310" on="0"/>
        <pt x="201" y="378" on="0"/>
        <pt x="201" y="426" on="1"/>
        <pt x="201" y="558" on="1"/>
        <pt x="201" y="651" on="0"/>
        <pt x="309" y="783" on="0"/>
        <pt x="385" y="783" on="1"/>
        <pt x="385" y="731" on="1"/>
        <pt x="336" y="731" on="0"/>
        <pt x="265" y="630" on="0"/>
        <pt x="265" y="558" on="1"/>
        <pt x="265" y="426" on="1"/>
        <pt x="265" y="381" on="0"/>
        <pt x="220" y="309" on="0"/>
        <pt x="182" y="296" on="1"/>
        <pt x="220" y="282" on="0"/>
        <pt x="265" y="209" on="0"/>
        <pt x="265" y="162" on="1"/>
        <pt x="265" y="32" on="1"/>
        <pt x="265" y="-40" on="0"/>
        <pt x="336" y="-141" on="0"/>
        <pt x="385" y="-141" on="1"/>
        <pt x="385" y="-194" on="1"/>
        <pt x="309" y="-194" on="0"/>
        <pt x="201" y="-61" on="0"/>
        <pt x="201" y="32" on="1"/>
        <pt x="201" y="162" on="1"/>
        <pt x="201" y="209" on="0"/>
        <pt x="141" y="274" on="0"/>
        <pt x="100" y="274" on="1"/>
      </contour>
    </TTGlyph>
    <TTGlyph name="braceright" xMin="100" yMin="-160" xMax="386" yMax="818">
      <contour>
        <pt x="386" y="345" on="1"/>
        <pt x="386" y="309" on="1"/>
        <pt x="345" y="309" on="0"/>
        <pt x="285" y="244" on="0"/>
        <pt x="285" y="197" on="1"/>
        <pt x="285" y="67" on="1"/>
        <pt x="285" y="-27" on="0"/>
        <pt x="177" y="-160" on="0"/>
        <pt x="100" y="-160" on="1"/>
        <pt x="100" y="-107" on="1"/>
        <pt x="150" y="-107" on="0"/>
        <pt x="221" y="-5" on="0"/>
        <pt x="221" y="67" on="1"/>
        <pt x="221" y="197" on="1"/>
        <pt x="221" y="241" on="0"/>
        <pt x="268" y="313" on="0"/>
        <pt x="306" y="326" on="1"/>
        <pt x="268" y="340" on="0"/>
        <pt x="221" y="414" on="0"/>
        <pt x="221" y="461" on="1"/>
        <pt x="221" y="593" on="1"/>
        <pt x="221" y="664" on="0"/>
        <pt x="150" y="766" on="0"/>
        <pt x="100" y="766" on="1"/>
        <pt x="100" y="818" on="1"/>
        <pt x="177" y="818" on="0"/>
        <pt x="285" y="686" on="0"/>
        <pt x="285" y="593" on="1"/>
        <pt x="285" y="461" on="1"/>
        <pt x="285" y="413" on="0"/>
        <pt x="345" y="345" on="0"/>
      </contour>
    </TTGlyph>
    <TTGlyph name="bracketleft" xMin="100" yMin="-266" xMax="293" yMax="945">
      <contour>
        <pt x="100" y="-266" on="1"/>
        <pt x="100" y="945" on="1"/>
        <pt x="293" y="945" on="1"/>
        <pt x="293" y="872" on="1"/>
        <pt x="166" y="872" on="1"/>
        <pt x="166" y="-193" on="1"/>
        <pt x="293" y="-193" on="1"/>
        <pt x="293" y="-266" on="1"/>
      </contour>
    </TTGlyph>
    <TTGlyph name="bracketright" xMin="100" yMin="-266" xMax="293" yMax="945">
      <contour>
        <pt x="100" y="-266" on="1"/>
        <pt x="100" y="-193" on="1"/>
        <pt x="220" y="-193" on="1"/>
        <pt x="220" y="872" on="1"/>
        <pt x="100" y="872" on="1"/>
        <pt x="100" y="945" on="1"/>
        <pt x="293" y="945" on="1"/>
        <pt x="293" y="-266" on="1"/>
      </contour>
    </TTGlyph>
    <TTGlyph name="cadeva" xMin="-13" yMin="0" xMax="651" yMax="666">
      <contour>
        <pt x="-13" y="606" on="1"/>
        <pt x="-13" y="666" on="1"/>
        <pt x="651" y="666" on="1"/>
        <pt x="651" y="606" on="1"/>
        <pt x="538" y="606" on="1"/>
        <pt x="538" y="0" on="1"/>
        <pt x="471" y="0" on="1"/>
        <pt x="471" y="240" on="1"/>
        <pt x="431" y="184" on="0"/>
        <pt x="337" y="120" on="0"/>
        <pt x="292" y="120" on="1"/>
        <pt x="225" y="120" on="0"/>
        <pt x="132" y="213" on="0"/>
        <pt x="132" y="280" on="1"/>
        <pt x="132" y="328" on="0"/>
        <pt x="170" y="406" on="0"/>
        <pt x="205" y="426" on="1"/>
        <pt x="12" y="426" on="1"/>
        <pt x="12" y="493" on="1"/>
        <pt x="405" y="493" on="1"/>
        <pt x="405" y="426" on="1"/>
        <pt x="312" y="426" on="1"/>
        <pt x="261" y="407" on="0"/>
        <pt x="198" y="328" on="0"/>
        <pt x="198" y="280" on="1"/>
        <pt x="198" y="241" on="0"/>
        <pt x="253" y="186" on="0"/>
        <pt x="292" y="186" on="1"/>
        <pt x="334" y="186" on="0"/>
        <pt x="430" y="269" on="0"/>
        <pt x="471" y="340" on="1"/>
        <pt x="471" y="606" on="1"/>
      </contour>
    </TTGlyph>
    <TTGlyph name="cadeva_viramadeva" xMin="-13" yMin="120" xMax="505" yMax="666">
      <contour>
        <pt x="-13" y="606" on="1"/>
        <pt x="-13" y="666" on="1"/>
        <pt x="491" y="666" on="1"/>
        <pt x="491" y="606" on="1"/>
      </contour>
      <contour>
        <pt x="292" y="120" on="1"/>
        <pt x="225" y="120" on="0"/>
        <pt x="132" y="213" on="0"/>
        <pt x="132" y="280" on="1"/>
        <pt x="132" y="325" on="0"/>
        <pt x="170" y="402" on="0"/>
        <pt x="205" y="426" on="1"/>
        <pt x="12" y="426" on="1"/>
        <pt x="12" y="493" on="1"/>
        <pt x="398" y="493" on="1"/>
        <pt x="398" y="426" on="1"/>
        <pt x="318" y="426" on="1"/>
        <pt x="264" y="401" on="0"/>
        <pt x="198" y="321" on="0"/>
        <pt x="198" y="280" on="1"/>
        <pt x="198" y="241" on="0"/>
        <pt x="253" y="186" on="0"/>
        <pt x="292" y="186" on="1"/>
        <pt x="337" y="186" on="0"/>
        <pt x="451" y="293" on="0"/>
        <pt x="505" y="386" on="1"/>
        <pt x="505" y="280" on="1"/>
        <pt x="453" y="205" on="0"/>
        <pt x="340" y="120" on="0"/>
      </contour>
    </TTGlyph>
    <TTGlyph name="cadeva_viramadeva_cadeva" xMin="-13" yMin="0" xMax="662" yMax="666">
      <contour>
        <pt x="-13" y="606" on="1"/>
        <pt x="-13" y="666" on="1"/>
        <pt x="662" y="666" on="1"/>
        <pt x="662" y="606" on="1"/>
        <pt x="549" y="606" on="1"/>
        <pt x="549" y="0" on="1"/>
        <pt x="482" y="0" on="1"/>
        <pt x="482" y="233" on="1"/>
        <pt x="445" y="168" on="0"/>
        <pt x="341" y="93" on="0"/>
        <pt x="289" y="93" on="1"/>
        <pt x="234" y="93" on="0"/>
        <pt x="156" y="156" on="0"/>
        <pt x="156" y="200" on="1"/>
        <pt x="156" y="214" on="0"/>
        <pt x="166" y="241" on="0"/>
        <pt x="176" y="253" on="1"/>
        <pt x="23" y="253" on="1"/>
        <pt x="23" y="320" on="1"/>
        <pt x="169" y="320" on="1"/>
        <pt x="162" y="329" on="0"/>
        <pt x="156" y="353" on="0"/>
        <pt x="156" y="366" on="1"/>
        <pt x="156" y="386" on="0"/>
        <pt x="177" y="422" on="0"/>
        <pt x="196" y="433" on="1"/>
        <pt x="23" y="433" on="1"/>
        <pt x="23" y="499" on="1"/>
        <pt x="389" y="499" on="1"/>
        <pt x="389" y="433" on="1"/>
        <pt x="302" y="433" on="1"/>
        <pt x="264" y="422" on="0"/>
        <pt x="216" y="385" on="0"/>
        <pt x="216" y="366" on="1"/>
        <pt x="216" y="354" on="0"/>
        <pt x="229" y="330" on="0"/>
        <pt x="242" y="320" on="1"/>
        <pt x="362" y="320" on="1"/>
        <pt x="362" y="253" on="1"/>
        <pt x="262" y="253" on="1"/>
        <pt x="241" y="245" on="0"/>
        <pt x="216" y="216" on="0"/>
        <pt x="216" y="200" on="1"/>
        <pt x="216" y="181" on="0"/>
        <pt x="258" y="153" on="0"/>
        <pt x="289" y="153" on="1"/>
        <pt x="345" y="153" on="0"/>
        <pt x="451" y="256" on="0"/>
        <pt x="482" y="340" on="1"/>
        <pt x="482" y="606" on="1"/>
      </contour>
    </TTGlyph>
    <TTGlyph name="cadeva_viramadeva_radeva" xMin="-13" yMin="-33" xMax="651" yMax="666">
      <contour>
        <pt x="-13" y="606" on="1"/>
        <pt x="-13" y="666" on="1"/>
        <pt x="651" y="666" on="1"/>
        <pt x="651" y="606" on="1"/>
        <pt x="538" y="606" on="1"/>
        <pt x="538" y="0" on="1"/>
        <pt x="471" y="0" on="1"/>
        <pt x="471" y="216" on="1"/>
        <pt x="125" y="-33" on="1"/>
        <pt x="85" y="20" on="1"/>
        <pt x="242" y="125" on="1"/>
        <pt x="193" y="138" on="0"/>
        <pt x="132" y="225" on="0"/>
        <pt x="132" y="280" on="1"/>
        <pt x="132" y="328" on="0"/>
        <pt x="170" y="406" on="0"/>
        <pt x="205" y="426" on="1"/>
        <pt x="12" y="426" on="1"/>
        <pt x="12" y="493" on="1"/>
        <pt x="405" y="493" on="1"/>
        <pt x="405" y="426" on="1"/>
        <pt x="312" y="426" on="1"/>
        <pt x="261" y="407" on="0"/>
        <pt x="198" y="328" on="0"/>
        <pt x="198" y="280" on="1"/>
        <pt x="198" y="241" on="0"/>
        <pt x="253" y="186" on="0"/>
        <pt x="292" y="186" on="1"/>
        <pt x="321" y="186" on="0"/>
        <pt x="414" y="249" on="0"/>
        <pt x="471" y="306" on="1"/>
        <pt x="471" y="606" on="1"/>
      </contour>
    </TTGlyph>
    <TTGlyph name="candrabinduavagrahadeva" xMin="100" yMin="-33" xMax="526" yMax="665">
      <contour>
        <pt x="267" y="578" on="1"/>
        <pt x="267" y="665" on="1"/>
        <pt x="353" y="665" on="1"/>
        <pt x="353" y="578" on="1"/>
      </contour>
      <contour>
        <pt x="313" y="432" on="1"/>
        <pt x="235" y="432" on="0"/>
        <pt x="115" y="537" on="0"/>
        <pt x="100" y="618" on="1"/>
        <pt x="173" y="618" on="1"/>
        <pt x="183" y="564" on="0"/>
        <pt x="263" y="492" on="0"/>
        <pt x="313" y="492" on="1"/>
        <pt x="364" y="492" on="0"/>
        <pt x="444" y="564" on="0"/>
        <pt x="453" y="618" on="1"/>
        <pt x="526" y="618" on="1"/>
        <pt x="512" y="537" on="0"/>
        <pt x="392" y="432" on="0"/>
      </contour>
      <contour>
        <pt x="305" y="-33" on="1"/>
        <pt x="252" y="-33" on="0"/>
        <pt x="204" y="3" on="1"/>
        <pt x="156" y="39" on="0"/>
        <pt x="135" y="97" on="1"/>
        <pt x="132" y="104" on="1"/>
        <pt x="191" y="129" on="1"/>
        <pt x="194" y="122" on="1"/>
        <pt x="210" y="78" on="0"/>
        <pt x="242" y="51" on="1"/>
        <pt x="273" y="25" on="0"/>
        <pt x="307" y="25" on="1"/>
        <pt x="330" y="25" on="0"/>
        <pt x="364" y="61" on="0"/>
        <pt x="364" y="87" on="1"/>
        <pt x="364" y="110" on="0"/>
        <pt x="338" y="137" on="1"/>
        <pt x="311" y="165" on="0"/>
        <pt x="263" y="190" on="1"/>
        <pt x="229" y="207" on="0"/>
        <pt x="209" y="234" on="1"/>
        <pt x="190" y="261" on="0"/>
        <pt x="190" y="291" on="1"/>
        <pt x="190" y="325" on="0"/>
        <pt x="224" y="348" on="1"/>
        <pt x="256" y="370" on="0"/>
        <pt x="301" y="370" on="1"/>
        <pt x="429" y="370" on="1"/>
        <pt x="429" y="315" on="1"/>
        <pt x="301" y="315" on="1"/>
        <pt x="281" y="315" on="0"/>
        <pt x="267" y="306" on="1"/>
        <pt x="254" y="299" on="0"/>
        <pt x="254" y="289" on="1"/>
        <pt x="254" y="273" on="0"/>
        <pt x="277" y="251" on="1"/>
        <pt x="302" y="228" on="0"/>
        <pt x="345" y="205" on="1"/>
        <pt x="384" y="184" on="0"/>
        <pt x="406" y="153" on="1"/>
        <pt x="429" y="121" on="0"/>
        <pt x="429" y="87" on="1"/>
        <pt x="429" y="37" on="0"/>
        <pt x="358" y="-33" on="0"/>
      </contour>
    </TTGlyph>
    <TTGlyph name="candrabindudeva" xMin="-345" yMin="759" xMax="81" yMax="992">
      <contour>
        <pt x="-178" y="905" on="1"/>
        <pt x="-178" y="992" on="1"/>
        <pt x="-92" y="992" on="1"/>
        <pt x="-92" y="905" on="1"/>
      </contour>
      <contour>
        <pt x="-132" y="759" on="1"/>
        <pt x="-210" y="759" on="0"/>
        <pt x="-330" y="864" on="0"/>
        <pt x="-345" y="945" on="1"/>
        <pt x="-272" y="945" on="1"/>
        <pt x="-262" y="891" on="0"/>
        <pt x="-182" y="819" on="0"/>
        <pt x="-132" y="819" on="1"/>
        <pt x="-81" y="819" on="0"/>
        <pt x="-1" y="891" on="0"/>
        <pt x="8" y="945" on="1"/>
        <pt x="81" y="945" on="1"/>
        <pt x="67" y="864" on="0"/>
        <pt x="-53" y="759" on="0"/>
      </contour>
    </TTGlyph>
    <TTGlyph name="candrabindudigitthreedeva" xMin="100" yMin="-147" xMax="526" yMax="665">
      <contour>
        <pt x="267" y="578" on="1"/>
        <pt x="267" y="665" on="1"/>
        <pt x="353" y="665" on="1"/>
        <pt x="353" y="578" on="1"/>
      </contour>
      <contour>
        <pt x="313" y="432" on="1"/>
        <pt x="235" y="432" on="0"/>
        <pt x="115" y="537" on="0"/>
        <pt x="100" y="618" on="1"/>
        <pt x="173" y="618" on="1"/>
        <pt x="183" y="564" on="0"/>
        <pt x="263" y="492" on="0"/>
        <pt x="313" y="492" on="1"/>
        <pt x="364" y="492" on="0"/>
        <pt x="444" y="564" on="0"/>
        <pt x="453" y="618" on="1"/>
        <pt x="526" y="618" on="1"/>
        <pt x="512" y="537" on="0"/>
        <pt x="392" y="432" on="0"/>
      </contour>
      <contour>
        <pt x="356" y="-145" on="1"/>
        <pt x="335" y="-135" on="0"/>
        <pt x="310" y="-108" on="1"/>
        <pt x="288" y="-84" on="0"/>
        <pt x="266" y="-47" on="1"/>
        <pt x="266" y="-46" on="1"/>
        <pt x="264" y="-46" on="1"/>
        <pt x="228" y="-45" on="0"/>
        <pt x="202" y="-27" on="1"/>
        <pt x="173" y="-7" on="0"/>
        <pt x="173" y="21" on="1"/>
        <pt x="173" y="38" on="0"/>
        <pt x="188" y="50" on="1"/>
        <pt x="203" y="60" on="0"/>
        <pt x="225" y="60" on="1"/>
        <pt x="247" y="60" on="0"/>
        <pt x="270" y="46" on="1"/>
        <pt x="291" y="33" on="0"/>
        <pt x="307" y="11" on="1"/>
        <pt x="308" y="9" on="1"/>
        <pt x="310" y="10" on="1"/>
        <pt x="350" y="16" on="0"/>
        <pt x="376" y="37" on="1"/>
        <pt x="402" y="58" on="0"/>
        <pt x="402" y="85" on="1"/>
        <pt x="402" y="114" on="0"/>
        <pt x="371" y="135" on="1"/>
        <pt x="338" y="158" on="0"/>
        <pt x="290" y="158" on="1"/>
        <pt x="231" y="158" on="1"/>
        <pt x="196" y="208" on="1"/>
        <pt x="300" y="208" on="1"/>
        <pt x="334" y="208" on="0"/>
        <pt x="359" y="226" on="1"/>
        <pt x="382" y="242" on="0"/>
        <pt x="382" y="265" on="1"/>
        <pt x="382" y="285" on="0"/>
        <pt x="358" y="301" on="1"/>
        <pt x="332" y="317" on="0"/>
        <pt x="295" y="317" on="1"/>
        <pt x="274" y="317" on="0"/>
        <pt x="248" y="310" on="1"/>
        <pt x="222" y="303" on="0"/>
        <pt x="193" y="290" on="1"/>
        <pt x="188" y="287" on="1"/>
        <pt x="154" y="326" on="1"/>
        <pt x="161" y="331" on="1"/>
        <pt x="190" y="351" on="0"/>
        <pt x="262" y="372" on="0"/>
        <pt x="300" y="372" on="1"/>
        <pt x="360" y="372" on="0"/>
        <pt x="403" y="341" on="1"/>
        <pt x="447" y="310" on="0"/>
        <pt x="447" y="265" on="1"/>
        <pt x="447" y="238" on="0"/>
        <pt x="428" y="213" on="1"/>
        <pt x="415" y="196" on="0"/>
        <pt x="396" y="184" on="1"/>
        <pt x="392" y="182" on="1"/>
        <pt x="396" y="180" on="1"/>
        <pt x="424" y="166" on="0"/>
        <pt x="442" y="146" on="1"/>
        <pt x="467" y="118" on="0"/>
        <pt x="467" y="85" on="1"/>
        <pt x="467" y="40" on="0"/>
        <pt x="425" y="5" on="1"/>
        <pt x="389" y="-25" on="0"/>
        <pt x="337" y="-36" on="1"/>
        <pt x="333" y="-36" on="1"/>
        <pt x="335" y="-40" on="1"/>
        <pt x="354" y="-64" on="0"/>
        <pt x="370" y="-80" on="1"/>
        <pt x="389" y="-99" on="0"/>
        <pt x="402" y="-104" on="1"/>
        <pt x="416" y="-109" on="1"/>
        <pt x="360" y="-147" on="1"/>
      </contour>
    </TTGlyph>
    <TTGlyph name="candrabindudigittwodeva" xMin="100" yMin="-96" xMax="526" yMax="665">
      <contour>
        <pt x="267" y="578" on="1"/>
        <pt x="267" y="665" on="1"/>
        <pt x="353" y="665" on="1"/>
        <pt x="353" y="578" on="1"/>
      </contour>
      <contour>
        <pt x="313" y="432" on="1"/>
        <pt x="235" y="432" on="0"/>
        <pt x="115" y="537" on="0"/>
        <pt x="100" y="618" on="1"/>
        <pt x="173" y="618" on="1"/>
        <pt x="183" y="564" on="0"/>
        <pt x="263" y="492" on="0"/>
        <pt x="313" y="492" on="1"/>
        <pt x="364" y="492" on="0"/>
        <pt x="444" y="564" on="0"/>
        <pt x="453" y="618" on="1"/>
        <pt x="526" y="618" on="1"/>
        <pt x="512" y="537" on="0"/>
        <pt x="392" y="432" on="0"/>
      </contour>
      <contour>
        <pt x="411" y="-96" on="1"/>
        <pt x="280" y="45" on="1"/>
        <pt x="279" y="45" on="1"/>
        <pt x="275" y="44" on="0"/>
        <pt x="270" y="44" on="1"/>
        <pt x="261" y="42" on="0"/>
        <pt x="248" y="42" on="1"/>
        <pt x="215" y="42" on="0"/>
        <pt x="191" y="57" on="1"/>
        <pt x="166" y="73" on="0"/>
        <pt x="166" y="98" on="1"/>
        <pt x="166" y="115" on="0"/>
        <pt x="183" y="127" on="1"/>
        <pt x="200" y="137" on="0"/>
        <pt x="223" y="137" on="1"/>
        <pt x="244" y="137" on="0"/>
        <pt x="266" y="128" on="1"/>
        <pt x="286" y="120" on="0"/>
        <pt x="304" y="107" on="1"/>
        <pt x="305" y="106" on="1"/>
        <pt x="306" y="106" on="1"/>
        <pt x="352" y="121" on="0"/>
        <pt x="381" y="153" on="1"/>
        <pt x="410" y="186" on="0"/>
        <pt x="410" y="226" on="1"/>
        <pt x="410" y="264" on="0"/>
        <pt x="379" y="290" on="1"/>
        <pt x="348" y="318" on="0"/>
        <pt x="303" y="318" on="1"/>
        <pt x="270" y="318" on="0"/>
        <pt x="204" y="296" on="0"/>
        <pt x="172" y="275" on="1"/>
        <pt x="167" y="272" on="1"/>
        <pt x="126" y="315" on="1"/>
        <pt x="134" y="320" on="1"/>
        <pt x="173" y="345" on="0"/>
        <pt x="216" y="359" on="1"/>
        <pt x="260" y="373" on="0"/>
        <pt x="303" y="373" on="1"/>
        <pt x="373" y="373" on="0"/>
        <pt x="424" y="330" on="1"/>
        <pt x="476" y="287" on="0"/>
        <pt x="476" y="226" on="1"/>
        <pt x="476" y="170" on="0"/>
        <pt x="437" y="125" on="1"/>
        <pt x="403" y="86" on="0"/>
        <pt x="350" y="67" on="1"/>
        <pt x="346" y="66" on="1"/>
        <pt x="465" y="-64" on="1"/>
      </contour>
    </TTGlyph>
    <TTGlyph name="candrabinduinverteddeva" xMin="-345" yMin="759" xMax="81" yMax="992">
      <contour>
        <pt x="-178" y="846" on="1"/>
        <pt x="-92" y="846" on="1"/>
        <pt x="-92" y="759" on="1"/>
        <pt x="-178" y="759" on="1"/>
      </contour>
      <contour>
        <pt x="-132" y="992" on="1"/>
        <pt x="-53" y="992" on="0"/>
        <pt x="67" y="887" on="0"/>
        <pt x="81" y="806" on="1"/>
        <pt x="8" y="806" on="1"/>
        <pt x="-1" y="860" on="0"/>
        <pt x="-81" y="932" on="0"/>
        <pt x="-132" y="932" on="1"/>
        <pt x="-182" y="932" on="0"/>
        <pt x="-262" y="860" on="0"/>
        <pt x="-272" y="806" on="1"/>
        <pt x="-345" y="806" on="1"/>
        <pt x="-330" y="887" on="0"/>
        <pt x="-210" y="992" on="0"/>
      </contour>
    </TTGlyph>
    <TTGlyph name="candrabinduviramadeva" xMin="100" yMin="100" xMax="552" yMax="665">
      <contour>
        <pt x="266" y="220" on="1"/>
        <pt x="232" y="267" on="1"/>
        <pt x="312" y="327" on="1"/>
        <pt x="552" y="140" on="1"/>
        <pt x="512" y="100" on="1"/>
        <pt x="312" y="260" on="1"/>
      </contour>
      <contour>
        <pt x="267" y="578" on="1"/>
        <pt x="267" y="665" on="1"/>
        <pt x="353" y="665" on="1"/>
        <pt x="353" y="578" on="1"/>
      </contour>
      <contour>
        <pt x="313" y="432" on="1"/>
        <pt x="235" y="432" on="0"/>
        <pt x="115" y="537" on="0"/>
        <pt x="100" y="618" on="1"/>
        <pt x="173" y="618" on="1"/>
        <pt x="183" y="564" on="0"/>
        <pt x="263" y="492" on="0"/>
        <pt x="313" y="492" on="1"/>
        <pt x="364" y="492" on="0"/>
        <pt x="444" y="564" on="0"/>
        <pt x="453" y="618" on="1"/>
        <pt x="526" y="618" on="1"/>
        <pt x="512" y="537" on="0"/>
        <pt x="392" y="432" on="0"/>
      </contour>
    </TTGlyph>
    <TTGlyph name="caretdeva" xMin="72" yMin="666" xMax="544" yMax="945">
      <contour>
        <pt x="308" y="715" on="1"/>
        <pt x="484" y="945" on="1"/>
        <pt x="544" y="892" on="1"/>
        <pt x="345" y="666" on="1"/>
        <pt x="272" y="666" on="1"/>
        <pt x="267" y="672" on="0"/>
        <pt x="72" y="892" on="1"/>
        <pt x="132" y="945" on="1"/>
      </contour>
    </TTGlyph>
    <TTGlyph name="cent" xMin="100" yMin="-125" xMax="650" yMax="804">
      <contour>
        <pt x="446" y="595" on="1"/>
        <pt x="425" y="599" on="0"/>
        <pt x="390" y="605" on="0"/>
        <pt x="378" y="605" on="1"/>
        <pt x="285" y="605" on="0"/>
        <pt x="172" y="457" on="0"/>
        <pt x="172" y="333" on="1"/>
        <pt x="172" y="265" on="0"/>
        <pt x="213" y="145" on="0"/>
        <pt x="252" y="101" on="1"/>
      </contour>
      <contour>
        <pt x="100" y="333" on="1"/>
        <pt x="100" y="483" on="0"/>
        <pt x="252" y="666" on="0"/>
        <pt x="378" y="666" on="1"/>
        <pt x="403" y="666" on="0"/>
        <pt x="447" y="660" on="0"/>
        <pt x="466" y="656" on="1"/>
        <pt x="526" y="804" on="1"/>
        <pt x="593" y="804" on="1"/>
        <pt x="525" y="630" on="1"/>
        <pt x="577" y="595" on="0"/>
        <pt x="640" y="498" on="0"/>
        <pt x="644" y="446" on="1"/>
        <pt x="570" y="446" on="1"/>
        <pt x="567" y="477" on="0"/>
        <pt x="533" y="541" on="0"/>
        <pt x="502" y="570" on="1"/>
        <pt x="309" y="71" on="1"/>
        <pt x="329" y="65" on="0"/>
        <pt x="364" y="59" on="0"/>
        <pt x="378" y="59" on="1"/>
        <pt x="462" y="59" on="0"/>
        <pt x="571" y="150" on="0"/>
        <pt x="578" y="228" on="1"/>
        <pt x="650" y="228" on="1"/>
        <pt x="640" y="123" on="0"/>
        <pt x="493" y="-3" on="0"/>
        <pt x="378" y="-3" on="1"/>
        <pt x="356" y="-3" on="0"/>
        <pt x="308" y="4" on="0"/>
        <pt x="285" y="11" on="1"/>
        <pt x="232" y="-125" on="1"/>
        <pt x="165" y="-125" on="1"/>
        <pt x="229" y="37" on="1"/>
        <pt x="168" y="81" on="0"/>
        <pt x="100" y="238" on="0"/>
      </contour>
    </TTGlyph>
    <TTGlyph name="chadeva" xMin="-13" yMin="33" xMax="723" yMax="666">
      <contour>
        <pt x="523" y="220" on="1"/>
        <pt x="561" y="246" on="0"/>
        <pt x="603" y="324" on="0"/>
        <pt x="603" y="366" on="1"/>
        <pt x="603" y="397" on="0"/>
        <pt x="557" y="439" on="0"/>
        <pt x="523" y="439" on="1"/>
        <pt x="493" y="439" on="0"/>
        <pt x="450" y="393" on="0"/>
        <pt x="450" y="360" on="1"/>
        <pt x="450" y="318" on="0"/>
        <pt x="489" y="244" on="0"/>
      </contour>
      <contour>
        <pt x="310" y="100" on="1"/>
        <pt x="353" y="100" on="0"/>
        <pt x="438" y="134" on="0"/>
        <pt x="477" y="166" on="1"/>
        <pt x="431" y="212" on="0"/>
        <pt x="384" y="312" on="0"/>
        <pt x="384" y="360" on="1"/>
        <pt x="384" y="415" on="0"/>
        <pt x="443" y="498" on="0"/>
        <pt x="490" y="506" on="1"/>
        <pt x="490" y="606" on="1"/>
        <pt x="170" y="606" on="1"/>
        <pt x="145" y="585" on="0"/>
        <pt x="117" y="533" on="0"/>
        <pt x="117" y="506" on="1"/>
        <pt x="117" y="467" on="0"/>
        <pt x="188" y="413" on="0"/>
        <pt x="237" y="413" on="1"/>
        <pt x="310" y="413" on="1"/>
        <pt x="310" y="346" on="1"/>
        <pt x="257" y="346" on="1"/>
        <pt x="213" y="346" on="0"/>
        <pt x="150" y="272" on="0"/>
        <pt x="150" y="220" on="1"/>
        <pt x="150" y="170" on="0"/>
        <pt x="244" y="100" on="0"/>
      </contour>
      <contour>
        <pt x="310" y="33" on="1"/>
        <pt x="217" y="33" on="0"/>
        <pt x="84" y="142" on="0"/>
        <pt x="84" y="220" on="1"/>
        <pt x="84" y="268" on="0"/>
        <pt x="123" y="349" on="0"/>
        <pt x="157" y="373" on="1"/>
        <pt x="108" y="395" on="0"/>
        <pt x="51" y="467" on="0"/>
        <pt x="51" y="506" on="1"/>
        <pt x="51" y="539" on="0"/>
        <pt x="72" y="593" on="0"/>
        <pt x="91" y="606" on="1"/>
        <pt x="-13" y="606" on="1"/>
        <pt x="-13" y="666" on="1"/>
        <pt x="723" y="666" on="1"/>
        <pt x="723" y="606" on="1"/>
        <pt x="557" y="606" on="1"/>
        <pt x="557" y="506" on="1"/>
        <pt x="606" y="497" on="0"/>
        <pt x="670" y="418" on="0"/>
        <pt x="670" y="366" on="1"/>
        <pt x="670" y="249" on="0"/>
        <pt x="437" y="33" on="0"/>
      </contour>
    </TTGlyph>
    <TTGlyph name="chadeva_viramadeva" xMin="-13" yMin="33" xMax="723" yMax="666">
      <contour>
        <pt x="523" y="220" on="1"/>
        <pt x="561" y="246" on="0"/>
        <pt x="603" y="324" on="0"/>
        <pt x="603" y="366" on="1"/>
        <pt x="603" y="397" on="0"/>
        <pt x="557" y="439" on="0"/>
        <pt x="523" y="439" on="1"/>
        <pt x="493" y="439" on="0"/>
        <pt x="450" y="393" on="0"/>
        <pt x="450" y="360" on="1"/>
        <pt x="450" y="318" on="0"/>
        <pt x="489" y="244" on="0"/>
      </contour>
      <contour>
        <pt x="310" y="33" on="1"/>
        <pt x="217" y="33" on="0"/>
        <pt x="84" y="142" on="0"/>
        <pt x="84" y="220" on="1"/>
        <pt x="84" y="268" on="0"/>
        <pt x="123" y="349" on="0"/>
        <pt x="157" y="373" on="1"/>
        <pt x="108" y="395" on="0"/>
        <pt x="51" y="467" on="0"/>
        <pt x="51" y="506" on="1"/>
        <pt x="51" y="539" on="0"/>
        <pt x="72" y="593" on="0"/>
        <pt x="91" y="606" on="1"/>
        <pt x="-13" y="606" on="1"/>
        <pt x="-13" y="666" on="1"/>
        <pt x="723" y="666" on="1"/>
        <pt x="723" y="606" on="1"/>
        <pt x="170" y="606" on="1"/>
        <pt x="145" y="585" on="0"/>
        <pt x="117" y="533" on="0"/>
        <pt x="117" y="506" on="1"/>
        <pt x="117" y="467" on="0"/>
        <pt x="188" y="413" on="0"/>
        <pt x="237" y="413" on="1"/>
        <pt x="310" y="413" on="1"/>
        <pt x="310" y="346" on="1"/>
        <pt x="257" y="346" on="1"/>
        <pt x="213" y="346" on="0"/>
        <pt x="150" y="272" on="0"/>
        <pt x="150" y="220" on="1"/>
        <pt x="150" y="170" on="0"/>
        <pt x="244" y="100" on="0"/>
        <pt x="310" y="100" on="1"/>
        <pt x="353" y="100" on="0"/>
        <pt x="438" y="134" on="0"/>
        <pt x="477" y="166" on="1"/>
        <pt x="431" y="212" on="0"/>
        <pt x="384" y="312" on="0"/>
        <pt x="384" y="360" on="1"/>
        <pt x="384" y="421" on="0"/>
        <pt x="466" y="506" on="0"/>
        <pt x="523" y="506" on="1"/>
        <pt x="585" y="506" on="0"/>
        <pt x="670" y="423" on="0"/>
        <pt x="670" y="366" on="1"/>
        <pt x="670" y="249" on="0"/>
        <pt x="437" y="33" on="0"/>
      </contour>
    </TTGlyph>
    <TTGlyph name="chadeva_viramadeva_vadeva" xMin="-13" yMin="-133" xMax="682" yMax="666">
      <contour>
        <pt x="505" y="353" on="1"/>
        <pt x="535" y="369" on="0"/>
        <pt x="571" y="426" on="0"/>
        <pt x="571" y="459" on="1"/>
        <pt x="571" y="478" on="0"/>
        <pt x="533" y="506" on="0"/>
        <pt x="505" y="506" on="1"/>
        <pt x="474" y="506" on="0"/>
        <pt x="431" y="475" on="0"/>
        <pt x="431" y="453" on="1"/>
        <pt x="431" y="423" on="0"/>
        <pt x="471" y="370" on="0"/>
      </contour>
      <contour>
        <pt x="292" y="286" on="1"/>
        <pt x="340" y="286" on="0"/>
        <pt x="418" y="304" on="0"/>
        <pt x="445" y="320" on="1"/>
        <pt x="407" y="348" on="0"/>
        <pt x="365" y="417" on="0"/>
        <pt x="365" y="453" on="1"/>
        <pt x="365" y="493" on="0"/>
        <pt x="421" y="557" on="0"/>
        <pt x="465" y="566" on="1"/>
        <pt x="465" y="606" on="1"/>
        <pt x="158" y="606" on="1"/>
        <pt x="134" y="597" on="0"/>
        <pt x="105" y="567" on="0"/>
        <pt x="105" y="553" on="1"/>
        <pt x="105" y="530" on="0"/>
        <pt x="176" y="499" on="0"/>
        <pt x="225" y="499" on="1"/>
        <pt x="285" y="499" on="1"/>
        <pt x="285" y="439" on="1"/>
        <pt x="238" y="439" on="1"/>
        <pt x="202" y="439" on="0"/>
        <pt x="152" y="397" on="0"/>
        <pt x="152" y="366" on="1"/>
        <pt x="152" y="333" on="0"/>
        <pt x="234" y="286" on="0"/>
      </contour>
      <contour>
        <pt x="-13" y="606" on="1"/>
        <pt x="-13" y="666" on="1"/>
        <pt x="682" y="666" on="1"/>
        <pt x="682" y="606" on="1"/>
        <pt x="531" y="606" on="1"/>
        <pt x="531" y="566" on="1"/>
        <pt x="577" y="561" on="0"/>
        <pt x="638" y="499" on="0"/>
        <pt x="638" y="459" on="1"/>
        <pt x="638" y="411" on="0"/>
        <pt x="538" y="286" on="0"/>
        <pt x="485" y="266" on="1"/>
        <pt x="485" y="-133" on="1"/>
        <pt x="418" y="-133" on="1"/>
        <pt x="418" y="-27" on="1"/>
        <pt x="393" y="-52" on="0"/>
        <pt x="317" y="-80" on="0"/>
        <pt x="272" y="-80" on="1"/>
        <pt x="200" y="-80" on="0"/>
        <pt x="99" y="-5" on="0"/>
        <pt x="99" y="47" on="1"/>
        <pt x="99" y="104" on="0"/>
        <pt x="200" y="186" on="0"/>
        <pt x="272" y="186" on="1"/>
        <pt x="296" y="186" on="0"/>
        <pt x="338" y="176" on="0"/>
        <pt x="358" y="166" on="1"/>
        <pt x="358" y="93" on="1"/>
        <pt x="337" y="107" on="0"/>
        <pt x="293" y="120" on="0"/>
        <pt x="272" y="120" on="1"/>
        <pt x="230" y="120" on="0"/>
        <pt x="172" y="81" on="0"/>
        <pt x="172" y="53" on="1"/>
        <pt x="172" y="23" on="0"/>
        <pt x="230" y="-20" on="0"/>
        <pt x="272" y="-20" on="1"/>
        <pt x="313" y="-20" on="0"/>
        <pt x="390" y="19" on="0"/>
        <pt x="418" y="53" on="1"/>
        <pt x="418" y="240" on="1"/>
        <pt x="377" y="233" on="0"/>
        <pt x="313" y="225" on="0"/>
        <pt x="292" y="225" on="1"/>
        <pt x="204" y="225" on="0"/>
        <pt x="79" y="308" on="0"/>
        <pt x="79" y="366" on="1"/>
        <pt x="79" y="397" on="0"/>
        <pt x="108" y="447" on="0"/>
        <pt x="132" y="459" on="1"/>
        <pt x="91" y="473" on="0"/>
        <pt x="39" y="525" on="0"/>
        <pt x="39" y="553" on="1"/>
        <pt x="39" y="562" on="0"/>
        <pt x="52" y="590" on="0"/>
        <pt x="65" y="606" on="1"/>
      </contour>
    </TTGlyph>
    <TTGlyph name="colon" xMin="100" yMin="0" xMax="180" yMax="486">
      <contour>
        <pt x="100" y="386" on="1"/>
        <pt x="100" y="486" on="1"/>
        <pt x="180" y="486" on="1"/>
        <pt x="180" y="386" on="1"/>
      </contour>
      <contour>
        <pt x="100" y="0" on="1"/>
        <pt x="100" y="100" on="1"/>
        <pt x="180" y="100" on="1"/>
        <pt x="180" y="0" on="1"/>
      </contour>
    </TTGlyph>
    <TTGlyph name="comma" xMin="100" yMin="-133" xMax="260" yMax="100">
      <contour>
        <pt x="100" y="-133" on="1"/>
        <pt x="153" y="100" on="1"/>
        <pt x="260" y="100" on="1"/>
        <pt x="160" y="-133" on="1"/>
      </contour>
    </TTGlyph>
    <TTGlyph name="da_ddha_ra_yadeva" xMin="-13" yMin="-168" xMax="1308" yMax="666">
      <contour>
        <pt x="450" y="-11" on="1"/>
        <pt x="499" y="-2" on="0"/>
        <pt x="574" y="55" on="0"/>
        <pt x="594" y="96" on="1"/>
        <pt x="583" y="129" on="1"/>
        <pt x="566" y="178" on="1"/>
        <pt x="548" y="169" on="0"/>
        <pt x="514" y="156" on="0"/>
        <pt x="496" y="153" on="1"/>
        <pt x="477" y="150" on="0"/>
        <pt x="428" y="152" on="0"/>
        <pt x="401" y="157" on="1"/>
        <pt x="370" y="139" on="0"/>
        <pt x="338" y="89" on="0"/>
        <pt x="342" y="65" on="1"/>
        <pt x="349" y="27" on="0"/>
        <pt x="412" y="-17" on="0"/>
      </contour>
      <contour>
        <pt x="-13" y="606" on="1"/>
        <pt x="-13" y="666" on="1"/>
        <pt x="570" y="666" on="1"/>
        <pt x="746" y="666" on="1"/>
        <pt x="1308" y="666" on="1"/>
        <pt x="1308" y="606" on="1"/>
        <pt x="1195" y="606" on="1"/>
        <pt x="1195" y="0" on="1"/>
        <pt x="1128" y="0" on="1"/>
        <pt x="1128" y="166" on="1"/>
        <pt x="1102" y="134" on="0"/>
        <pt x="1022" y="100" on="0"/>
        <pt x="975" y="100" on="1"/>
        <pt x="891" y="100" on="0"/>
        <pt x="760" y="224" on="0"/>
        <pt x="742" y="320" on="1"/>
        <pt x="809" y="320" on="1"/>
        <pt x="869" y="320" on="0"/>
        <pt x="929" y="357" on="0"/>
        <pt x="929" y="393" on="1"/>
        <pt x="929" y="421" on="0"/>
        <pt x="870" y="459" on="0"/>
        <pt x="829" y="459" on="1"/>
        <pt x="782" y="459" on="0"/>
        <pt x="712" y="446" on="1"/>
        <pt x="644" y="433" on="0"/>
        <pt x="596" y="433" on="1"/>
        <pt x="346" y="431" on="1"/>
        <pt x="319" y="431" on="0"/>
        <pt x="298" y="403" on="1"/>
        <pt x="280" y="380" on="0"/>
        <pt x="285" y="352" on="1"/>
        <pt x="296" y="292" on="0"/>
        <pt x="435" y="203" on="0"/>
        <pt x="499" y="214" on="1"/>
        <pt x="513" y="217" on="0"/>
        <pt x="538" y="228" on="0"/>
        <pt x="549" y="236" on="1"/>
        <pt x="548" y="277" on="0"/>
        <pt x="587" y="339" on="0"/>
        <pt x="618" y="344" on="1"/>
        <pt x="640" y="348" on="0"/>
        <pt x="676" y="319" on="0"/>
        <pt x="680" y="294" on="1"/>
        <pt x="684" y="271" on="0"/>
        <pt x="656" y="223" on="0"/>
        <pt x="629" y="204" on="1"/>
        <pt x="637" y="95" on="0"/>
        <pt x="755" y="-45" on="1"/>
        <pt x="683" y="-58" on="1"/>
        <pt x="668" y="-39" on="1"/>
        <pt x="526" y="-168" on="1"/>
        <pt x="491" y="-120" on="1"/>
        <pt x="643" y="4" on="1"/>
        <pt x="634" y="19" on="0"/>
        <pt x="624" y="40" on="1"/>
        <pt x="596" y="0" on="0"/>
        <pt x="509" y="-54" on="0"/>
        <pt x="459" y="-63" on="1"/>
        <pt x="403" y="-73" on="0"/>
        <pt x="306" y="-17" on="0"/>
        <pt x="287" y="35" on="1"/>
        <pt x="198" y="19" on="0"/>
        <pt x="54" y="92" on="0"/>
        <pt x="42" y="161" on="1"/>
        <pt x="34" y="205" on="0"/>
        <pt x="85" y="276" on="0"/>
        <pt x="128" y="284" on="1"/>
        <pt x="150" y="288" on="0"/>
        <pt x="199" y="272" on="0"/>
        <pt x="222" y="254" on="1"/>
        <pt x="189" y="207" on="1"/>
        <pt x="176" y="214" on="0"/>
        <pt x="150" y="221" on="0"/>
        <pt x="139" y="219" on="1"/>
        <pt x="124" y="216" on="0"/>
        <pt x="104" y="188" on="0"/>
        <pt x="107" y="173" on="1"/>
        <pt x="115" y="126" on="0"/>
        <pt x="218" y="78" on="0"/>
        <pt x="284" y="89" on="1"/>
        <pt x="290" y="118" on="0"/>
        <pt x="323" y="170" on="0"/>
        <pt x="348" y="188" on="1"/>
        <pt x="309" y="205" on="0"/>
        <pt x="226" y="305" on="0"/>
        <pt x="219" y="341" on="1"/>
        <pt x="210" y="395" on="0"/>
        <pt x="244" y="441" on="1"/>
        <pt x="285" y="495" on="0"/>
        <pt x="334" y="496" on="1"/>
        <pt x="577" y="499" on="1"/>
        <pt x="577" y="606" on="1"/>
        <pt x="570" y="606" on="1"/>
      </contour>
      <contour>
        <pt x="643" y="606" on="1"/>
        <pt x="643" y="502" on="1"/>
        <pt x="672" y="506" on="0"/>
        <pt x="712" y="512" on="1"/>
        <pt x="790" y="526" on="0"/>
        <pt x="829" y="526" on="1"/>
        <pt x="898" y="526" on="0"/>
        <pt x="995" y="447" on="0"/>
        <pt x="995" y="393" on="1"/>
        <pt x="995" y="336" on="0"/>
        <pt x="905" y="266" on="0"/>
        <pt x="829" y="266" on="1"/>
        <pt x="846" y="218" on="0"/>
        <pt x="927" y="160" on="0"/>
        <pt x="975" y="160" on="1"/>
        <pt x="1027" y="160" on="0"/>
        <pt x="1112" y="214" on="0"/>
        <pt x="1128" y="260" on="1"/>
        <pt x="1128" y="606" on="1"/>
        <pt x="746" y="606" on="1"/>
      </contour>
    </TTGlyph>
    <TTGlyph name="dadeva" xMin="-21" yMin="-27" xMax="555" yMax="666">
      <contour>
        <pt x="-21" y="606" on="1"/>
        <pt x="-21" y="666" on="1"/>
        <pt x="555" y="666" on="1"/>
        <pt x="555" y="606" on="1"/>
        <pt x="449" y="606" on="1"/>
        <pt x="449" y="433" on="1"/>
        <pt x="189" y="433" on="1"/>
        <pt x="150" y="433" on="0"/>
        <pt x="96" y="378" on="0"/>
        <pt x="96" y="340" on="1"/>
        <pt x="96" y="268" on="0"/>
        <pt x="248" y="166" on="0"/>
        <pt x="356" y="166" on="1"/>
        <pt x="356" y="213" on="0"/>
        <pt x="398" y="280" on="0"/>
        <pt x="429" y="280" on="1"/>
        <pt x="451" y="280" on="0"/>
        <pt x="482" y="249" on="0"/>
        <pt x="482" y="226" on="1"/>
        <pt x="482" y="200" on="0"/>
        <pt x="450" y="146" on="0"/>
        <pt x="422" y="127" on="1"/>
        <pt x="495" y="0" on="1"/>
        <pt x="435" y="-27" on="1"/>
        <pt x="362" y="107" on="1"/>
        <pt x="224" y="107" on="0"/>
        <pt x="29" y="244" on="0"/>
        <pt x="29" y="340" on="1"/>
        <pt x="29" y="406" on="0"/>
        <pt x="122" y="499" on="0"/>
        <pt x="189" y="499" on="1"/>
        <pt x="382" y="499" on="1"/>
        <pt x="382" y="606" on="1"/>
      </contour>
    </TTGlyph>
    <TTGlyph name="dadeva_rvocalicsigndeva" xMin="-13" yMin="-266" xMax="566" yMax="666">
      <contour>
        <pt x="-13" y="606" on="1"/>
        <pt x="-13" y="666" on="1"/>
        <pt x="566" y="666" on="1"/>
        <pt x="566" y="606" on="1"/>
        <pt x="463" y="606" on="1"/>
        <pt x="463" y="433" on="1"/>
        <pt x="204" y="433" on="1"/>
        <pt x="162" y="433" on="0"/>
        <pt x="104" y="378" on="0"/>
        <pt x="104" y="340" on="1"/>
        <pt x="104" y="268" on="0"/>
        <pt x="252" y="166" on="0"/>
        <pt x="357" y="166" on="1"/>
        <pt x="350" y="178" on="0"/>
        <pt x="344" y="201" on="0"/>
        <pt x="344" y="212" on="1"/>
        <pt x="344" y="245" on="0"/>
        <pt x="386" y="293" on="0"/>
        <pt x="417" y="293" on="1"/>
        <pt x="447" y="293" on="0"/>
        <pt x="490" y="254" on="0"/>
        <pt x="490" y="226" on="1"/>
        <pt x="490" y="200" on="0"/>
        <pt x="462" y="150" on="0"/>
        <pt x="437" y="133" on="1"/>
        <pt x="517" y="-33" on="1"/>
        <pt x="357" y="-33" on="1"/>
        <pt x="324" y="-33" on="0"/>
        <pt x="277" y="-84" on="0"/>
        <pt x="277" y="-156" on="0"/>
        <pt x="332" y="-206" on="0"/>
        <pt x="370" y="-206" on="1"/>
        <pt x="403" y="-206" on="0"/>
        <pt x="469" y="-186" on="0"/>
        <pt x="497" y="-166" on="1"/>
        <pt x="517" y="-233" on="1"/>
        <pt x="494" y="-249" on="0"/>
        <pt x="418" y="-266" on="0"/>
        <pt x="370" y="-266" on="1"/>
        <pt x="301" y="-266" on="0"/>
        <pt x="204" y="-181" on="0"/>
        <pt x="204" y="-59" on="0"/>
        <pt x="289" y="27" on="0"/>
        <pt x="350" y="27" on="1"/>
        <pt x="410" y="27" on="1"/>
        <pt x="370" y="107" on="1"/>
        <pt x="232" y="107" on="0"/>
        <pt x="37" y="244" on="0"/>
        <pt x="37" y="340" on="1"/>
        <pt x="37" y="406" on="0"/>
        <pt x="134" y="499" on="0"/>
        <pt x="204" y="499" on="1"/>
        <pt x="397" y="499" on="1"/>
        <pt x="397" y="606" on="1"/>
      </contour>
    </TTGlyph>
    <TTGlyph name="dadeva_viramadeva" xMin="-13" yMin="-186" xMax="563" yMax="666">
      <contour>
        <pt x="-13" y="606" on="1"/>
        <pt x="-13" y="666" on="1"/>
        <pt x="563" y="666" on="1"/>
        <pt x="563" y="606" on="1"/>
        <pt x="451" y="606" on="1"/>
        <pt x="451" y="433" on="1"/>
        <pt x="198" y="433" on="1"/>
        <pt x="160" y="433" on="0"/>
        <pt x="105" y="378" on="0"/>
        <pt x="105" y="340" on="1"/>
        <pt x="105" y="264" on="0"/>
        <pt x="244" y="173" on="0"/>
        <pt x="358" y="173" on="1"/>
        <pt x="357" y="181" on="0"/>
        <pt x="354" y="200" on="0"/>
        <pt x="354" y="210" on="1"/>
        <pt x="354" y="245" on="0"/>
        <pt x="395" y="293" on="0"/>
        <pt x="425" y="293" on="1"/>
        <pt x="453" y="293" on="0"/>
        <pt x="491" y="258" on="0"/>
        <pt x="491" y="233" on="1"/>
        <pt x="491" y="198" on="0"/>
        <pt x="462" y="145" on="0"/>
        <pt x="438" y="133" on="1"/>
        <pt x="449" y="103" on="0"/>
        <pt x="479" y="39" on="0"/>
        <pt x="498" y="7" on="1"/>
        <pt x="438" y="-20" on="1"/>
        <pt x="372" y="113" on="1"/>
        <pt x="221" y="113" on="0"/>
        <pt x="39" y="237" on="0"/>
        <pt x="39" y="340" on="1"/>
        <pt x="39" y="406" on="0"/>
        <pt x="132" y="499" on="0"/>
        <pt x="198" y="499" on="1"/>
        <pt x="385" y="499" on="1"/>
        <pt x="385" y="606" on="1"/>
      </contour>
      <contour>
        <pt x="172" y="-20" on="1"/>
        <pt x="258" y="20" on="1"/>
        <pt x="478" y="-146" on="1"/>
        <pt x="438" y="-186" on="1"/>
        <pt x="252" y="-47" on="1"/>
        <pt x="198" y="-67" on="1"/>
      </contour>
    </TTGlyph>
    <TTGlyph name="dadeva_viramadeva_badeva" xMin="-13" yMin="-33" xMax="563" yMax="666">
      <contour>
        <pt x="292" y="73" on="1"/>
        <pt x="309" y="85" on="0"/>
        <pt x="340" y="133" on="0"/>
        <pt x="352" y="166" on="1"/>
        <pt x="309" y="162" on="0"/>
        <pt x="248" y="149" on="0"/>
        <pt x="232" y="140" on="1"/>
      </contour>
      <contour>
        <pt x="205" y="27" on="1"/>
        <pt x="220" y="27" on="0"/>
        <pt x="246" y="33" on="0"/>
        <pt x="258" y="40" on="1"/>
        <pt x="192" y="113" on="1"/>
        <pt x="176" y="104" on="0"/>
        <pt x="158" y="76" on="0"/>
        <pt x="158" y="60" on="1"/>
        <pt x="158" y="47" on="0"/>
        <pt x="186" y="27" on="0"/>
      </contour>
      <contour>
        <pt x="-13" y="606" on="1"/>
        <pt x="-13" y="666" on="1"/>
        <pt x="563" y="666" on="1"/>
        <pt x="563" y="606" on="1"/>
        <pt x="458" y="606" on="1"/>
        <pt x="458" y="433" on="1"/>
        <pt x="192" y="433" on="1"/>
        <pt x="158" y="433" on="0"/>
        <pt x="112" y="398" on="0"/>
        <pt x="112" y="373" on="1"/>
        <pt x="112" y="312" on="0"/>
        <pt x="217" y="226" on="0"/>
        <pt x="292" y="226" on="1"/>
        <pt x="309" y="226" on="0"/>
        <pt x="333" y="230" on="0"/>
        <pt x="338" y="233" on="1"/>
        <pt x="332" y="236" on="0"/>
        <pt x="325" y="254" on="0"/>
        <pt x="325" y="266" on="1"/>
        <pt x="325" y="292" on="0"/>
        <pt x="368" y="326" on="0"/>
        <pt x="398" y="326" on="1"/>
        <pt x="437" y="326" on="0"/>
        <pt x="491" y="276" on="0"/>
        <pt x="491" y="240" on="1"/>
        <pt x="491" y="218" on="0"/>
        <pt x="451" y="178" on="0"/>
        <pt x="418" y="166" on="1"/>
        <pt x="425" y="127" on="0"/>
        <pt x="469" y="43" on="0"/>
        <pt x="505" y="0" on="1"/>
        <pt x="445" y="-27" on="1"/>
        <pt x="435" y="-16" on="0"/>
        <pt x="414" y="22" on="1"/>
        <pt x="378" y="87" on="1"/>
        <pt x="346" y="31" on="0"/>
        <pt x="253" y="-33" on="0"/>
        <pt x="205" y="-33" on="1"/>
        <pt x="156" y="-33" on="0"/>
        <pt x="85" y="21" on="0"/>
        <pt x="85" y="60" on="1"/>
        <pt x="85" y="97" on="0"/>
        <pt x="150" y="166" on="0"/>
        <pt x="205" y="186" on="1"/>
        <pt x="134" y="205" on="0"/>
        <pt x="45" y="309" on="0"/>
        <pt x="45" y="373" on="1"/>
        <pt x="45" y="425" on="0"/>
        <pt x="130" y="499" on="0"/>
        <pt x="192" y="499" on="1"/>
        <pt x="391" y="499" on="1"/>
        <pt x="391" y="606" on="1"/>
      </contour>
    </TTGlyph>
    <TTGlyph name="dadeva_viramadeva_bhadeva" xMin="-13" yMin="-80" xMax="631" yMax="666">
      <contour>
        <pt x="-13" y="606" on="1"/>
        <pt x="-13" y="666" on="1"/>
        <pt x="631" y="666" on="1"/>
        <pt x="631" y="606" on="1"/>
        <pt x="519" y="606" on="1"/>
        <pt x="519" y="433" on="1"/>
        <pt x="266" y="433" on="1"/>
        <pt x="228" y="433" on="0"/>
        <pt x="173" y="394" on="0"/>
        <pt x="173" y="366" on="1"/>
        <pt x="173" y="309" on="0"/>
        <pt x="270" y="226" on="0"/>
        <pt x="340" y="226" on="1"/>
        <pt x="364" y="226" on="0"/>
        <pt x="397" y="230" on="0"/>
        <pt x="406" y="233" on="1"/>
        <pt x="397" y="237" on="0"/>
        <pt x="386" y="258" on="0"/>
        <pt x="386" y="273" on="1"/>
        <pt x="386" y="292" on="0"/>
        <pt x="429" y="320" on="0"/>
        <pt x="459" y="320" on="1"/>
        <pt x="495" y="320" on="0"/>
        <pt x="546" y="277" on="0"/>
        <pt x="546" y="246" on="1"/>
        <pt x="546" y="217" on="0"/>
        <pt x="509" y="172" on="0"/>
        <pt x="479" y="166" on="1"/>
        <pt x="579" y="7" on="1"/>
        <pt x="533" y="-33" on="1"/>
        <pt x="433" y="107" on="1"/>
        <pt x="300" y="-7" on="1"/>
        <pt x="309" y="-19" on="0"/>
        <pt x="320" y="-43" on="0"/>
        <pt x="320" y="-53" on="1"/>
        <pt x="320" y="-64" on="0"/>
        <pt x="273" y="-80" on="0"/>
        <pt x="240" y="-80" on="1"/>
        <pt x="217" y="-80" on="0"/>
        <pt x="186" y="-52" on="0"/>
        <pt x="186" y="-33" on="1"/>
        <pt x="226" y="7" on="1"/>
        <pt x="160" y="87" on="1"/>
        <pt x="153" y="96" on="0"/>
        <pt x="132" y="107" on="0"/>
        <pt x="120" y="107" on="1"/>
        <pt x="107" y="107" on="0"/>
        <pt x="87" y="91" on="0"/>
        <pt x="87" y="80" on="1"/>
        <pt x="87" y="76" on="0"/>
        <pt x="107" y="55" on="0"/>
        <pt x="113" y="47" on="1"/>
        <pt x="73" y="0" on="1"/>
        <pt x="51" y="23" on="0"/>
        <pt x="27" y="68" on="0"/>
        <pt x="27" y="87" on="1"/>
        <pt x="27" y="120" on="0"/>
        <pt x="81" y="166" on="0"/>
        <pt x="120" y="166" on="1"/>
        <pt x="141" y="166" on="0"/>
        <pt x="180" y="149" on="0"/>
        <pt x="193" y="133" on="1"/>
        <pt x="266" y="33" on="1"/>
        <pt x="413" y="166" on="1"/>
        <pt x="376" y="162" on="1"/>
        <pt x="357" y="160" on="0"/>
        <pt x="340" y="160" on="1"/>
        <pt x="244" y="160" on="0"/>
        <pt x="107" y="281" on="0"/>
        <pt x="107" y="366" on="1"/>
        <pt x="107" y="421" on="0"/>
        <pt x="200" y="499" on="0"/>
        <pt x="266" y="499" on="1"/>
        <pt x="453" y="499" on="1"/>
        <pt x="453" y="606" on="1"/>
      </contour>
    </TTGlyph>
    <TTGlyph name="dadeva_viramadeva_dadeva" xMin="-13" yMin="-47" xMax="571" yMax="666">
      <contour>
        <pt x="-13" y="606" on="1"/>
        <pt x="-13" y="666" on="1"/>
        <pt x="571" y="666" on="1"/>
        <pt x="571" y="606" on="1"/>
        <pt x="458" y="606" on="1"/>
        <pt x="458" y="433" on="1"/>
        <pt x="192" y="433" on="1"/>
        <pt x="156" y="433" on="0"/>
        <pt x="105" y="405" on="0"/>
        <pt x="105" y="386" on="1"/>
        <pt x="105" y="350" on="0"/>
        <pt x="184" y="300" on="0"/>
        <pt x="238" y="300" on="1"/>
        <pt x="260" y="300" on="0"/>
        <pt x="300" y="306" on="0"/>
        <pt x="318" y="313" on="1"/>
        <pt x="338" y="246" on="1"/>
        <pt x="260" y="233" on="0"/>
        <pt x="158" y="169" on="0"/>
        <pt x="158" y="133" on="1"/>
        <pt x="158" y="103" on="0"/>
        <pt x="221" y="60" on="0"/>
        <pt x="265" y="60" on="1"/>
        <pt x="296" y="60" on="0"/>
        <pt x="358" y="84" on="0"/>
        <pt x="385" y="107" on="1"/>
        <pt x="378" y="115" on="0"/>
        <pt x="372" y="134" on="0"/>
        <pt x="372" y="146" on="1"/>
        <pt x="372" y="180" on="0"/>
        <pt x="422" y="226" on="0"/>
        <pt x="458" y="226" on="1"/>
        <pt x="483" y="226" on="0"/>
        <pt x="518" y="192" on="0"/>
        <pt x="518" y="140" on="0"/>
        <pt x="486" y="87" on="0"/>
        <pt x="458" y="67" on="1"/>
        <pt x="505" y="-27" on="1"/>
        <pt x="451" y="-47" on="1"/>
        <pt x="411" y="33" on="1"/>
        <pt x="377" y="13" on="0"/>
        <pt x="304" y="-7" on="0"/>
        <pt x="265" y="-7" on="1"/>
        <pt x="193" y="-7" on="0"/>
        <pt x="92" y="76" on="0"/>
        <pt x="92" y="133" on="1"/>
        <pt x="92" y="170" on="0"/>
        <pt x="136" y="233" on="0"/>
        <pt x="172" y="246" on="1"/>
        <pt x="113" y="262" on="0"/>
        <pt x="39" y="340" on="0"/>
        <pt x="39" y="386" on="1"/>
        <pt x="39" y="433" on="0"/>
        <pt x="128" y="499" on="0"/>
        <pt x="192" y="499" on="1"/>
        <pt x="391" y="499" on="1"/>
        <pt x="391" y="606" on="1"/>
      </contour>
    </TTGlyph>
    <TTGlyph name="dadeva_viramadeva_dhadeva" xMin="-13" yMin="-107" xMax="746" yMax="666">
      <contour>
        <pt x="403" y="-20" on="1"/>
        <pt x="453" y="-20" on="0"/>
        <pt x="537" y="23" on="0"/>
        <pt x="563" y="60" on="1"/>
        <pt x="558" y="94" on="1"/>
        <pt x="550" y="146" on="1"/>
        <pt x="531" y="140" on="0"/>
        <pt x="495" y="133" on="0"/>
        <pt x="477" y="133" on="1"/>
        <pt x="458" y="133" on="0"/>
        <pt x="410" y="144" on="0"/>
        <pt x="384" y="153" on="1"/>
        <pt x="350" y="141" on="0"/>
        <pt x="310" y="97" on="0"/>
        <pt x="310" y="73" on="1"/>
        <pt x="310" y="35" on="0"/>
        <pt x="365" y="-20" on="0"/>
      </contour>
      <contour>
        <pt x="-13" y="606" on="1"/>
        <pt x="-13" y="666" on="1"/>
        <pt x="746" y="666" on="1"/>
        <pt x="746" y="606" on="1"/>
        <pt x="643" y="606" on="1"/>
        <pt x="643" y="433" on="1"/>
        <pt x="377" y="433" on="1"/>
        <pt x="346" y="433" on="0"/>
        <pt x="304" y="394" on="0"/>
        <pt x="304" y="366" on="1"/>
        <pt x="304" y="305" on="0"/>
        <pt x="425" y="193" on="0"/>
        <pt x="490" y="193" on="1"/>
        <pt x="505" y="193" on="0"/>
        <pt x="531" y="200" on="0"/>
        <pt x="543" y="206" on="1"/>
        <pt x="550" y="246" on="0"/>
        <pt x="599" y="300" on="0"/>
        <pt x="630" y="300" on="1"/>
        <pt x="652" y="300" on="0"/>
        <pt x="683" y="265" on="0"/>
        <pt x="683" y="240" on="1"/>
        <pt x="683" y="217" on="0"/>
        <pt x="647" y="174" on="0"/>
        <pt x="617" y="160" on="1"/>
        <pt x="617" y="120" on="0"/>
        <pt x="660" y="-15" on="0"/>
        <pt x="703" y="-107" on="1"/>
        <pt x="630" y="-107" on="1"/>
        <pt x="613" y="-77" on="0"/>
        <pt x="590" y="-24" on="0"/>
        <pt x="583" y="0" on="1"/>
        <pt x="549" y="-35" on="0"/>
        <pt x="454" y="-73" on="0"/>
        <pt x="403" y="-73" on="1"/>
        <pt x="346" y="-73" on="0"/>
        <pt x="260" y="-1" on="0"/>
        <pt x="250" y="53" on="1"/>
        <pt x="160" y="53" on="0"/>
        <pt x="31" y="150" on="0"/>
        <pt x="31" y="220" on="1"/>
        <pt x="31" y="264" on="0"/>
        <pt x="93" y="326" on="0"/>
        <pt x="137" y="326" on="1"/>
        <pt x="160" y="326" on="0"/>
        <pt x="205" y="302" on="0"/>
        <pt x="224" y="280" on="1"/>
        <pt x="184" y="240" on="1"/>
        <pt x="172" y="249" on="0"/>
        <pt x="148" y="260" on="0"/>
        <pt x="137" y="260" on="1"/>
        <pt x="121" y="260" on="0"/>
        <pt x="97" y="236" on="0"/>
        <pt x="97" y="220" on="1"/>
        <pt x="97" y="173" on="0"/>
        <pt x="190" y="107" on="0"/>
        <pt x="257" y="107" on="1"/>
        <pt x="268" y="134" on="0"/>
        <pt x="309" y="180" on="0"/>
        <pt x="337" y="193" on="1"/>
        <pt x="302" y="217" on="0"/>
        <pt x="237" y="330" on="0"/>
        <pt x="237" y="366" on="1"/>
        <pt x="237" y="421" on="0"/>
        <pt x="320" y="499" on="0"/>
        <pt x="377" y="499" on="1"/>
        <pt x="577" y="499" on="1"/>
        <pt x="577" y="606" on="1"/>
      </contour>
    </TTGlyph>
    <TTGlyph name="dadeva_viramadeva_gadeva" xMin="-13" yMin="-27" xMax="553" yMax="666">
      <contour>
        <pt x="-13" y="606" on="1"/>
        <pt x="-13" y="666" on="1"/>
        <pt x="553" y="666" on="1"/>
        <pt x="553" y="606" on="1"/>
        <pt x="449" y="606" on="1"/>
        <pt x="449" y="433" on="1"/>
        <pt x="209" y="433" on="1"/>
        <pt x="165" y="433" on="0"/>
        <pt x="103" y="378" on="0"/>
        <pt x="103" y="340" on="1"/>
        <pt x="103" y="280" on="0"/>
        <pt x="222" y="206" on="0"/>
        <pt x="322" y="206" on="1"/>
        <pt x="313" y="216" on="0"/>
        <pt x="302" y="244" on="0"/>
        <pt x="302" y="260" on="1"/>
        <pt x="302" y="285" on="0"/>
        <pt x="353" y="320" on="0"/>
        <pt x="389" y="320" on="1"/>
        <pt x="422" y="320" on="0"/>
        <pt x="469" y="269" on="0"/>
        <pt x="469" y="233" on="1"/>
        <pt x="469" y="210" on="0"/>
        <pt x="439" y="172" on="0"/>
        <pt x="415" y="160" on="1"/>
        <pt x="427" y="113" on="0"/>
        <pt x="469" y="32" on="0"/>
        <pt x="495" y="0" on="1"/>
        <pt x="435" y="-27" on="1"/>
        <pt x="413" y="-7" on="0"/>
        <pt x="365" y="77" on="0"/>
        <pt x="342" y="140" on="1"/>
        <pt x="242" y="153" on="1"/>
        <pt x="296" y="33" on="1"/>
        <pt x="298" y="27" on="0"/>
        <pt x="302" y="9" on="0"/>
        <pt x="302" y="0" on="1"/>
        <pt x="302" y="-11" on="0"/>
        <pt x="286" y="-27" on="0"/>
        <pt x="276" y="-27" on="1"/>
        <pt x="268" y="-27" on="0"/>
        <pt x="234" y="-20" on="0"/>
        <pt x="209" y="-13" on="1"/>
        <pt x="169" y="-3" on="0"/>
        <pt x="123" y="21" on="0"/>
        <pt x="123" y="33" on="1"/>
        <pt x="123" y="40" on="0"/>
        <pt x="158" y="52" on="0"/>
        <pt x="162" y="53" on="1"/>
        <pt x="181" y="60" on="0"/>
        <pt x="202" y="81" on="0"/>
        <pt x="202" y="93" on="1"/>
        <pt x="202" y="95" on="0"/>
        <pt x="197" y="103" on="0"/>
        <pt x="196" y="107" on="1"/>
        <pt x="169" y="173" on="1"/>
        <pt x="109" y="194" on="0"/>
        <pt x="36" y="286" on="0"/>
        <pt x="36" y="340" on="1"/>
        <pt x="36" y="406" on="0"/>
        <pt x="137" y="499" on="0"/>
        <pt x="209" y="499" on="1"/>
        <pt x="382" y="499" on="1"/>
        <pt x="382" y="606" on="1"/>
      </contour>
    </TTGlyph>
    <TTGlyph name="dadeva_viramadeva_ghadeva" xMin="-13" yMin="-107" xMax="679" yMax="666">
      <contour>
        <pt x="337" y="-20" on="1"/>
        <pt x="386" y="-20" on="0"/>
        <pt x="470" y="23" on="0"/>
        <pt x="497" y="60" on="1"/>
        <pt x="495" y="67" on="0"/>
        <pt x="491" y="94" on="1"/>
        <pt x="483" y="146" on="1"/>
        <pt x="465" y="140" on="0"/>
        <pt x="429" y="133" on="0"/>
        <pt x="391" y="133" on="0"/>
        <pt x="344" y="144" on="0"/>
        <pt x="317" y="153" on="1"/>
        <pt x="284" y="141" on="0"/>
        <pt x="244" y="97" on="0"/>
        <pt x="244" y="73" on="1"/>
        <pt x="244" y="35" on="0"/>
        <pt x="298" y="-20" on="0"/>
      </contour>
      <contour>
        <pt x="197" y="273" on="1"/>
        <pt x="152" y="266" on="0"/>
        <pt x="91" y="217" on="0"/>
        <pt x="91" y="186" on="1"/>
        <pt x="91" y="153" on="0"/>
        <pt x="149" y="107" on="0"/>
        <pt x="190" y="107" on="1"/>
        <pt x="201" y="137" on="0"/>
        <pt x="246" y="182" on="0"/>
        <pt x="277" y="193" on="1"/>
        <pt x="252" y="208" on="0"/>
        <pt x="210" y="249" on="0"/>
      </contour>
      <contour>
        <pt x="-13" y="606" on="1"/>
        <pt x="-13" y="666" on="1"/>
        <pt x="679" y="666" on="1"/>
        <pt x="679" y="606" on="1"/>
        <pt x="577" y="606" on="1"/>
        <pt x="577" y="433" on="1"/>
        <pt x="310" y="433" on="1"/>
        <pt x="280" y="433" on="0"/>
        <pt x="237" y="394" on="0"/>
        <pt x="237" y="366" on="1"/>
        <pt x="237" y="305" on="0"/>
        <pt x="358" y="193" on="0"/>
        <pt x="423" y="193" on="1"/>
        <pt x="438" y="193" on="0"/>
        <pt x="465" y="200" on="0"/>
        <pt x="477" y="206" on="1"/>
        <pt x="483" y="246" on="0"/>
        <pt x="533" y="300" on="0"/>
        <pt x="563" y="300" on="1"/>
        <pt x="586" y="300" on="0"/>
        <pt x="617" y="265" on="0"/>
        <pt x="617" y="240" on="1"/>
        <pt x="617" y="221" on="0"/>
        <pt x="581" y="177" on="0"/>
        <pt x="550" y="160" on="1"/>
        <pt x="550" y="120" on="0"/>
        <pt x="594" y="-15" on="0"/>
        <pt x="637" y="-107" on="1"/>
        <pt x="563" y="-107" on="1"/>
        <pt x="539" y="-55" on="0"/>
        <pt x="519" y="-7" on="0"/>
        <pt x="517" y="7" on="1"/>
        <pt x="478" y="-32" on="0"/>
        <pt x="385" y="-73" on="0"/>
        <pt x="337" y="-73" on="1"/>
        <pt x="280" y="-73" on="0"/>
        <pt x="193" y="-1" on="0"/>
        <pt x="184" y="53" on="1"/>
        <pt x="120" y="53" on="0"/>
        <pt x="31" y="132" on="0"/>
        <pt x="31" y="240" on="0"/>
        <pt x="115" y="320" on="0"/>
        <pt x="177" y="326" on="1"/>
        <pt x="174" y="336" on="0"/>
        <pt x="170" y="356" on="0"/>
        <pt x="170" y="366" on="1"/>
        <pt x="170" y="421" on="0"/>
        <pt x="253" y="499" on="0"/>
        <pt x="310" y="499" on="1"/>
        <pt x="510" y="499" on="1"/>
        <pt x="510" y="606" on="1"/>
      </contour>
    </TTGlyph>
    <TTGlyph name="dadeva_viramadeva_madeva" xMin="-13" yMin="0" xMax="727" yMax="666">
      <contour>
        <pt x="354" y="206" on="1"/>
        <pt x="547" y="206" on="1"/>
        <pt x="547" y="606" on="1"/>
        <pt x="328" y="606" on="1"/>
        <pt x="328" y="459" on="1"/>
        <pt x="148" y="459" on="1"/>
        <pt x="129" y="459" on="0"/>
        <pt x="101" y="431" on="0"/>
        <pt x="101" y="413" on="1"/>
        <pt x="101" y="394" on="0"/>
        <pt x="129" y="366" on="0"/>
        <pt x="148" y="366" on="1"/>
        <pt x="354" y="366" on="1"/>
      </contour>
      <contour>
        <pt x="-13" y="606" on="1"/>
        <pt x="-13" y="666" on="1"/>
        <pt x="727" y="666" on="1"/>
        <pt x="727" y="606" on="1"/>
        <pt x="614" y="606" on="1"/>
        <pt x="614" y="0" on="1"/>
        <pt x="547" y="0" on="1"/>
        <pt x="547" y="146" on="1"/>
        <pt x="354" y="146" on="1"/>
        <pt x="354" y="93" on="1"/>
        <pt x="354" y="80" on="0"/>
        <pt x="334" y="60" on="0"/>
        <pt x="321" y="60" on="1"/>
        <pt x="302" y="60" on="0"/>
        <pt x="208" y="160" on="0"/>
        <pt x="208" y="180" on="1"/>
        <pt x="208" y="190" on="0"/>
        <pt x="228" y="206" on="0"/>
        <pt x="241" y="206" on="1"/>
        <pt x="288" y="206" on="1"/>
        <pt x="288" y="300" on="1"/>
        <pt x="148" y="300" on="1"/>
        <pt x="99" y="300" on="0"/>
        <pt x="28" y="366" on="0"/>
        <pt x="28" y="413" on="1"/>
        <pt x="28" y="457" on="0"/>
        <pt x="99" y="519" on="0"/>
        <pt x="148" y="519" on="1"/>
        <pt x="261" y="519" on="1"/>
        <pt x="261" y="606" on="1"/>
      </contour>
    </TTGlyph>
    <TTGlyph name="dadeva_viramadeva_nadeva" xMin="-13" yMin="-47" xMax="589" yMax="666">
      <contour>
        <pt x="-13" y="606" on="1"/>
        <pt x="-13" y="666" on="1"/>
        <pt x="589" y="666" on="1"/>
        <pt x="589" y="606" on="1"/>
        <pt x="478" y="606" on="1"/>
        <pt x="478" y="433" on="1"/>
        <pt x="212" y="433" on="1"/>
        <pt x="176" y="433" on="0"/>
        <pt x="125" y="386" on="0"/>
        <pt x="125" y="353" on="1"/>
        <pt x="125" y="274" on="0"/>
        <pt x="253" y="180" on="0"/>
        <pt x="358" y="180" on="1"/>
        <pt x="358" y="232" on="0"/>
        <pt x="398" y="293" on="0"/>
        <pt x="431" y="293" on="1"/>
        <pt x="462" y="293" on="0"/>
        <pt x="505" y="258" on="0"/>
        <pt x="505" y="233" on="1"/>
        <pt x="505" y="197" on="0"/>
        <pt x="475" y="142" on="0"/>
        <pt x="451" y="133" on="1"/>
        <pt x="467" y="100" on="0"/>
        <pt x="510" y="33" on="0"/>
        <pt x="538" y="0" on="1"/>
        <pt x="465" y="0" on="1"/>
        <pt x="442" y="13" on="0"/>
        <pt x="398" y="71" on="0"/>
        <pt x="378" y="113" on="1"/>
        <pt x="205" y="47" on="1"/>
        <pt x="196" y="43" on="0"/>
        <pt x="185" y="28" on="0"/>
        <pt x="185" y="20" on="1"/>
        <pt x="185" y="16" on="0"/>
        <pt x="205" y="-5" on="0"/>
        <pt x="212" y="-13" on="1"/>
        <pt x="214" y="-17" on="0"/>
        <pt x="218" y="-28" on="0"/>
        <pt x="218" y="-33" on="1"/>
        <pt x="218" y="-39" on="0"/>
        <pt x="202" y="-47" on="0"/>
        <pt x="192" y="-47" on="1"/>
        <pt x="154" y="-47" on="0"/>
        <pt x="39" y="4" on="0"/>
        <pt x="39" y="20" on="1"/>
        <pt x="39" y="55" on="0"/>
        <pt x="140" y="90" on="1"/>
        <pt x="265" y="133" on="1"/>
        <pt x="176" y="149" on="0"/>
        <pt x="59" y="273" on="0"/>
        <pt x="59" y="353" on="1"/>
        <pt x="59" y="414" on="0"/>
        <pt x="148" y="499" on="0"/>
        <pt x="212" y="499" on="1"/>
        <pt x="411" y="499" on="1"/>
        <pt x="411" y="606" on="1"/>
      </contour>
    </TTGlyph>
    <TTGlyph name="dadeva_viramadeva_radeva" xMin="-13" yMin="-53" xMax="561" yMax="666">
      <contour>
        <pt x="-13" y="606" on="1"/>
        <pt x="-13" y="666" on="1"/>
        <pt x="561" y="666" on="1"/>
        <pt x="561" y="606" on="1"/>
        <pt x="451" y="606" on="1"/>
        <pt x="451" y="433" on="1"/>
        <pt x="205" y="433" on="1"/>
        <pt x="164" y="433" on="0"/>
        <pt x="105" y="378" on="0"/>
        <pt x="105" y="340" on="1"/>
        <pt x="105" y="276" on="0"/>
        <pt x="234" y="166" on="0"/>
        <pt x="312" y="166" on="1"/>
        <pt x="325" y="166" on="0"/>
        <pt x="346" y="170" on="0"/>
        <pt x="352" y="173" on="1"/>
        <pt x="342" y="186" on="0"/>
        <pt x="332" y="214" on="0"/>
        <pt x="332" y="226" on="1"/>
        <pt x="332" y="254" on="0"/>
        <pt x="374" y="293" on="0"/>
        <pt x="405" y="293" on="1"/>
        <pt x="435" y="293" on="0"/>
        <pt x="478" y="250" on="0"/>
        <pt x="478" y="220" on="1"/>
        <pt x="478" y="197" on="0"/>
        <pt x="450" y="154" on="0"/>
        <pt x="425" y="140" on="1"/>
        <pt x="437" y="108" on="0"/>
        <pt x="481" y="37" on="0"/>
        <pt x="511" y="0" on="1"/>
        <pt x="445" y="-27" on="1"/>
        <pt x="419" y="-1" on="0"/>
        <pt x="376" y="73" on="0"/>
        <pt x="358" y="120" on="1"/>
        <pt x="138" y="-53" on="1"/>
        <pt x="92" y="-7" on="1"/>
        <pt x="258" y="113" on="1"/>
        <pt x="161" y="140" on="0"/>
        <pt x="39" y="265" on="0"/>
        <pt x="39" y="340" on="1"/>
        <pt x="39" y="406" on="0"/>
        <pt x="136" y="499" on="0"/>
        <pt x="205" y="499" on="1"/>
        <pt x="385" y="499" on="1"/>
        <pt x="385" y="606" on="1"/>
      </contour>
    </TTGlyph>
    <TTGlyph name="dadeva_viramadeva_vadeva" xMin="-13" yMin="-27" xMax="573" yMax="666">
      <contour>
        <pt x="233" y="33" on="1"/>
        <pt x="277" y="33" on="0"/>
        <pt x="352" y="104" on="0"/>
        <pt x="366" y="160" on="1"/>
        <pt x="330" y="160" on="0"/>
        <pt x="269" y="146" on="0"/>
        <pt x="246" y="133" on="1"/>
        <pt x="212" y="113" on="0"/>
        <pt x="173" y="79" on="0"/>
        <pt x="173" y="67" on="1"/>
        <pt x="173" y="53" on="0"/>
        <pt x="208" y="33" on="0"/>
      </contour>
      <contour>
        <pt x="-13" y="606" on="1"/>
        <pt x="-13" y="666" on="1"/>
        <pt x="573" y="666" on="1"/>
        <pt x="573" y="606" on="1"/>
        <pt x="466" y="606" on="1"/>
        <pt x="466" y="446" on="1"/>
        <pt x="213" y="446" on="1"/>
        <pt x="169" y="446" on="0"/>
        <pt x="107" y="391" on="0"/>
        <pt x="107" y="353" on="1"/>
        <pt x="107" y="296" on="0"/>
        <pt x="204" y="213" on="0"/>
        <pt x="273" y="213" on="1"/>
        <pt x="296" y="213" on="0"/>
        <pt x="336" y="224" on="0"/>
        <pt x="353" y="233" on="1"/>
        <pt x="344" y="245" on="0"/>
        <pt x="333" y="269" on="0"/>
        <pt x="333" y="280" on="1"/>
        <pt x="333" y="302" on="0"/>
        <pt x="384" y="333" on="0"/>
        <pt x="419" y="333" on="1"/>
        <pt x="453" y="333" on="0"/>
        <pt x="499" y="282" on="0"/>
        <pt x="499" y="246" on="1"/>
        <pt x="499" y="221" on="0"/>
        <pt x="461" y="182" on="0"/>
        <pt x="433" y="180" on="1"/>
        <pt x="439" y="145" on="0"/>
        <pt x="479" y="52" on="0"/>
        <pt x="513" y="-7" on="1"/>
        <pt x="446" y="-27" on="1"/>
        <pt x="439" y="-19" on="0"/>
        <pt x="409" y="40" on="0"/>
        <pt x="393" y="67" on="1"/>
        <pt x="368" y="24" on="0"/>
        <pt x="282" y="-27" on="0"/>
        <pt x="233" y="-27" on="1"/>
        <pt x="181" y="-27" on="0"/>
        <pt x="107" y="28" on="0"/>
        <pt x="107" y="67" on="1"/>
        <pt x="107" y="97" on="0"/>
        <pt x="154" y="152" on="0"/>
        <pt x="193" y="166" on="1"/>
        <pt x="124" y="192" on="0"/>
        <pt x="40" y="294" on="0"/>
        <pt x="40" y="353" on="1"/>
        <pt x="40" y="417" on="0"/>
        <pt x="141" y="506" on="0"/>
        <pt x="213" y="506" on="1"/>
        <pt x="399" y="506" on="1"/>
        <pt x="399" y="606" on="1"/>
      </contour>
    </TTGlyph>
    <TTGlyph name="dadeva_viramadeva_yadeva" xMin="-13" yMin="0" xMax="728" yMax="666">
      <contour>
        <pt x="282" y="120" on="1"/>
        <pt x="350" y="120" on="0"/>
        <pt x="490" y="197" on="0"/>
        <pt x="549" y="266" on="1"/>
        <pt x="549" y="606" on="1"/>
        <pt x="369" y="606" on="1"/>
        <pt x="369" y="459" on="1"/>
        <pt x="169" y="459" on="1"/>
        <pt x="141" y="459" on="0"/>
        <pt x="103" y="429" on="0"/>
        <pt x="103" y="406" on="1"/>
        <pt x="103" y="385" on="0"/>
        <pt x="156" y="346" on="0"/>
        <pt x="196" y="340" on="1"/>
        <pt x="208" y="346" on="0"/>
        <pt x="266" y="353" on="0"/>
        <pt x="316" y="353" on="1"/>
        <pt x="356" y="293" on="1"/>
        <pt x="262" y="293" on="1"/>
        <pt x="221" y="293" on="0"/>
        <pt x="162" y="242" on="0"/>
        <pt x="162" y="170" on="0"/>
        <pt x="233" y="120" on="0"/>
      </contour>
      <contour>
        <pt x="-13" y="606" on="1"/>
        <pt x="-13" y="666" on="1"/>
        <pt x="728" y="666" on="1"/>
        <pt x="728" y="606" on="1"/>
        <pt x="615" y="606" on="1"/>
        <pt x="615" y="0" on="1"/>
        <pt x="549" y="0" on="1"/>
        <pt x="549" y="180" on="1"/>
        <pt x="487" y="119" on="0"/>
        <pt x="349" y="53" on="0"/>
        <pt x="282" y="53" on="1"/>
        <pt x="205" y="53" on="0"/>
        <pt x="96" y="142" on="0"/>
        <pt x="96" y="206" on="1"/>
        <pt x="96" y="236" on="0"/>
        <pt x="117" y="282" on="0"/>
        <pt x="136" y="293" on="1"/>
        <pt x="91" y="309" on="0"/>
        <pt x="36" y="372" on="0"/>
        <pt x="36" y="406" on="1"/>
        <pt x="36" y="453" on="0"/>
        <pt x="115" y="519" on="0"/>
        <pt x="169" y="519" on="1"/>
        <pt x="302" y="519" on="1"/>
        <pt x="302" y="606" on="1"/>
      </contour>
    </TTGlyph>
    <TTGlyph name="danda" xMin="200" yMin="0" xMax="266" yMax="666">
      <contour>
        <pt x="200" y="0" on="1"/>
        <pt x="200" y="666" on="1"/>
        <pt x="266" y="666" on="1"/>
        <pt x="266" y="0" on="1"/>
      </contour>
    </TTGlyph>
    <TTGlyph name="dbldanda" xMin="200" yMin="0" xMax="479" yMax="666">
      <contour>
        <pt x="413" y="0" on="1"/>
        <pt x="413" y="666" on="1"/>
        <pt x="479" y="666" on="1"/>
        <pt x="479" y="0" on="1"/>
      </contour>
      <contour>
        <pt x="200" y="0" on="1"/>
        <pt x="200" y="666" on="1"/>
        <pt x="266" y="666" on="1"/>
        <pt x="266" y="0" on="1"/>
      </contour>
    </TTGlyph>
    <TTGlyph name="ddadeva" xMin="-13" yMin="13" xMax="644" yMax="666">
      <contour>
        <pt x="385" y="13" on="1"/>
        <pt x="280" y="13" on="0"/>
        <pt x="81" y="172" on="0"/>
        <pt x="19" y="306" on="1"/>
        <pt x="72" y="340" on="1"/>
        <pt x="128" y="221" on="0"/>
        <pt x="297" y="80" on="0"/>
        <pt x="385" y="80" on="1"/>
        <pt x="439" y="80" on="0"/>
        <pt x="518" y="162" on="0"/>
        <pt x="518" y="220" on="1"/>
        <pt x="518" y="236" on="0"/>
        <pt x="498" y="260" on="0"/>
        <pt x="485" y="260" on="1"/>
        <pt x="463" y="260" on="0"/>
        <pt x="386" y="233" on="0"/>
        <pt x="365" y="233" on="1"/>
        <pt x="314" y="233" on="0"/>
        <pt x="192" y="361" on="0"/>
        <pt x="192" y="413" on="1"/>
        <pt x="192" y="449" on="0"/>
        <pt x="242" y="499" on="0"/>
        <pt x="278" y="499" on="1"/>
        <pt x="458" y="499" on="1"/>
        <pt x="458" y="606" on="1"/>
        <pt x="-13" y="606" on="1"/>
        <pt x="-13" y="666" on="1"/>
        <pt x="644" y="666" on="1"/>
        <pt x="644" y="606" on="1"/>
        <pt x="525" y="606" on="1"/>
        <pt x="525" y="433" on="1"/>
        <pt x="278" y="433" on="1"/>
        <pt x="270" y="433" on="0"/>
        <pt x="258" y="421" on="0"/>
        <pt x="258" y="413" on="1"/>
        <pt x="258" y="385" on="0"/>
        <pt x="338" y="300" on="0"/>
        <pt x="365" y="300" on="1"/>
        <pt x="386" y="300" on="0"/>
        <pt x="463" y="326" on="0"/>
        <pt x="485" y="326" on="1"/>
        <pt x="526" y="326" on="0"/>
        <pt x="585" y="264" on="0"/>
        <pt x="585" y="220" on="1"/>
        <pt x="585" y="134" on="0"/>
        <pt x="467" y="13" on="0"/>
      </contour>
    </TTGlyph>
    <TTGlyph name="ddadeva_viramadeva" xMin="-13" yMin="-240" xMax="644" yMax="666">
      <contour>
        <pt x="338" y="-107" on="1"/>
        <pt x="312" y="-53" on="1"/>
        <pt x="385" y="-20" on="1"/>
        <pt x="625" y="-200" on="1"/>
        <pt x="585" y="-240" on="1"/>
        <pt x="385" y="-80" on="1"/>
      </contour>
      <contour>
        <pt x="385" y="13" on="1"/>
        <pt x="290" y="13" on="0"/>
        <pt x="44" y="209" on="0"/>
        <pt x="19" y="306" on="1"/>
        <pt x="72" y="340" on="1"/>
        <pt x="95" y="254" on="0"/>
        <pt x="305" y="80" on="0"/>
        <pt x="385" y="80" on="1"/>
        <pt x="439" y="80" on="0"/>
        <pt x="518" y="162" on="0"/>
        <pt x="518" y="220" on="1"/>
        <pt x="518" y="236" on="0"/>
        <pt x="498" y="260" on="0"/>
        <pt x="485" y="260" on="1"/>
        <pt x="463" y="260" on="0"/>
        <pt x="386" y="233" on="0"/>
        <pt x="365" y="233" on="1"/>
        <pt x="313" y="233" on="0"/>
        <pt x="185" y="366" on="0"/>
        <pt x="185" y="419" on="1"/>
        <pt x="185" y="453" on="0"/>
        <pt x="240" y="499" on="0"/>
        <pt x="278" y="499" on="1"/>
        <pt x="458" y="499" on="1"/>
        <pt x="458" y="606" on="1"/>
        <pt x="-13" y="606" on="1"/>
        <pt x="-13" y="666" on="1"/>
        <pt x="644" y="666" on="1"/>
        <pt x="644" y="606" on="1"/>
        <pt x="525" y="606" on="1"/>
        <pt x="525" y="433" on="1"/>
        <pt x="278" y="433" on="1"/>
        <pt x="270" y="433" on="0"/>
        <pt x="258" y="421" on="0"/>
        <pt x="258" y="413" on="1"/>
        <pt x="258" y="385" on="0"/>
        <pt x="338" y="300" on="0"/>
        <pt x="365" y="300" on="1"/>
        <pt x="386" y="300" on="0"/>
        <pt x="463" y="326" on="0"/>
        <pt x="485" y="326" on="1"/>
        <pt x="526" y="326" on="0"/>
        <pt x="585" y="264" on="0"/>
        <pt x="585" y="220" on="1"/>
        <pt x="585" y="134" on="0"/>
        <pt x="467" y="13" on="0"/>
      </contour>
    </TTGlyph>
    <TTGlyph name="ddadeva_viramadeva_ddadeva" xMin="-13" yMin="-153" xMax="658" yMax="666">
      <contour>
        <pt x="-13" y="606" on="1"/>
        <pt x="-13" y="666" on="1"/>
        <pt x="658" y="666" on="1"/>
        <pt x="658" y="606" on="1"/>
        <pt x="554" y="606" on="1"/>
        <pt x="554" y="459" on="1"/>
        <pt x="281" y="459" on="1"/>
        <pt x="268" y="459" on="0"/>
        <pt x="248" y="443" on="0"/>
        <pt x="248" y="433" on="1"/>
        <pt x="248" y="414" on="0"/>
        <pt x="313" y="360" on="0"/>
        <pt x="334" y="360" on="1"/>
        <pt x="361" y="360" on="0"/>
        <pt x="461" y="393" on="0"/>
        <pt x="487" y="393" on="1"/>
        <pt x="529" y="393" on="0"/>
        <pt x="587" y="338" on="0"/>
        <pt x="587" y="300" on="1"/>
        <pt x="587" y="233" on="0"/>
        <pt x="474" y="140" on="0"/>
        <pt x="394" y="140" on="1"/>
        <pt x="344" y="140" on="0"/>
        <pt x="280" y="149" on="0"/>
        <pt x="268" y="160" on="1"/>
        <pt x="265" y="150" on="0"/>
        <pt x="261" y="134" on="0"/>
        <pt x="261" y="127" on="1"/>
        <pt x="261" y="104" on="0"/>
        <pt x="300" y="73" on="0"/>
        <pt x="328" y="73" on="1"/>
        <pt x="354" y="73" on="0"/>
        <pt x="454" y="100" on="0"/>
        <pt x="481" y="100" on="1"/>
        <pt x="525" y="100" on="0"/>
        <pt x="587" y="41" on="0"/>
        <pt x="587" y="0" on="1"/>
        <pt x="587" y="-64" on="0"/>
        <pt x="458" y="-153" on="0"/>
        <pt x="368" y="-153" on="1"/>
        <pt x="281" y="-153" on="0"/>
        <pt x="101" y="-67" on="0"/>
        <pt x="21" y="13" on="1"/>
        <pt x="55" y="60" on="1"/>
        <pt x="128" y="-13" on="0"/>
        <pt x="290" y="-93" on="0"/>
        <pt x="368" y="-93" on="1"/>
        <pt x="431" y="-93" on="0"/>
        <pt x="521" y="-39" on="0"/>
        <pt x="521" y="0" on="1"/>
        <pt x="521" y="13" on="0"/>
        <pt x="497" y="33" on="0"/>
        <pt x="481" y="33" on="1"/>
        <pt x="455" y="33" on="0"/>
        <pt x="353" y="13" on="0"/>
        <pt x="328" y="13" on="1"/>
        <pt x="270" y="13" on="0"/>
        <pt x="188" y="88" on="0"/>
        <pt x="188" y="140" on="1"/>
        <pt x="188" y="145" on="0"/>
        <pt x="200" y="170" on="0"/>
        <pt x="201" y="173" on="1"/>
        <pt x="146" y="198" on="0"/>
        <pt x="59" y="270" on="0"/>
        <pt x="28" y="313" on="1"/>
        <pt x="68" y="353" on="1"/>
        <pt x="119" y="281" on="0"/>
        <pt x="292" y="200" on="0"/>
        <pt x="394" y="200" on="1"/>
        <pt x="446" y="200" on="0"/>
        <pt x="521" y="258" on="0"/>
        <pt x="521" y="300" on="1"/>
        <pt x="521" y="310" on="0"/>
        <pt x="501" y="326" on="0"/>
        <pt x="487" y="326" on="1"/>
        <pt x="461" y="326" on="0"/>
        <pt x="361" y="300" on="0"/>
        <pt x="334" y="300" on="1"/>
        <pt x="288" y="300" on="0"/>
        <pt x="174" y="403" on="0"/>
        <pt x="174" y="446" on="1"/>
        <pt x="174" y="477" on="0"/>
        <pt x="237" y="519" on="0"/>
        <pt x="281" y="519" on="1"/>
        <pt x="487" y="519" on="1"/>
        <pt x="487" y="606" on="1"/>
      </contour>
    </TTGlyph>
    <TTGlyph name="ddadeva_viramadeva_ddhadeva" xMin="-13" yMin="-213" xMax="642" yMax="666">
      <contour>
        <pt x="439" y="-140" on="0"/>
        <pt x="495" y="-140" on="0"/>
        <pt x="534" y="-112" on="0"/>
        <pt x="534" y="-93" on="1"/>
        <pt x="534" y="-71" on="0"/>
        <pt x="495" y="-40" on="0"/>
        <pt x="439" y="-40" on="0"/>
        <pt x="401" y="-71" on="0"/>
        <pt x="401" y="-93" on="1"/>
        <pt x="401" y="-112" on="0"/>
      </contour>
      <contour>
        <pt x="-13" y="606" on="1"/>
        <pt x="-13" y="666" on="1"/>
        <pt x="642" y="666" on="1"/>
        <pt x="642" y="606" on="1"/>
        <pt x="541" y="606" on="1"/>
        <pt x="541" y="459" on="1"/>
        <pt x="268" y="459" on="1"/>
        <pt x="254" y="459" on="0"/>
        <pt x="234" y="443" on="0"/>
        <pt x="234" y="433" on="1"/>
        <pt x="234" y="417" on="0"/>
        <pt x="300" y="366" on="0"/>
        <pt x="321" y="366" on="1"/>
        <pt x="348" y="366" on="0"/>
        <pt x="447" y="393" on="0"/>
        <pt x="474" y="393" on="1"/>
        <pt x="515" y="393" on="0"/>
        <pt x="574" y="338" on="0"/>
        <pt x="574" y="300" on="1"/>
        <pt x="574" y="266" on="0"/>
        <pt x="542" y="206" on="0"/>
        <pt x="514" y="186" on="1"/>
        <pt x="514" y="40" on="1"/>
        <pt x="261" y="40" on="1"/>
        <pt x="233" y="40" on="0"/>
        <pt x="194" y="9" on="0"/>
        <pt x="194" y="-13" on="1"/>
        <pt x="194" y="-68" on="0"/>
        <pt x="300" y="-153" on="0"/>
        <pt x="368" y="-153" on="1"/>
        <pt x="356" y="-144" on="0"/>
        <pt x="341" y="-109" on="0"/>
        <pt x="341" y="-87" on="1"/>
        <pt x="341" y="-43" on="0"/>
        <pt x="415" y="20" on="0"/>
        <pt x="519" y="20" on="0"/>
        <pt x="594" y="-47" on="0"/>
        <pt x="594" y="-93" on="1"/>
        <pt x="594" y="-148" on="0"/>
        <pt x="485" y="-213" on="0"/>
        <pt x="394" y="-213" on="1"/>
        <pt x="288" y="-213" on="0"/>
        <pt x="121" y="-88" on="0"/>
        <pt x="121" y="-7" on="1"/>
        <pt x="121" y="37" on="0"/>
        <pt x="204" y="100" on="0"/>
        <pt x="261" y="100" on="1"/>
        <pt x="441" y="100" on="1"/>
        <pt x="441" y="140" on="1"/>
        <pt x="368" y="140" on="1"/>
        <pt x="258" y="140" on="0"/>
        <pt x="72" y="232" on="0"/>
        <pt x="15" y="313" on="1"/>
        <pt x="55" y="353" on="1"/>
        <pt x="105" y="281" on="0"/>
        <pt x="278" y="200" on="0"/>
        <pt x="381" y="200" on="1"/>
        <pt x="433" y="200" on="0"/>
        <pt x="507" y="258" on="0"/>
        <pt x="507" y="300" on="1"/>
        <pt x="507" y="310" on="0"/>
        <pt x="487" y="326" on="0"/>
        <pt x="474" y="326" on="1"/>
        <pt x="447" y="326" on="0"/>
        <pt x="348" y="300" on="0"/>
        <pt x="321" y="300" on="1"/>
        <pt x="277" y="300" on="0"/>
        <pt x="168" y="394" on="0"/>
        <pt x="168" y="433" on="1"/>
        <pt x="168" y="469" on="0"/>
        <pt x="226" y="519" on="0"/>
        <pt x="268" y="519" on="1"/>
        <pt x="474" y="519" on="1"/>
        <pt x="474" y="606" on="1"/>
      </contour>
    </TTGlyph>
    <TTGlyph name="ddadeva_viramadeva_yadeva" xMin="-13" yMin="0" xMax="1236" yMax="666">
      <contour>
        <pt x="890" y="173" on="1"/>
        <pt x="936" y="173" on="0"/>
        <pt x="1024" y="214" on="0"/>
        <pt x="1056" y="253" on="1"/>
        <pt x="1056" y="606" on="1"/>
        <pt x="537" y="606" on="1"/>
        <pt x="537" y="499" on="1"/>
        <pt x="567" y="499" on="0"/>
        <pt x="686" y="539" on="0"/>
        <pt x="716" y="539" on="1"/>
        <pt x="802" y="539" on="0"/>
        <pt x="923" y="457" on="0"/>
        <pt x="923" y="399" on="1"/>
        <pt x="923" y="348" on="0"/>
        <pt x="826" y="273" on="0"/>
        <pt x="756" y="273" on="1"/>
        <pt x="772" y="228" on="0"/>
        <pt x="846" y="173" on="0"/>
      </contour>
      <contour>
        <pt x="-13" y="606" on="1"/>
        <pt x="-13" y="666" on="1"/>
        <pt x="1236" y="666" on="1"/>
        <pt x="1236" y="606" on="1"/>
        <pt x="1123" y="606" on="1"/>
        <pt x="1123" y="0" on="1"/>
        <pt x="1056" y="0" on="1"/>
        <pt x="1056" y="173" on="1"/>
        <pt x="1024" y="141" on="0"/>
        <pt x="937" y="107" on="0"/>
        <pt x="890" y="107" on="1"/>
        <pt x="811" y="107" on="0"/>
        <pt x="687" y="230" on="0"/>
        <pt x="670" y="326" on="1"/>
        <pt x="747" y="326" on="0"/>
        <pt x="856" y="369" on="0"/>
        <pt x="856" y="399" on="1"/>
        <pt x="856" y="433" on="0"/>
        <pt x="774" y="479" on="0"/>
        <pt x="716" y="479" on="1"/>
        <pt x="684" y="479" on="0"/>
        <pt x="569" y="433" on="0"/>
        <pt x="537" y="433" on="1"/>
        <pt x="290" y="433" on="1"/>
        <pt x="277" y="433" on="0"/>
        <pt x="257" y="417" on="0"/>
        <pt x="257" y="406" on="1"/>
        <pt x="257" y="376" on="0"/>
        <pt x="328" y="300" on="0"/>
        <pt x="357" y="300" on="1"/>
        <pt x="380" y="300" on="0"/>
        <pt x="461" y="333" on="0"/>
        <pt x="483" y="333" on="1"/>
        <pt x="525" y="333" on="0"/>
        <pt x="583" y="266" on="0"/>
        <pt x="583" y="220" on="1"/>
        <pt x="583" y="132" on="0"/>
        <pt x="470" y="7" on="0"/>
        <pt x="390" y="7" on="1"/>
        <pt x="297" y="7" on="0"/>
        <pt x="97" y="168" on="0"/>
        <pt x="17" y="306" on="1"/>
        <pt x="71" y="340" on="1"/>
        <pt x="144" y="213" on="0"/>
        <pt x="316" y="67" on="0"/>
        <pt x="390" y="67" on="1"/>
        <pt x="442" y="67" on="0"/>
        <pt x="517" y="156" on="0"/>
        <pt x="517" y="220" on="1"/>
        <pt x="517" y="238" on="0"/>
        <pt x="497" y="266" on="0"/>
        <pt x="483" y="266" on="1"/>
        <pt x="461" y="266" on="0"/>
        <pt x="380" y="233" on="0"/>
        <pt x="357" y="233" on="1"/>
        <pt x="306" y="233" on="0"/>
        <pt x="184" y="356" on="0"/>
        <pt x="184" y="406" on="1"/>
        <pt x="184" y="445" on="0"/>
        <pt x="246" y="499" on="0"/>
        <pt x="290" y="499" on="1"/>
        <pt x="470" y="499" on="1"/>
        <pt x="470" y="606" on="1"/>
      </contour>
    </TTGlyph>
    <TTGlyph name="dddadeva" xMin="17" yMin="-60" xMax="674" yMax="666">
      <contour>
        <pt x="22" y="-60" on="1"/>
        <pt x="22" y="0" on="1"/>
        <pt x="668" y="0" on="1"/>
        <pt x="668" y="-60" on="1"/>
      </contour>
      <contour>
        <pt x="415" y="13" on="1"/>
        <pt x="310" y="13" on="0"/>
        <pt x="111" y="172" on="0"/>
        <pt x="49" y="306" on="1"/>
        <pt x="102" y="340" on="1"/>
        <pt x="158" y="221" on="0"/>
        <pt x="327" y="80" on="0"/>
        <pt x="415" y="80" on="1"/>
        <pt x="469" y="80" on="0"/>
        <pt x="548" y="162" on="0"/>
        <pt x="548" y="220" on="1"/>
        <pt x="548" y="236" on="0"/>
        <pt x="528" y="260" on="0"/>
        <pt x="515" y="260" on="1"/>
        <pt x="493" y="260" on="0"/>
        <pt x="416" y="233" on="0"/>
        <pt x="395" y="233" on="1"/>
        <pt x="344" y="233" on="0"/>
        <pt x="222" y="361" on="0"/>
        <pt x="222" y="413" on="1"/>
        <pt x="222" y="449" on="0"/>
        <pt x="272" y="499" on="0"/>
        <pt x="308" y="499" on="1"/>
        <pt x="488" y="499" on="1"/>
        <pt x="488" y="606" on="1"/>
        <pt x="17" y="606" on="1"/>
        <pt x="17" y="666" on="1"/>
        <pt x="674" y="666" on="1"/>
        <pt x="674" y="606" on="1"/>
        <pt x="555" y="606" on="1"/>
        <pt x="555" y="433" on="1"/>
        <pt x="308" y="433" on="1"/>
        <pt x="300" y="433" on="0"/>
        <pt x="288" y="421" on="0"/>
        <pt x="288" y="413" on="1"/>
        <pt x="288" y="385" on="0"/>
        <pt x="368" y="300" on="0"/>
        <pt x="395" y="300" on="1"/>
        <pt x="416" y="300" on="0"/>
        <pt x="493" y="326" on="0"/>
        <pt x="515" y="326" on="1"/>
        <pt x="556" y="326" on="0"/>
        <pt x="615" y="264" on="0"/>
        <pt x="615" y="220" on="1"/>
        <pt x="615" y="134" on="0"/>
        <pt x="497" y="13" on="0"/>
      </contour>
    </TTGlyph>
    <TTGlyph name="dddhadeva" xMin="-13" yMin="-133" xMax="644" yMax="666">
      <contour>
        <pt x="385" y="-133" on="1"/>
        <pt x="325" y="-87" on="1"/>
        <pt x="385" y="-40" on="1"/>
        <pt x="445" y="-87" on="1"/>
      </contour>
      <contour>
        <pt x="385" y="13" on="1"/>
        <pt x="280" y="13" on="0"/>
        <pt x="81" y="172" on="0"/>
        <pt x="19" y="306" on="1"/>
        <pt x="72" y="340" on="1"/>
        <pt x="128" y="221" on="0"/>
        <pt x="297" y="80" on="0"/>
        <pt x="385" y="80" on="1"/>
        <pt x="439" y="80" on="0"/>
        <pt x="518" y="162" on="0"/>
        <pt x="518" y="220" on="1"/>
        <pt x="518" y="236" on="0"/>
        <pt x="498" y="260" on="0"/>
        <pt x="485" y="260" on="1"/>
        <pt x="463" y="260" on="0"/>
        <pt x="386" y="233" on="0"/>
        <pt x="365" y="233" on="1"/>
        <pt x="314" y="233" on="0"/>
        <pt x="192" y="361" on="0"/>
        <pt x="192" y="413" on="1"/>
        <pt x="192" y="449" on="0"/>
        <pt x="242" y="499" on="0"/>
        <pt x="278" y="499" on="1"/>
        <pt x="458" y="499" on="1"/>
        <pt x="458" y="606" on="1"/>
        <pt x="-13" y="606" on="1"/>
        <pt x="-13" y="666" on="1"/>
        <pt x="644" y="666" on="1"/>
        <pt x="644" y="606" on="1"/>
        <pt x="525" y="606" on="1"/>
        <pt x="525" y="433" on="1"/>
        <pt x="278" y="433" on="1"/>
        <pt x="270" y="433" on="0"/>
        <pt x="258" y="421" on="0"/>
        <pt x="258" y="413" on="1"/>
        <pt x="258" y="385" on="0"/>
        <pt x="338" y="300" on="0"/>
        <pt x="365" y="300" on="1"/>
        <pt x="386" y="300" on="0"/>
        <pt x="463" y="326" on="0"/>
        <pt x="485" y="326" on="1"/>
        <pt x="526" y="326" on="0"/>
        <pt x="585" y="264" on="0"/>
        <pt x="585" y="220" on="1"/>
        <pt x="585" y="134" on="0"/>
        <pt x="467" y="13" on="0"/>
      </contour>
    </TTGlyph>
    <TTGlyph name="ddhadeva" xMin="-13" yMin="13" xMax="593" yMax="666">
      <contour>
        <pt x="395" y="80" on="1"/>
        <pt x="430" y="87" on="0"/>
        <pt x="475" y="142" on="0"/>
        <pt x="475" y="180" on="1"/>
        <pt x="475" y="208" on="0"/>
        <pt x="437" y="246" on="0"/>
        <pt x="409" y="246" on="1"/>
        <pt x="384" y="246" on="0"/>
        <pt x="349" y="212" on="0"/>
        <pt x="349" y="186" on="1"/>
        <pt x="349" y="154" on="0"/>
        <pt x="373" y="99" on="0"/>
      </contour>
      <contour>
        <pt x="-13" y="606" on="1"/>
        <pt x="-13" y="666" on="1"/>
        <pt x="593" y="666" on="1"/>
        <pt x="593" y="606" on="1"/>
        <pt x="455" y="606" on="1"/>
        <pt x="455" y="406" on="1"/>
        <pt x="196" y="406" on="1"/>
        <pt x="160" y="406" on="0"/>
        <pt x="109" y="344" on="0"/>
        <pt x="109" y="300" on="1"/>
        <pt x="109" y="222" on="0"/>
        <pt x="248" y="80" on="0"/>
        <pt x="329" y="73" on="1"/>
        <pt x="306" y="92" on="0"/>
        <pt x="282" y="152" on="0"/>
        <pt x="282" y="186" on="1"/>
        <pt x="282" y="238" on="0"/>
        <pt x="357" y="313" on="0"/>
        <pt x="409" y="313" on="1"/>
        <pt x="463" y="313" on="0"/>
        <pt x="542" y="234" on="0"/>
        <pt x="542" y="180" on="1"/>
        <pt x="542" y="111" on="0"/>
        <pt x="417" y="13" on="0"/>
        <pt x="329" y="13" on="1"/>
        <pt x="222" y="13" on="0"/>
        <pt x="43" y="193" on="0"/>
        <pt x="43" y="300" on="1"/>
        <pt x="43" y="372" on="0"/>
        <pt x="132" y="473" on="0"/>
        <pt x="196" y="473" on="1"/>
        <pt x="389" y="473" on="1"/>
        <pt x="389" y="606" on="1"/>
      </contour>
    </TTGlyph>
    <TTGlyph name="ddhadeva_viramadeva" xMin="-13" yMin="-253" xMax="593" yMax="666">
      <contour>
        <pt x="282" y="-120" on="1"/>
        <pt x="256" y="-67" on="1"/>
        <pt x="329" y="-33" on="1"/>
        <pt x="569" y="-213" on="1"/>
        <pt x="529" y="-253" on="1"/>
        <pt x="329" y="-93" on="1"/>
      </contour>
      <contour>
        <pt x="395" y="80" on="1"/>
        <pt x="430" y="87" on="0"/>
        <pt x="475" y="142" on="0"/>
        <pt x="475" y="180" on="1"/>
        <pt x="475" y="208" on="0"/>
        <pt x="437" y="246" on="0"/>
        <pt x="409" y="246" on="1"/>
        <pt x="384" y="246" on="0"/>
        <pt x="349" y="212" on="0"/>
        <pt x="349" y="186" on="1"/>
        <pt x="349" y="154" on="0"/>
        <pt x="373" y="99" on="0"/>
      </contour>
      <contour>
        <pt x="-13" y="606" on="1"/>
        <pt x="-13" y="666" on="1"/>
        <pt x="593" y="666" on="1"/>
        <pt x="593" y="606" on="1"/>
        <pt x="455" y="606" on="1"/>
        <pt x="455" y="406" on="1"/>
        <pt x="196" y="406" on="1"/>
        <pt x="160" y="406" on="0"/>
        <pt x="109" y="344" on="0"/>
        <pt x="109" y="300" on="1"/>
        <pt x="109" y="222" on="0"/>
        <pt x="248" y="80" on="0"/>
        <pt x="329" y="73" on="1"/>
        <pt x="306" y="92" on="0"/>
        <pt x="282" y="152" on="0"/>
        <pt x="282" y="186" on="1"/>
        <pt x="282" y="238" on="0"/>
        <pt x="357" y="313" on="0"/>
        <pt x="409" y="313" on="1"/>
        <pt x="463" y="313" on="0"/>
        <pt x="542" y="234" on="0"/>
        <pt x="542" y="180" on="1"/>
        <pt x="542" y="111" on="0"/>
        <pt x="417" y="13" on="0"/>
        <pt x="329" y="13" on="1"/>
        <pt x="222" y="13" on="0"/>
        <pt x="43" y="193" on="0"/>
        <pt x="43" y="300" on="1"/>
        <pt x="43" y="372" on="0"/>
        <pt x="132" y="473" on="0"/>
        <pt x="196" y="473" on="1"/>
        <pt x="389" y="473" on="1"/>
        <pt x="389" y="606" on="1"/>
      </contour>
    </TTGlyph>
    <TTGlyph name="ddhadeva_viramadeva_ddhadeva" xMin="-13" yMin="-146" xMax="610" yMax="666">
      <contour>
        <pt x="407" y="280" on="1"/>
        <pt x="433" y="280" on="0"/>
        <pt x="467" y="304" on="0"/>
        <pt x="467" y="320" on="1"/>
        <pt x="467" y="338" on="0"/>
        <pt x="433" y="366" on="0"/>
        <pt x="407" y="366" on="1"/>
        <pt x="382" y="366" on="0"/>
        <pt x="348" y="338" on="0"/>
        <pt x="348" y="320" on="1"/>
        <pt x="348" y="304" on="0"/>
        <pt x="382" y="280" on="0"/>
      </contour>
      <contour>
        <pt x="393" y="-87" on="0"/>
        <pt x="449" y="-87" on="0"/>
        <pt x="487" y="-56" on="0"/>
        <pt x="487" y="-33" on="1"/>
        <pt x="487" y="-11" on="0"/>
        <pt x="449" y="20" on="0"/>
        <pt x="393" y="20" on="0"/>
        <pt x="354" y="-8" on="0"/>
        <pt x="354" y="-27" on="1"/>
        <pt x="354" y="-52" on="0"/>
      </contour>
      <contour>
        <pt x="-13" y="606" on="1"/>
        <pt x="-13" y="666" on="1"/>
        <pt x="610" y="666" on="1"/>
        <pt x="610" y="606" on="1"/>
        <pt x="494" y="606" on="1"/>
        <pt x="494" y="486" on="1"/>
        <pt x="228" y="486" on="1"/>
        <pt x="186" y="486" on="0"/>
        <pt x="128" y="439" on="0"/>
        <pt x="128" y="406" on="1"/>
        <pt x="128" y="352" on="0"/>
        <pt x="241" y="266" on="0"/>
        <pt x="314" y="266" on="1"/>
        <pt x="298" y="280" on="0"/>
        <pt x="281" y="314" on="0"/>
        <pt x="281" y="333" on="1"/>
        <pt x="281" y="374" on="0"/>
        <pt x="356" y="433" on="0"/>
        <pt x="407" y="433" on="1"/>
        <pt x="462" y="433" on="0"/>
        <pt x="541" y="374" on="0"/>
        <pt x="541" y="333" on="1"/>
        <pt x="541" y="298" on="0"/>
        <pt x="514" y="250" on="0"/>
        <pt x="494" y="246" on="1"/>
        <pt x="494" y="107" on="1"/>
        <pt x="214" y="107" on="1"/>
        <pt x="178" y="107" on="0"/>
        <pt x="128" y="76" on="0"/>
        <pt x="128" y="53" on="1"/>
        <pt x="128" y="-1" on="0"/>
        <pt x="245" y="-87" on="0"/>
        <pt x="321" y="-87" on="1"/>
        <pt x="309" y="-77" on="0"/>
        <pt x="294" y="-43" on="0"/>
        <pt x="294" y="-20" on="1"/>
        <pt x="294" y="19" on="0"/>
        <pt x="369" y="73" on="0"/>
        <pt x="421" y="73" on="1"/>
        <pt x="470" y="73" on="0"/>
        <pt x="541" y="11" on="0"/>
        <pt x="541" y="-33" on="1"/>
        <pt x="541" y="-85" on="0"/>
        <pt x="435" y="-146" on="0"/>
        <pt x="348" y="-146" on="1"/>
        <pt x="233" y="-146" on="0"/>
        <pt x="55" y="-25" on="0"/>
        <pt x="55" y="53" on="1"/>
        <pt x="55" y="100" on="0"/>
        <pt x="148" y="166" on="0"/>
        <pt x="214" y="166" on="1"/>
        <pt x="427" y="166" on="1"/>
        <pt x="427" y="206" on="1"/>
        <pt x="321" y="206" on="1"/>
        <pt x="217" y="206" on="0"/>
        <pt x="55" y="332" on="0"/>
        <pt x="55" y="413" on="1"/>
        <pt x="55" y="467" on="0"/>
        <pt x="156" y="546" on="0"/>
        <pt x="228" y="546" on="1"/>
        <pt x="427" y="546" on="1"/>
        <pt x="427" y="606" on="1"/>
      </contour>
    </TTGlyph>
    <TTGlyph name="ddhadeva_viramadeva_yadeva" xMin="-13" yMin="0" xMax="1216" yMax="666">
      <contour>
        <pt x="870" y="166" on="1"/>
        <pt x="915" y="166" on="0"/>
        <pt x="1003" y="220" on="0"/>
        <pt x="1036" y="266" on="1"/>
        <pt x="1036" y="606" on="1"/>
        <pt x="490" y="606" on="1"/>
        <pt x="490" y="493" on="1"/>
        <pt x="535" y="509" on="0"/>
        <pt x="639" y="526" on="0"/>
        <pt x="696" y="526" on="1"/>
        <pt x="779" y="526" on="0"/>
        <pt x="896" y="447" on="0"/>
        <pt x="896" y="393" on="1"/>
        <pt x="896" y="341" on="0"/>
        <pt x="799" y="266" on="0"/>
        <pt x="730" y="266" on="1"/>
        <pt x="738" y="222" on="0"/>
        <pt x="816" y="166" on="0"/>
      </contour>
      <contour>
        <pt x="384" y="80" on="1"/>
        <pt x="418" y="87" on="0"/>
        <pt x="463" y="142" on="0"/>
        <pt x="463" y="180" on="1"/>
        <pt x="463" y="208" on="0"/>
        <pt x="425" y="246" on="0"/>
        <pt x="397" y="246" on="1"/>
        <pt x="372" y="246" on="0"/>
        <pt x="337" y="208" on="0"/>
        <pt x="337" y="180" on="1"/>
        <pt x="337" y="148" on="0"/>
        <pt x="362" y="96" on="0"/>
      </contour>
      <contour>
        <pt x="-13" y="606" on="1"/>
        <pt x="-13" y="666" on="1"/>
        <pt x="1216" y="666" on="1"/>
        <pt x="1216" y="606" on="1"/>
        <pt x="1103" y="606" on="1"/>
        <pt x="1103" y="0" on="1"/>
        <pt x="1036" y="0" on="1"/>
        <pt x="1036" y="180" on="1"/>
        <pt x="1004" y="141" on="0"/>
        <pt x="916" y="100" on="0"/>
        <pt x="870" y="100" on="1"/>
        <pt x="784" y="100" on="0"/>
        <pt x="658" y="230" on="0"/>
        <pt x="650" y="326" on="1"/>
        <pt x="743" y="326" on="1"/>
        <pt x="779" y="326" on="0"/>
        <pt x="830" y="365" on="0"/>
        <pt x="830" y="393" on="1"/>
        <pt x="830" y="423" on="0"/>
        <pt x="751" y="466" on="0"/>
        <pt x="696" y="466" on="1"/>
        <pt x="639" y="466" on="0"/>
        <pt x="535" y="449" on="0"/>
        <pt x="490" y="433" on="1"/>
        <pt x="490" y="413" on="1"/>
        <pt x="210" y="413" on="1"/>
        <pt x="169" y="413" on="0"/>
        <pt x="111" y="350" on="0"/>
        <pt x="111" y="306" on="1"/>
        <pt x="111" y="210" on="0"/>
        <pt x="232" y="73" on="0"/>
        <pt x="317" y="73" on="1"/>
        <pt x="294" y="100" on="0"/>
        <pt x="270" y="158" on="0"/>
        <pt x="270" y="186" on="1"/>
        <pt x="270" y="238" on="0"/>
        <pt x="345" y="313" on="0"/>
        <pt x="397" y="313" on="1"/>
        <pt x="451" y="313" on="0"/>
        <pt x="530" y="234" on="0"/>
        <pt x="530" y="180" on="1"/>
        <pt x="530" y="111" on="0"/>
        <pt x="417" y="13" on="0"/>
        <pt x="337" y="13" on="1"/>
        <pt x="216" y="13" on="0"/>
        <pt x="44" y="185" on="0"/>
        <pt x="44" y="306" on="1"/>
        <pt x="44" y="376" on="0"/>
        <pt x="141" y="473" on="0"/>
        <pt x="210" y="473" on="1"/>
        <pt x="423" y="473" on="1"/>
        <pt x="423" y="606" on="1"/>
      </contour>
    </TTGlyph>
    <TTGlyph name="dhadeva" xMin="36" yMin="0" xMax="662" yMax="686">
      <contour>
        <pt x="276" y="113" on="1"/>
        <pt x="201" y="113" on="0"/>
        <pt x="96" y="196" on="0"/>
        <pt x="96" y="253" on="1"/>
        <pt x="96" y="289" on="0"/>
        <pt x="124" y="349" on="0"/>
        <pt x="149" y="366" on="1"/>
        <pt x="96" y="403" on="0"/>
        <pt x="36" y="499" on="0"/>
        <pt x="36" y="546" on="1"/>
        <pt x="36" y="603" on="0"/>
        <pt x="115" y="686" on="0"/>
        <pt x="169" y="686" on="1"/>
        <pt x="226" y="686" on="0"/>
        <pt x="296" y="625" on="0"/>
        <pt x="296" y="573" on="1"/>
        <pt x="296" y="529" on="0"/>
        <pt x="225" y="466" on="0"/>
        <pt x="176" y="466" on="1"/>
        <pt x="176" y="533" on="1"/>
        <pt x="198" y="533" on="0"/>
        <pt x="229" y="557" on="0"/>
        <pt x="229" y="573" on="1"/>
        <pt x="229" y="591" on="0"/>
        <pt x="194" y="619" on="0"/>
        <pt x="169" y="619" on="1"/>
        <pt x="141" y="619" on="0"/>
        <pt x="103" y="577" on="0"/>
        <pt x="103" y="546" on="1"/>
        <pt x="103" y="507" on="0"/>
        <pt x="156" y="433" on="0"/>
        <pt x="202" y="406" on="1"/>
        <pt x="224" y="415" on="0"/>
        <pt x="274" y="426" on="0"/>
        <pt x="302" y="426" on="1"/>
        <pt x="342" y="426" on="1"/>
        <pt x="382" y="360" on="1"/>
        <pt x="309" y="360" on="1"/>
        <pt x="248" y="360" on="0"/>
        <pt x="162" y="297" on="0"/>
        <pt x="162" y="253" on="1"/>
        <pt x="162" y="222" on="0"/>
        <pt x="229" y="180" on="0"/>
        <pt x="276" y="180" on="1"/>
        <pt x="329" y="180" on="0"/>
        <pt x="438" y="250" on="0"/>
        <pt x="482" y="313" on="1"/>
        <pt x="482" y="606" on="1"/>
        <pt x="336" y="606" on="1"/>
        <pt x="336" y="666" on="1"/>
        <pt x="662" y="666" on="1"/>
        <pt x="662" y="606" on="1"/>
        <pt x="549" y="606" on="1"/>
        <pt x="549" y="0" on="1"/>
        <pt x="482" y="0" on="1"/>
        <pt x="482" y="220" on="1"/>
        <pt x="439" y="169" on="0"/>
        <pt x="332" y="113" on="0"/>
      </contour>
    </TTGlyph>
    <TTGlyph name="dhadeva_viramadeva" xMin="37" yMin="107" xMax="517" yMax="679">
      <contour>
        <pt x="350" y="606" on="1"/>
        <pt x="350" y="666" on="1"/>
        <pt x="503" y="666" on="1"/>
        <pt x="503" y="606" on="1"/>
      </contour>
      <contour>
        <pt x="277" y="107" on="1"/>
        <pt x="202" y="107" on="0"/>
        <pt x="97" y="192" on="0"/>
        <pt x="97" y="253" on="1"/>
        <pt x="97" y="289" on="0"/>
        <pt x="129" y="350" on="0"/>
        <pt x="157" y="366" on="1"/>
        <pt x="103" y="391" on="0"/>
        <pt x="37" y="489" on="0"/>
        <pt x="37" y="546" on="1"/>
        <pt x="37" y="601" on="0"/>
        <pt x="116" y="679" on="0"/>
        <pt x="170" y="679" on="1"/>
        <pt x="222" y="679" on="0"/>
        <pt x="297" y="617" on="0"/>
        <pt x="297" y="573" on="1"/>
        <pt x="297" y="531" on="0"/>
        <pt x="226" y="473" on="0"/>
        <pt x="177" y="473" on="1"/>
        <pt x="177" y="533" on="1"/>
        <pt x="200" y="533" on="0"/>
        <pt x="230" y="557" on="0"/>
        <pt x="230" y="589" on="0"/>
        <pt x="196" y="613" on="0"/>
        <pt x="170" y="613" on="1"/>
        <pt x="142" y="613" on="0"/>
        <pt x="104" y="574" on="0"/>
        <pt x="104" y="546" on="1"/>
        <pt x="104" y="498" on="0"/>
        <pt x="162" y="417" on="0"/>
        <pt x="210" y="399" on="1"/>
        <pt x="237" y="409" on="0"/>
        <pt x="278" y="419" on="0"/>
        <pt x="290" y="419" on="1"/>
        <pt x="357" y="419" on="1"/>
        <pt x="390" y="366" on="1"/>
        <pt x="310" y="366" on="1"/>
        <pt x="246" y="366" on="0"/>
        <pt x="157" y="300" on="0"/>
        <pt x="157" y="253" on="1"/>
        <pt x="157" y="217" on="0"/>
        <pt x="228" y="166" on="0"/>
        <pt x="277" y="166" on="1"/>
        <pt x="328" y="166" on="0"/>
        <pt x="453" y="250" on="0"/>
        <pt x="517" y="326" on="1"/>
        <pt x="517" y="240" on="1"/>
        <pt x="453" y="176" on="0"/>
        <pt x="328" y="107" on="0"/>
      </contour>
    </TTGlyph>
    <TTGlyph name="dhadeva_viramadeva_radeva" xMin="41" yMin="-33" xMax="667" yMax="686">
      <contour>
        <pt x="238" y="117" on="1"/>
        <pt x="178" y="129" on="0"/>
        <pt x="101" y="205" on="0"/>
        <pt x="101" y="253" on="1"/>
        <pt x="101" y="289" on="0"/>
        <pt x="129" y="349" on="0"/>
        <pt x="154" y="366" on="1"/>
        <pt x="101" y="403" on="0"/>
        <pt x="41" y="499" on="0"/>
        <pt x="41" y="546" on="1"/>
        <pt x="41" y="603" on="0"/>
        <pt x="120" y="686" on="0"/>
        <pt x="174" y="686" on="1"/>
        <pt x="232" y="686" on="0"/>
        <pt x="301" y="625" on="0"/>
        <pt x="301" y="573" on="1"/>
        <pt x="301" y="529" on="0"/>
        <pt x="230" y="466" on="0"/>
        <pt x="181" y="466" on="1"/>
        <pt x="181" y="533" on="1"/>
        <pt x="204" y="533" on="0"/>
        <pt x="234" y="557" on="0"/>
        <pt x="234" y="573" on="1"/>
        <pt x="234" y="591" on="0"/>
        <pt x="200" y="619" on="0"/>
        <pt x="174" y="619" on="1"/>
        <pt x="146" y="619" on="0"/>
        <pt x="108" y="577" on="0"/>
        <pt x="108" y="546" on="1"/>
        <pt x="108" y="507" on="0"/>
        <pt x="161" y="433" on="0"/>
        <pt x="208" y="406" on="1"/>
        <pt x="229" y="415" on="0"/>
        <pt x="280" y="426" on="0"/>
        <pt x="308" y="426" on="1"/>
        <pt x="348" y="426" on="1"/>
        <pt x="387" y="360" on="1"/>
        <pt x="314" y="360" on="1"/>
        <pt x="253" y="360" on="0"/>
        <pt x="168" y="297" on="0"/>
        <pt x="168" y="253" on="1"/>
        <pt x="168" y="222" on="0"/>
        <pt x="234" y="180" on="0"/>
        <pt x="328" y="180" on="0"/>
        <pt x="434" y="228" on="0"/>
        <pt x="487" y="273" on="1"/>
        <pt x="487" y="606" on="1"/>
        <pt x="341" y="606" on="1"/>
        <pt x="341" y="666" on="1"/>
        <pt x="667" y="666" on="1"/>
        <pt x="667" y="606" on="1"/>
        <pt x="554" y="606" on="1"/>
        <pt x="554" y="0" on="1"/>
        <pt x="487" y="0" on="1"/>
        <pt x="487" y="194" on="1"/>
        <pt x="88" y="-33" on="1"/>
        <pt x="61" y="20" on="1"/>
      </contour>
    </TTGlyph>
    <TTGlyph name="divide" xMin="100" yMin="27" xMax="732" yMax="633">
      <contour>
        <pt x="499" y="107" on="1"/>
        <pt x="499" y="73" on="0"/>
        <pt x="453" y="27" on="0"/>
        <pt x="419" y="27" on="1"/>
        <pt x="389" y="27" on="0"/>
        <pt x="346" y="73" on="0"/>
        <pt x="346" y="107" on="1"/>
        <pt x="346" y="137" on="0"/>
        <pt x="389" y="180" on="0"/>
        <pt x="419" y="180" on="1"/>
        <pt x="453" y="180" on="0"/>
        <pt x="499" y="137" on="0"/>
      </contour>
      <contour>
        <pt x="732" y="286" on="1"/>
        <pt x="100" y="286" on="1"/>
        <pt x="100" y="366" on="1"/>
        <pt x="732" y="366" on="1"/>
      </contour>
      <contour>
        <pt x="499" y="553" on="1"/>
        <pt x="499" y="519" on="0"/>
        <pt x="453" y="473" on="0"/>
        <pt x="419" y="473" on="1"/>
        <pt x="389" y="473" on="0"/>
        <pt x="346" y="519" on="0"/>
        <pt x="346" y="553" on="1"/>
        <pt x="346" y="586" on="0"/>
        <pt x="393" y="633" on="0"/>
        <pt x="426" y="633" on="1"/>
        <pt x="457" y="633" on="0"/>
        <pt x="499" y="586" on="0"/>
      </contour>
    </TTGlyph>
    <TTGlyph name="dollar" xMin="100" yMin="-101" xMax="613" yMax="839">
      <contour>
        <pt x="320" y="666" on="1"/>
        <pt x="258" y="654" on="0"/>
        <pt x="178" y="581" on="0"/>
        <pt x="178" y="535" on="1"/>
        <pt x="178" y="486" on="0"/>
        <pt x="258" y="407" on="0"/>
        <pt x="320" y="398" on="1"/>
      </contour>
      <contour>
        <pt x="385" y="49" on="1"/>
        <pt x="457" y="57" on="0"/>
        <pt x="554" y="140" on="0"/>
        <pt x="554" y="248" on="0"/>
        <pt x="457" y="326" on="0"/>
        <pt x="385" y="332" on="1"/>
      </contour>
      <contour>
        <pt x="100" y="225" on="1"/>
        <pt x="161" y="225" on="1"/>
        <pt x="161" y="165" on="0"/>
        <pt x="250" y="67" on="0"/>
        <pt x="320" y="49" on="1"/>
        <pt x="320" y="341" on="1"/>
        <pt x="233" y="350" on="0"/>
        <pt x="116" y="462" on="0"/>
        <pt x="116" y="535" on="1"/>
        <pt x="116" y="606" on="0"/>
        <pt x="232" y="714" on="0"/>
        <pt x="320" y="724" on="1"/>
        <pt x="320" y="839" on="1"/>
        <pt x="385" y="839" on="1"/>
        <pt x="385" y="724" on="1"/>
        <pt x="474" y="714" on="0"/>
        <pt x="593" y="597" on="0"/>
        <pt x="593" y="519" on="1"/>
        <pt x="529" y="519" on="1"/>
        <pt x="529" y="574" on="0"/>
        <pt x="446" y="656" on="0"/>
        <pt x="385" y="666" on="1"/>
        <pt x="385" y="389" on="1"/>
        <pt x="483" y="376" on="0"/>
        <pt x="613" y="264" on="0"/>
        <pt x="613" y="194" on="1"/>
        <pt x="613" y="117" on="0"/>
        <pt x="482" y="1" on="0"/>
        <pt x="385" y="-9" on="1"/>
        <pt x="385" y="-101" on="1"/>
        <pt x="320" y="-101" on="1"/>
        <pt x="320" y="-9" on="1"/>
        <pt x="225" y="4" on="0"/>
        <pt x="100" y="137" on="0"/>
      </contour>
    </TTGlyph>
    <TTGlyph name="dottedcircle" xMin="100" yMin="-27" xMax="819" yMax="692">
      <contour>
        <pt x="567" y="44" on="0"/>
        <pt x="567" y="84" on="0"/>
        <pt x="595" y="112" on="0"/>
        <pt x="635" y="112" on="0"/>
        <pt x="663" y="84" on="0"/>
        <pt x="663" y="44" on="0"/>
        <pt x="635" y="15" on="0"/>
        <pt x="595" y="15" on="0"/>
      </contour>
      <contour>
        <pt x="256" y="583" on="0"/>
        <pt x="256" y="623" on="0"/>
        <pt x="284" y="651" on="0"/>
        <pt x="324" y="651" on="0"/>
        <pt x="352" y="623" on="0"/>
        <pt x="352" y="583" on="0"/>
        <pt x="324" y="555" on="0"/>
        <pt x="284" y="555" on="0"/>
      </contour>
      <contour>
        <pt x="682" y="157" on="0"/>
        <pt x="682" y="197" on="0"/>
        <pt x="710" y="225" on="0"/>
        <pt x="750" y="225" on="0"/>
        <pt x="778" y="197" on="0"/>
        <pt x="778" y="157" on="0"/>
        <pt x="750" y="129" on="0"/>
        <pt x="710" y="129" on="0"/>
      </contour>
      <contour>
        <pt x="142" y="469" on="0"/>
        <pt x="142" y="509" on="0"/>
        <pt x="170" y="537" on="0"/>
        <pt x="210" y="537" on="0"/>
        <pt x="238" y="509" on="0"/>
        <pt x="238" y="469" on="0"/>
        <pt x="210" y="441" on="0"/>
        <pt x="170" y="441" on="0"/>
      </contour>
      <contour>
        <pt x="256" y="44" on="0"/>
        <pt x="256" y="84" on="0"/>
        <pt x="284" y="112" on="0"/>
        <pt x="324" y="112" on="0"/>
        <pt x="352" y="84" on="0"/>
        <pt x="352" y="44" on="0"/>
        <pt x="324" y="15" on="0"/>
        <pt x="284" y="15" on="0"/>
      </contour>
      <contour>
        <pt x="567" y="583" on="0"/>
        <pt x="567" y="623" on="0"/>
        <pt x="595" y="651" on="0"/>
        <pt x="635" y="651" on="0"/>
        <pt x="663" y="623" on="0"/>
        <pt x="663" y="583" on="0"/>
        <pt x="635" y="555" on="0"/>
        <pt x="595" y="555" on="0"/>
      </contour>
      <contour>
        <pt x="682" y="469" on="0"/>
        <pt x="682" y="509" on="0"/>
        <pt x="710" y="537" on="0"/>
        <pt x="750" y="537" on="0"/>
        <pt x="778" y="509" on="0"/>
        <pt x="778" y="469" on="0"/>
        <pt x="750" y="441" on="0"/>
        <pt x="710" y="441" on="0"/>
      </contour>
      <contour>
        <pt x="142" y="157" on="0"/>
        <pt x="142" y="197" on="0"/>
        <pt x="170" y="225" on="0"/>
        <pt x="210" y="225" on="0"/>
        <pt x="238" y="197" on="0"/>
        <pt x="238" y="157" on="0"/>
        <pt x="210" y="129" on="0"/>
        <pt x="170" y="129" on="0"/>
      </contour>
      <contour>
        <pt x="723" y="313" on="0"/>
        <pt x="723" y="353" on="0"/>
        <pt x="751" y="381" on="0"/>
        <pt x="791" y="381" on="0"/>
        <pt x="819" y="353" on="0"/>
        <pt x="819" y="313" on="0"/>
        <pt x="791" y="285" on="0"/>
        <pt x="751" y="285" on="0"/>
      </contour>
      <contour>
        <pt x="100" y="313" on="0"/>
        <pt x="100" y="353" on="0"/>
        <pt x="128" y="381" on="0"/>
        <pt x="168" y="381" on="0"/>
        <pt x="196" y="353" on="0"/>
        <pt x="196" y="313" on="0"/>
        <pt x="168" y="285" on="0"/>
        <pt x="128" y="285" on="0"/>
      </contour>
      <contour>
        <pt x="411" y="1" on="0"/>
        <pt x="411" y="41" on="0"/>
        <pt x="439" y="69" on="0"/>
        <pt x="479" y="69" on="0"/>
        <pt x="507" y="41" on="0"/>
        <pt x="507" y="1" on="0"/>
        <pt x="479" y="-27" on="0"/>
        <pt x="439" y="-27" on="0"/>
      </contour>
      <contour>
        <pt x="411" y="644" on="1"/>
        <pt x="411" y="664" on="0"/>
        <pt x="439" y="692" on="0"/>
        <pt x="479" y="692" on="0"/>
        <pt x="507" y="664" on="0"/>
        <pt x="507" y="644" on="1"/>
        <pt x="507" y="625" on="0"/>
        <pt x="479" y="597" on="0"/>
        <pt x="439" y="597" on="0"/>
        <pt x="411" y="625" on="0"/>
      </contour>
    </TTGlyph>
    <TTGlyph name="doublecandrabinduviramadeva" xMin="100" yMin="-180" xMax="552" yMax="665">
      <contour>
        <pt x="267" y="281" on="1"/>
        <pt x="267" y="368" on="1"/>
        <pt x="353" y="368" on="1"/>
        <pt x="353" y="281" on="1"/>
      </contour>
      <contour>
        <pt x="313" y="135" on="1"/>
        <pt x="235" y="135" on="0"/>
        <pt x="115" y="240" on="0"/>
        <pt x="100" y="321" on="1"/>
        <pt x="173" y="321" on="1"/>
        <pt x="183" y="267" on="0"/>
        <pt x="263" y="195" on="0"/>
        <pt x="313" y="195" on="1"/>
        <pt x="364" y="195" on="0"/>
        <pt x="444" y="267" on="0"/>
        <pt x="453" y="321" on="1"/>
        <pt x="526" y="321" on="1"/>
        <pt x="512" y="240" on="0"/>
        <pt x="392" y="135" on="0"/>
      </contour>
      <contour>
        <pt x="266" y="-60" on="1"/>
        <pt x="232" y="-13" on="1"/>
        <pt x="312" y="47" on="1"/>
        <pt x="552" y="-140" on="1"/>
        <pt x="512" y="-180" on="1"/>
        <pt x="312" y="-20" on="1"/>
      </contour>
      <contour>
        <pt x="267" y="578" on="1"/>
        <pt x="267" y="665" on="1"/>
        <pt x="353" y="665" on="1"/>
        <pt x="353" y="578" on="1"/>
      </contour>
      <contour>
        <pt x="313" y="432" on="1"/>
        <pt x="235" y="432" on="0"/>
        <pt x="115" y="537" on="0"/>
        <pt x="100" y="618" on="1"/>
        <pt x="173" y="618" on="1"/>
        <pt x="183" y="564" on="0"/>
        <pt x="263" y="492" on="0"/>
        <pt x="313" y="492" on="1"/>
        <pt x="364" y="492" on="0"/>
        <pt x="444" y="564" on="0"/>
        <pt x="453" y="618" on="1"/>
        <pt x="526" y="618" on="1"/>
        <pt x="512" y="537" on="0"/>
        <pt x="392" y="432" on="0"/>
      </contour>
    </TTGlyph>
    <TTGlyph name="ecandradeva" xMin="-13" yMin="-127" xMax="503" yMax="932">
      <contour>
        <pt x="248" y="752" on="1"/>
        <pt x="174" y="752" on="0"/>
        <pt x="61" y="854" on="0"/>
        <pt x="48" y="932" on="1"/>
        <pt x="115" y="932" on="1"/>
        <pt x="124" y="878" on="0"/>
        <pt x="200" y="806" on="0"/>
        <pt x="296" y="806" on="0"/>
        <pt x="372" y="878" on="0"/>
        <pt x="381" y="932" on="1"/>
        <pt x="447" y="932" on="1"/>
        <pt x="434" y="854" on="0"/>
        <pt x="321" y="752" on="0"/>
      </contour>
      <contour>
        <pt x="368" y="-127" on="1"/>
        <pt x="314" y="-80" on="1"/>
        <pt x="341" y="-76" on="0"/>
        <pt x="374" y="-49" on="0"/>
        <pt x="374" y="-33" on="1"/>
        <pt x="374" y="-24" on="0"/>
        <pt x="361" y="0" on="0"/>
        <pt x="348" y="13" on="1"/>
        <pt x="101" y="240" on="1"/>
        <pt x="83" y="258" on="0"/>
        <pt x="61" y="297" on="0"/>
        <pt x="61" y="313" on="1"/>
        <pt x="61" y="606" on="1"/>
        <pt x="-13" y="606" on="1"/>
        <pt x="-13" y="666" on="1"/>
        <pt x="503" y="666" on="1"/>
        <pt x="503" y="606" on="1"/>
        <pt x="427" y="606" on="1"/>
        <pt x="427" y="406" on="1"/>
        <pt x="427" y="354" on="0"/>
        <pt x="380" y="277" on="0"/>
        <pt x="341" y="266" on="1"/>
        <pt x="301" y="313" on="1"/>
        <pt x="325" y="320" on="0"/>
        <pt x="354" y="376" on="0"/>
        <pt x="354" y="413" on="1"/>
        <pt x="354" y="606" on="1"/>
        <pt x="134" y="606" on="1"/>
        <pt x="134" y="353" on="1"/>
        <pt x="134" y="324" on="0"/>
        <pt x="148" y="280" on="0"/>
        <pt x="161" y="266" on="1"/>
        <pt x="394" y="47" on="1"/>
        <pt x="419" y="25" on="0"/>
        <pt x="447" y="-16" on="0"/>
        <pt x="447" y="-33" on="1"/>
        <pt x="447" y="-63" on="0"/>
        <pt x="403" y="-113" on="0"/>
      </contour>
    </TTGlyph>
    <TTGlyph name="ecandralongsigndeva" xMin="-326" yMin="726" xMax="73" yMax="999">
      <contour>
        <pt x="71" y="726" on="1"/>
        <pt x="-323" y="726" on="1"/>
        <pt x="-323" y="776" on="1"/>
        <pt x="71" y="776" on="1"/>
      </contour>
      <contour>
        <pt x="-127" y="819" on="1"/>
        <pt x="-200" y="819" on="0"/>
        <pt x="-313" y="921" on="0"/>
        <pt x="-326" y="999" on="1"/>
        <pt x="-260" y="999" on="1"/>
        <pt x="-250" y="945" on="0"/>
        <pt x="-174" y="873" on="0"/>
        <pt x="-127" y="873" on="1"/>
        <pt x="-79" y="873" on="0"/>
        <pt x="-3" y="945" on="0"/>
        <pt x="7" y="999" on="1"/>
        <pt x="73" y="999" on="1"/>
        <pt x="60" y="921" on="0"/>
        <pt x="-53" y="819" on="0"/>
      </contour>
    </TTGlyph>
    <TTGlyph name="ecandrasigndeva" xMin="-326" yMin="759" xMax="73" yMax="939">
      <contour>
        <pt x="-127" y="759" on="1"/>
        <pt x="-200" y="759" on="0"/>
        <pt x="-313" y="861" on="0"/>
        <pt x="-326" y="939" on="1"/>
        <pt x="-260" y="939" on="1"/>
        <pt x="-250" y="885" on="0"/>
        <pt x="-174" y="813" on="0"/>
        <pt x="-127" y="813" on="1"/>
        <pt x="-79" y="813" on="0"/>
        <pt x="-3" y="885" on="0"/>
        <pt x="7" y="939" on="1"/>
        <pt x="73" y="939" on="1"/>
        <pt x="60" y="861" on="0"/>
        <pt x="-53" y="759" on="0"/>
      </contour>
    </TTGlyph>
    <TTGlyph name="edeva" xMin="-13" yMin="-127" xMax="499" yMax="666">
      <contour>
        <pt x="-13" y="606" on="1"/>
        <pt x="-13" y="666" on="1"/>
        <pt x="499" y="666" on="1"/>
        <pt x="499" y="606" on="1"/>
        <pt x="419" y="606" on="1"/>
        <pt x="419" y="411" on="1"/>
        <pt x="419" y="357" on="0"/>
        <pt x="376" y="276" on="0"/>
        <pt x="340" y="266" on="1"/>
        <pt x="300" y="313" on="1"/>
        <pt x="324" y="320" on="0"/>
        <pt x="353" y="376" on="0"/>
        <pt x="353" y="413" on="1"/>
        <pt x="353" y="606" on="1"/>
        <pt x="127" y="606" on="1"/>
        <pt x="127" y="353" on="1"/>
        <pt x="127" y="328" on="0"/>
        <pt x="144" y="282" on="0"/>
        <pt x="160" y="266" on="1"/>
        <pt x="393" y="47" on="1"/>
        <pt x="418" y="25" on="0"/>
        <pt x="446" y="-16" on="0"/>
        <pt x="446" y="-33" on="1"/>
        <pt x="446" y="-63" on="0"/>
        <pt x="402" y="-113" on="0"/>
        <pt x="366" y="-127" on="1"/>
        <pt x="313" y="-80" on="1"/>
        <pt x="340" y="-76" on="0"/>
        <pt x="373" y="-49" on="0"/>
        <pt x="373" y="-33" on="1"/>
        <pt x="373" y="-24" on="0"/>
        <pt x="360" y="0" on="0"/>
        <pt x="346" y="13" on="1"/>
        <pt x="100" y="240" on="1"/>
        <pt x="81" y="258" on="0"/>
        <pt x="60" y="317" on="0"/>
        <pt x="60" y="350" on="1"/>
        <pt x="60" y="606" on="1"/>
      </contour>
    </TTGlyph>
    <TTGlyph name="eight" xMin="53" yMin="-15" xMax="582" yMax="714">
      <contour>
        <pt x="164" y="581" on="0"/>
        <pt x="164" y="479" on="0"/>
        <pt x="252" y="419" on="0"/>
        <pt x="310" y="419" on="1"/>
        <pt x="373" y="419" on="0"/>
        <pt x="465" y="478" on="0"/>
        <pt x="465" y="582" on="0"/>
        <pt x="373" y="639" on="0"/>
        <pt x="310" y="639" on="1"/>
        <pt x="252" y="639" on="0"/>
      </contour>
      <contour>
        <pt x="128" y="214" on="1"/>
        <pt x="128" y="149" on="0"/>
        <pt x="237" y="67" on="0"/>
        <pt x="310" y="67" on="1"/>
        <pt x="386" y="67" on="0"/>
        <pt x="501" y="148" on="0"/>
        <pt x="501" y="214" on="1"/>
        <pt x="501" y="277" on="0"/>
        <pt x="387" y="345" on="0"/>
        <pt x="310" y="345" on="1"/>
        <pt x="237" y="345" on="0"/>
        <pt x="128" y="276" on="0"/>
      </contour>
      <contour>
        <pt x="53" y="214" on="1"/>
        <pt x="53" y="272" on="0"/>
        <pt x="130" y="362" on="0"/>
        <pt x="190" y="384" on="1"/>
        <pt x="142" y="411" on="0"/>
        <pt x="83" y="485" on="0"/>
        <pt x="83" y="530" on="1"/>
        <pt x="83" y="611" on="0"/>
        <pt x="218" y="714" on="0"/>
        <pt x="310" y="714" on="1"/>
        <pt x="405" y="714" on="0"/>
        <pt x="546" y="613" on="0"/>
        <pt x="546" y="530" on="1"/>
        <pt x="546" y="485" on="0"/>
        <pt x="490" y="410" on="0"/>
        <pt x="445" y="384" on="1"/>
        <pt x="505" y="362" on="0"/>
        <pt x="582" y="272" on="0"/>
        <pt x="582" y="214" on="1"/>
        <pt x="582" y="115" on="0"/>
        <pt x="419" y="-15" on="0"/>
        <pt x="310" y="-15" on="1"/>
        <pt x="206" y="-15" on="0"/>
        <pt x="53" y="116" on="0"/>
      </contour>
    </TTGlyph>
    <TTGlyph name="eightcombiningdigitdeva" xMin="-266" yMin="723" xMax="3" yMax="1033">
      <contour>
        <pt x="-125" y="723" on="1"/>
        <pt x="-183" y="723" on="0"/>
        <pt x="-224" y="752" on="1"/>
        <pt x="-266" y="781" on="0"/>
        <pt x="-266" y="822" on="1"/>
        <pt x="-266" y="839" on="0"/>
        <pt x="-248" y="873" on="0"/>
        <pt x="-231" y="887" on="1"/>
        <pt x="-55" y="1033" on="1"/>
        <pt x="-23" y="1008" on="1"/>
        <pt x="-197" y="863" on="1"/>
        <pt x="-207" y="855" on="0"/>
        <pt x="-218" y="833" on="0"/>
        <pt x="-218" y="822" on="1"/>
        <pt x="-218" y="795" on="0"/>
        <pt x="-191" y="776" on="1"/>
        <pt x="-164" y="757" on="0"/>
        <pt x="-125" y="757" on="1"/>
        <pt x="-104" y="757" on="0"/>
        <pt x="-79" y="769" on="1"/>
        <pt x="-55" y="782" on="0"/>
        <pt x="-32" y="803" on="1"/>
        <pt x="-29" y="806" on="1"/>
        <pt x="3" y="781" on="1"/>
        <pt x="0" y="778" on="1"/>
        <pt x="-28" y="752" on="0"/>
        <pt x="-93" y="723" on="0"/>
      </contour>
    </TTGlyph>
    <TTGlyph name="eightdeva" xMin="100" yMin="0" xMax="566" yMax="679">
      <contour>
        <pt x="346" y="0" on="1"/>
        <pt x="244" y="0" on="0"/>
        <pt x="100" y="125" on="0"/>
        <pt x="100" y="213" on="1"/>
        <pt x="100" y="250" on="0"/>
        <pt x="130" y="324" on="0"/>
        <pt x="160" y="353" on="1"/>
        <pt x="473" y="679" on="1"/>
        <pt x="519" y="633" on="1"/>
        <pt x="213" y="313" on="1"/>
        <pt x="194" y="293" on="0"/>
        <pt x="173" y="241" on="0"/>
        <pt x="173" y="213" on="1"/>
        <pt x="173" y="149" on="0"/>
        <pt x="274" y="60" on="0"/>
        <pt x="346" y="60" on="1"/>
        <pt x="386" y="60" on="0"/>
        <pt x="477" y="116" on="0"/>
        <pt x="519" y="166" on="1"/>
        <pt x="566" y="120" on="1"/>
        <pt x="518" y="63" on="0"/>
        <pt x="403" y="0" on="0"/>
      </contour>
    </TTGlyph>
    <TTGlyph name="eightdeva.np" xMin="66" yMin="0" xMax="549" yMax="578">
      <contour>
        <pt x="425" y="516" on="1"/>
        <pt x="193" y="292" on="1"/>
        <pt x="179" y="278" on="0"/>
        <pt x="171" y="242" on="1"/>
        <pt x="168" y="228" on="0"/>
        <pt x="168" y="213" on="1"/>
        <pt x="168" y="200" on="0"/>
        <pt x="170" y="187" on="1"/>
        <pt x="189" y="60" on="0"/>
        <pt x="307" y="60" on="1"/>
        <pt x="347" y="60" on="0"/>
        <pt x="438" y="116" on="0"/>
        <pt x="480" y="166" on="1"/>
        <pt x="527" y="120" on="1"/>
        <pt x="479" y="63" on="0"/>
        <pt x="364" y="0" on="0"/>
        <pt x="307" y="0" on="1"/>
        <pt x="206" y="0" on="0"/>
        <pt x="159" y="44" on="1"/>
        <pt x="114" y="87" on="0"/>
        <pt x="99" y="174" on="1"/>
        <pt x="96" y="191" on="0"/>
        <pt x="96" y="208" on="1"/>
        <pt x="96" y="229" on="0"/>
        <pt x="101" y="250" on="1"/>
        <pt x="114" y="306" on="0"/>
        <pt x="136" y="326" on="1"/>
        <pt x="342" y="518" on="1"/>
        <pt x="66" y="519" on="1"/>
        <pt x="66" y="578" on="1"/>
        <pt x="547" y="578" on="1"/>
        <pt x="549" y="517" on="1"/>
      </contour>
    </TTGlyph>
    <TTGlyph name="ellipsis" xMin="100" yMin="0" xMax="939" yMax="60">
      <contour>
        <pt x="792" y="0" on="1"/>
        <pt x="792" y="60" on="1"/>
        <pt x="939" y="60" on="1"/>
        <pt x="939" y="0" on="1"/>
      </contour>
      <contour>
        <pt x="446" y="0" on="1"/>
        <pt x="446" y="60" on="1"/>
        <pt x="593" y="60" on="1"/>
        <pt x="593" y="0" on="1"/>
      </contour>
      <contour>
        <pt x="100" y="0" on="1"/>
        <pt x="100" y="60" on="1"/>
        <pt x="246" y="60" on="1"/>
        <pt x="246" y="0" on="1"/>
      </contour>
    </TTGlyph>
    <TTGlyph name="emdash" xMin="0" yMin="280" xMax="1332" yMax="340">
      <contour>
        <pt x="0" y="280" on="1"/>
        <pt x="0" y="340" on="1"/>
        <pt x="1332" y="340" on="1"/>
        <pt x="1332" y="280" on="1"/>
      </contour>
    </TTGlyph>
    <TTGlyph name="endash" xMin="0" yMin="280" xMax="666" yMax="340">
      <contour>
        <pt x="0" y="280" on="1"/>
        <pt x="0" y="340" on="1"/>
        <pt x="666" y="340" on="1"/>
        <pt x="666" y="280" on="1"/>
      </contour>
    </TTGlyph>
    <TTGlyph name="eprishthamatrasigndeva" xMin="100" yMin="0" xMax="280" yMax="666">
      <contour>
        <pt x="100" y="666" on="1"/>
        <pt x="280" y="666" on="1"/>
        <pt x="280" y="606" on="1"/>
        <pt x="166" y="606" on="1"/>
        <pt x="166" y="0" on="1"/>
        <pt x="100" y="0" on="1"/>
      </contour>
    </TTGlyph>
    <TTGlyph name="equal" xMin="100" yMin="153" xMax="699" yMax="433">
      <contour>
        <pt x="100" y="366" on="1"/>
        <pt x="100" y="433" on="1"/>
        <pt x="699" y="433" on="1"/>
        <pt x="699" y="366" on="1"/>
      </contour>
      <contour>
        <pt x="100" y="153" on="1"/>
        <pt x="100" y="220" on="1"/>
        <pt x="699" y="220" on="1"/>
        <pt x="699" y="153" on="1"/>
      </contour>
    </TTGlyph>
    <TTGlyph name="eshortdeva" xMin="-13" yMin="-127" xMax="503" yMax="984">
      <contour>
        <pt x="221" y="804" on="1"/>
        <pt x="148" y="804" on="0"/>
        <pt x="35" y="905" on="0"/>
        <pt x="21" y="984" on="1"/>
        <pt x="88" y="984" on="1"/>
        <pt x="97" y="929" on="0"/>
        <pt x="173" y="857" on="0"/>
        <pt x="221" y="857" on="1"/>
        <pt x="304" y="857" on="0"/>
        <pt x="362" y="800" on="1"/>
        <pt x="420" y="745" on="0"/>
        <pt x="421" y="666" on="1"/>
        <pt x="503" y="666" on="1"/>
        <pt x="503" y="606" on="1"/>
        <pt x="427" y="606" on="1"/>
        <pt x="427" y="399" on="1"/>
        <pt x="427" y="350" on="0"/>
        <pt x="380" y="277" on="0"/>
        <pt x="341" y="266" on="1"/>
        <pt x="301" y="313" on="1"/>
        <pt x="325" y="320" on="0"/>
        <pt x="354" y="376" on="0"/>
        <pt x="354" y="413" on="1"/>
        <pt x="354" y="606" on="1"/>
        <pt x="134" y="606" on="1"/>
        <pt x="134" y="353" on="1"/>
        <pt x="134" y="324" on="0"/>
        <pt x="148" y="280" on="0"/>
        <pt x="161" y="266" on="1"/>
        <pt x="394" y="47" on="1"/>
        <pt x="419" y="25" on="0"/>
        <pt x="447" y="-16" on="0"/>
        <pt x="447" y="-33" on="1"/>
        <pt x="447" y="-63" on="0"/>
        <pt x="403" y="-113" on="0"/>
        <pt x="368" y="-127" on="1"/>
        <pt x="314" y="-80" on="1"/>
        <pt x="341" y="-76" on="0"/>
        <pt x="374" y="-49" on="0"/>
        <pt x="374" y="-33" on="1"/>
        <pt x="374" y="-24" on="0"/>
        <pt x="361" y="0" on="0"/>
        <pt x="348" y="13" on="1"/>
        <pt x="101" y="240" on="1"/>
        <pt x="83" y="258" on="0"/>
        <pt x="61" y="297" on="0"/>
        <pt x="61" y="313" on="1"/>
        <pt x="61" y="606" on="1"/>
        <pt x="-13" y="606" on="1"/>
        <pt x="-13" y="666" on="1"/>
        <pt x="354" y="666" on="1"/>
        <pt x="353" y="722" on="0"/>
        <pt x="315" y="762" on="1"/>
        <pt x="276" y="804" on="0"/>
      </contour>
    </TTGlyph>
    <TTGlyph name="eshortsigndeva" xMin="-495" yMin="667" xMax="-96" yMax="987">
      <contour>
        <pt x="-296" y="807" on="1"/>
        <pt x="-369" y="807" on="0"/>
        <pt x="-482" y="908" on="0"/>
        <pt x="-495" y="987" on="1"/>
        <pt x="-429" y="987" on="1"/>
        <pt x="-419" y="932" on="0"/>
        <pt x="-344" y="860" on="0"/>
        <pt x="-296" y="860" on="1"/>
        <pt x="-213" y="860" on="0"/>
        <pt x="-96" y="747" on="0"/>
        <pt x="-96" y="667" on="1"/>
        <pt x="-162" y="667" on="1"/>
        <pt x="-162" y="724" on="0"/>
        <pt x="-241" y="807" on="0"/>
      </contour>
    </TTGlyph>
    <TTGlyph name="esign_ra_virama.alt1" xMin="-415" yMin="666" xMax="24" yMax="999">
      <contour>
        <pt x="-156" y="666" on="1"/>
        <pt x="-415" y="952" on="1"/>
        <pt x="-369" y="999" on="1"/>
        <pt x="-222" y="826" on="1"/>
        <pt x="-214" y="878" on="0"/>
        <pt x="-128" y="945" on="0"/>
        <pt x="-69" y="945" on="1"/>
        <pt x="-47" y="945" on="0"/>
        <pt x="1" y="932" on="0"/>
        <pt x="24" y="919" on="1"/>
        <pt x="4" y="872" on="1"/>
        <pt x="-13" y="882" on="0"/>
        <pt x="-51" y="892" on="0"/>
        <pt x="-69" y="892" on="1"/>
        <pt x="-108" y="892" on="0"/>
        <pt x="-162" y="838" on="0"/>
        <pt x="-162" y="799" on="1"/>
        <pt x="-162" y="775" on="0"/>
        <pt x="-156" y="740" on="0"/>
        <pt x="-149" y="732" on="1"/>
        <pt x="-89" y="666" on="1"/>
      </contour>
    </TTGlyph>
    <TTGlyph name="esign_ra_virama_anusvara" xMin="-402" yMin="666" xMax="24" yMax="999">
      <contour>
        <pt x="-156" y="666" on="1"/>
        <pt x="-402" y="959" on="1"/>
        <pt x="-356" y="999" on="1"/>
        <pt x="-222" y="819" on="1"/>
        <pt x="-214" y="874" on="0"/>
        <pt x="-127" y="945" on="0"/>
        <pt x="-69" y="945" on="1"/>
        <pt x="-44" y="945" on="0"/>
        <pt x="3" y="935" on="0"/>
        <pt x="24" y="925" on="1"/>
        <pt x="4" y="872" on="1"/>
        <pt x="-13" y="882" on="0"/>
        <pt x="-51" y="892" on="0"/>
        <pt x="-69" y="892" on="1"/>
        <pt x="-108" y="892" on="0"/>
        <pt x="-162" y="838" on="0"/>
        <pt x="-162" y="799" on="1"/>
        <pt x="-162" y="775" on="0"/>
        <pt x="-156" y="740" on="0"/>
        <pt x="-149" y="732" on="1"/>
        <pt x="-96" y="666" on="1"/>
      </contour>
      <contour>
        <pt x="-96" y="746" on="1"/>
        <pt x="-96" y="819" on="1"/>
        <pt x="-29" y="819" on="1"/>
        <pt x="-29" y="746" on="1"/>
      </contour>
    </TTGlyph>
    <TTGlyph name="esigndeva" xMin="-415" yMin="666" xMax="-103" yMax="999">
      <contour>
        <pt x="-169" y="666" on="1"/>
        <pt x="-415" y="959" on="1"/>
        <pt x="-369" y="999" on="1"/>
        <pt x="-103" y="666" on="1"/>
      </contour>
    </TTGlyph>
    <TTGlyph name="esigndeva_anusvaradeva" xMin="-415" yMin="666" xMax="-36" yMax="999">
      <contour>
        <pt x="-136" y="866" on="1"/>
        <pt x="-136" y="959" on="1"/>
        <pt x="-36" y="959" on="1"/>
        <pt x="-36" y="866" on="1"/>
      </contour>
      <contour>
        <pt x="-169" y="666" on="1"/>
        <pt x="-415" y="952" on="1"/>
        <pt x="-369" y="999" on="1"/>
        <pt x="-103" y="666" on="1"/>
      </contour>
    </TTGlyph>
    <TTGlyph name="exclam" xMin="100" yMin="0" xMax="240" yMax="739">
      <contour>
        <pt x="146" y="233" on="1"/>
        <pt x="100" y="739" on="1"/>
        <pt x="240" y="739" on="1"/>
        <pt x="193" y="233" on="1"/>
      </contour>
      <contour>
        <pt x="107" y="0" on="1"/>
        <pt x="107" y="120" on="1"/>
        <pt x="233" y="120" on="1"/>
        <pt x="233" y="0" on="1"/>
      </contour>
    </TTGlyph>
    <TTGlyph name="fadeva" xMin="-12" yMin="-7" xMax="789" yMax="666">
      <contour>
        <pt x="172" y="-7" on="1"/>
        <pt x="119" y="43" on="1"/>
        <pt x="172" y="93" on="1"/>
        <pt x="225" y="43" on="1"/>
      </contour>
      <contour>
        <pt x="222" y="280" on="1"/>
        <pt x="261" y="280" on="0"/>
        <pt x="331" y="318" on="0"/>
        <pt x="355" y="353" on="1"/>
        <pt x="355" y="606" on="1"/>
        <pt x="122" y="606" on="1"/>
        <pt x="122" y="373" on="1"/>
        <pt x="122" y="334" on="0"/>
        <pt x="181" y="280" on="0"/>
      </contour>
      <contour>
        <pt x="56" y="373" on="1"/>
        <pt x="56" y="606" on="1"/>
        <pt x="-12" y="606" on="1"/>
        <pt x="-12" y="666" on="1"/>
        <pt x="789" y="666" on="1"/>
        <pt x="789" y="606" on="1"/>
        <pt x="422" y="606" on="1"/>
        <pt x="422" y="419" on="1"/>
        <pt x="448" y="451" on="0"/>
        <pt x="522" y="486" on="0"/>
        <pt x="562" y="486" on="1"/>
        <pt x="631" y="486" on="0"/>
        <pt x="728" y="377" on="0"/>
        <pt x="728" y="300" on="1"/>
        <pt x="728" y="240" on="0"/>
        <pt x="683" y="124" on="0"/>
        <pt x="641" y="73" on="1"/>
        <pt x="582" y="107" on="1"/>
        <pt x="620" y="145" on="0"/>
        <pt x="661" y="245" on="0"/>
        <pt x="661" y="300" on="1"/>
        <pt x="661" y="349" on="0"/>
        <pt x="603" y="419" on="0"/>
        <pt x="562" y="419" on="1"/>
        <pt x="527" y="419" on="0"/>
        <pt x="454" y="378" on="0"/>
        <pt x="422" y="340" on="1"/>
        <pt x="422" y="0" on="1"/>
        <pt x="355" y="0" on="1"/>
        <pt x="355" y="266" on="1"/>
        <pt x="330" y="241" on="0"/>
        <pt x="261" y="213" on="0"/>
        <pt x="222" y="213" on="1"/>
        <pt x="153" y="213" on="0"/>
        <pt x="56" y="306" on="0"/>
      </contour>
    </TTGlyph>
    <TTGlyph name="fadeva_viramadeva" xMin="-13" yMin="0" xMax="615" yMax="666">
      <contour>
        <pt x="196" y="0" on="1"/>
        <pt x="142" y="47" on="1"/>
        <pt x="196" y="93" on="1"/>
        <pt x="249" y="47" on="1"/>
      </contour>
      <contour>
        <pt x="229" y="266" on="1"/>
        <pt x="257" y="266" on="0"/>
        <pt x="321" y="312" on="0"/>
        <pt x="349" y="353" on="1"/>
        <pt x="349" y="606" on="1"/>
        <pt x="123" y="606" on="1"/>
        <pt x="123" y="373" on="1"/>
        <pt x="123" y="329" on="0"/>
        <pt x="185" y="266" on="0"/>
      </contour>
      <contour>
        <pt x="-13" y="606" on="1"/>
        <pt x="-13" y="666" on="1"/>
        <pt x="602" y="666" on="1"/>
        <pt x="602" y="606" on="1"/>
        <pt x="415" y="606" on="1"/>
        <pt x="415" y="413" on="1"/>
        <pt x="445" y="447" on="0"/>
        <pt x="511" y="486" on="0"/>
        <pt x="542" y="486" on="1"/>
        <pt x="555" y="486" on="0"/>
        <pt x="593" y="473" on="0"/>
        <pt x="615" y="459" on="1"/>
        <pt x="615" y="399" on="1"/>
        <pt x="597" y="413" on="0"/>
        <pt x="559" y="426" on="0"/>
        <pt x="542" y="426" on="1"/>
        <pt x="515" y="426" on="0"/>
        <pt x="449" y="373" on="0"/>
        <pt x="415" y="326" on="1"/>
        <pt x="415" y="0" on="1"/>
        <pt x="349" y="0" on="1"/>
        <pt x="349" y="266" on="1"/>
        <pt x="325" y="238" on="0"/>
        <pt x="262" y="206" on="0"/>
        <pt x="229" y="206" on="1"/>
        <pt x="157" y="206" on="0"/>
        <pt x="56" y="304" on="0"/>
        <pt x="56" y="373" on="1"/>
        <pt x="56" y="606" on="1"/>
      </contour>
    </TTGlyph>
    <TTGlyph name="five" xMin="68" yMin="0" xMax="567" yMax="704">
      <contour>
        <pt x="68" y="221" on="1"/>
        <pt x="140" y="221" on="1"/>
        <pt x="140" y="160" on="0"/>
        <pt x="241" y="81" on="0"/>
        <pt x="309" y="81" on="1"/>
        <pt x="381" y="81" on="0"/>
        <pt x="486" y="175" on="0"/>
        <pt x="486" y="244" on="1"/>
        <pt x="486" y="314" on="0"/>
        <pt x="381" y="412" on="0"/>
        <pt x="309" y="412" on="1"/>
        <pt x="262" y="412" on="0"/>
        <pt x="177" y="373" on="0"/>
        <pt x="148" y="338" on="1"/>
        <pt x="68" y="338" on="1"/>
        <pt x="140" y="704" on="1"/>
        <pt x="515" y="704" on="1"/>
        <pt x="515" y="633" on="1"/>
        <pt x="206" y="633" on="1"/>
        <pt x="177" y="449" on="1"/>
        <pt x="198" y="474" on="0"/>
        <pt x="265" y="493" on="0"/>
        <pt x="309" y="493" on="1"/>
        <pt x="415" y="493" on="0"/>
        <pt x="567" y="348" on="0"/>
        <pt x="567" y="244" on="1"/>
        <pt x="567" y="141" on="0"/>
        <pt x="414" y="0" on="0"/>
        <pt x="309" y="0" on="1"/>
        <pt x="210" y="0" on="0"/>
        <pt x="68" y="128" on="0"/>
      </contour>
    </TTGlyph>
    <TTGlyph name="fivecombiningdigitdeva" xMin="-273" yMin="714" xMax="-9" yMax="1040">
      <contour>
        <pt x="-24" y="815" on="1"/>
        <pt x="-16" y="800" on="0"/>
        <pt x="-13" y="789" on="1"/>
        <pt x="-9" y="778" on="0"/>
        <pt x="-9" y="771" on="1"/>
        <pt x="-9" y="756" on="0"/>
        <pt x="-25" y="740" on="1"/>
        <pt x="-40" y="726" on="0"/>
        <pt x="-66" y="715" on="1"/>
        <pt x="-69" y="714" on="1"/>
        <pt x="-92" y="741" on="1"/>
        <pt x="-88" y="743" on="1"/>
        <pt x="-73" y="750" on="0"/>
        <pt x="-64" y="758" on="1"/>
        <pt x="-56" y="766" on="0"/>
        <pt x="-56" y="777" on="0"/>
        <pt x="-60" y="787" on="1"/>
        <pt x="-64" y="798" on="0"/>
        <pt x="-71" y="812" on="1"/>
        <pt x="-95" y="869" on="1"/>
        <pt x="-107" y="864" on="0"/>
        <pt x="-120" y="861" on="1"/>
        <pt x="-136" y="857" on="0"/>
        <pt x="-152" y="857" on="1"/>
        <pt x="-202" y="857" on="0"/>
        <pt x="-237" y="884" on="1"/>
        <pt x="-273" y="910" on="0"/>
        <pt x="-273" y="948" on="1"/>
        <pt x="-273" y="974" on="0"/>
        <pt x="-258" y="1019" on="0"/>
        <pt x="-243" y="1038" on="1"/>
        <pt x="-242" y="1040" on="1"/>
        <pt x="-201" y="1027" on="1"/>
        <pt x="-204" y="1023" on="1"/>
        <pt x="-217" y="1007" on="0"/>
        <pt x="-229" y="969" on="0"/>
        <pt x="-229" y="948" on="1"/>
        <pt x="-229" y="924" on="0"/>
        <pt x="-207" y="906" on="1"/>
        <pt x="-184" y="888" on="0"/>
        <pt x="-152" y="888" on="1"/>
        <pt x="-139" y="888" on="0"/>
        <pt x="-127" y="891" on="1"/>
        <pt x="-118" y="893" on="0"/>
        <pt x="-110" y="897" on="1"/>
        <pt x="-112" y="903" on="0"/>
        <pt x="-113" y="912" on="1"/>
        <pt x="-115" y="923" on="0"/>
        <pt x="-115" y="940" on="1"/>
        <pt x="-115" y="959" on="0"/>
        <pt x="-87" y="986" on="0"/>
        <pt x="-68" y="986" on="1"/>
        <pt x="-51" y="986" on="0"/>
        <pt x="-39" y="973" on="1"/>
        <pt x="-27" y="959" on="0"/>
        <pt x="-27" y="940" on="1"/>
        <pt x="-27" y="928" on="0"/>
        <pt x="-35" y="915" on="1"/>
        <pt x="-43" y="904" on="0"/>
        <pt x="-56" y="892" on="1"/>
      </contour>
    </TTGlyph>
    <TTGlyph name="fivedeva" xMin="100" yMin="-87" xMax="566" yMax="712">
      <contour>
        <pt x="466" y="-87" on="1"/>
        <pt x="433" y="-33" on="1"/>
        <pt x="461" y="-13" on="0"/>
        <pt x="493" y="29" on="0"/>
        <pt x="493" y="47" on="1"/>
        <pt x="493" y="63" on="0"/>
        <pt x="479" y="117" on="0"/>
        <pt x="466" y="153" on="1"/>
        <pt x="419" y="306" on="1"/>
        <pt x="397" y="290" on="0"/>
        <pt x="342" y="273" on="0"/>
        <pt x="313" y="273" on="1"/>
        <pt x="225" y="273" on="0"/>
        <pt x="100" y="402" on="0"/>
        <pt x="100" y="493" on="1"/>
        <pt x="100" y="555" on="0"/>
        <pt x="127" y="667" on="0"/>
        <pt x="153" y="712" on="1"/>
        <pt x="213" y="686" on="1"/>
        <pt x="190" y="646" on="0"/>
        <pt x="166" y="547" on="0"/>
        <pt x="166" y="493" on="1"/>
        <pt x="166" y="426" on="0"/>
        <pt x="252" y="333" on="0"/>
        <pt x="313" y="333" on="1"/>
        <pt x="337" y="333" on="0"/>
        <pt x="381" y="346" on="0"/>
        <pt x="399" y="360" on="1"/>
        <pt x="393" y="374" on="0"/>
        <pt x="386" y="431" on="0"/>
        <pt x="386" y="473" on="1"/>
        <pt x="386" y="517" on="0"/>
        <pt x="433" y="579" on="0"/>
        <pt x="466" y="579" on="1"/>
        <pt x="494" y="579" on="0"/>
        <pt x="533" y="517" on="0"/>
        <pt x="533" y="473" on="1"/>
        <pt x="533" y="445" on="0"/>
        <pt x="505" y="384" on="0"/>
        <pt x="479" y="353" on="1"/>
        <pt x="539" y="153" on="1"/>
        <pt x="553" y="117" on="0"/>
        <pt x="566" y="63" on="0"/>
        <pt x="566" y="47" on="1"/>
        <pt x="566" y="12" on="0"/>
        <pt x="513" y="-60" on="0"/>
      </contour>
    </TTGlyph>
    <TTGlyph name="fivedeva.np" xMin="100" yMin="-150" xMax="539" yMax="712">
      <contour>
        <pt x="412" y="73" on="1"/>
        <pt x="435" y="147" on="0"/>
        <pt x="435" y="210" on="1"/>
        <pt x="435" y="262" on="0"/>
        <pt x="419" y="306" on="1"/>
        <pt x="397" y="290" on="0"/>
        <pt x="342" y="273" on="0"/>
        <pt x="313" y="273" on="1"/>
        <pt x="225" y="273" on="0"/>
        <pt x="100" y="402" on="0"/>
        <pt x="100" y="493" on="1"/>
        <pt x="100" y="555" on="0"/>
        <pt x="127" y="667" on="0"/>
        <pt x="153" y="712" on="1"/>
        <pt x="213" y="686" on="1"/>
        <pt x="190" y="646" on="0"/>
        <pt x="166" y="547" on="0"/>
        <pt x="166" y="493" on="1"/>
        <pt x="166" y="426" on="0"/>
        <pt x="252" y="333" on="0"/>
        <pt x="313" y="333" on="1"/>
        <pt x="337" y="333" on="0"/>
        <pt x="381" y="346" on="0"/>
        <pt x="399" y="360" on="1"/>
        <pt x="393" y="374" on="0"/>
        <pt x="386" y="431" on="0"/>
        <pt x="386" y="473" on="1"/>
        <pt x="386" y="517" on="0"/>
        <pt x="433" y="579" on="0"/>
        <pt x="466" y="579" on="1"/>
        <pt x="494" y="579" on="0"/>
        <pt x="533" y="517" on="0"/>
        <pt x="533" y="473" on="1"/>
        <pt x="533" y="445" on="0"/>
        <pt x="505" y="384" on="0"/>
        <pt x="479" y="353" on="1"/>
        <pt x="492" y="272" on="0"/>
        <pt x="492" y="207" on="1"/>
        <pt x="492" y="79" on="0"/>
        <pt x="442" y="15" on="1"/>
        <pt x="474" y="-41" on="0"/>
        <pt x="519" y="-97" on="0"/>
        <pt x="539" y="-106" on="1"/>
        <pt x="488" y="-150" on="1"/>
        <pt x="425" y="-112" on="0"/>
        <pt x="370" y="6" on="1"/>
        <pt x="320" y="6" on="0"/>
        <pt x="246" y="73" on="0"/>
        <pt x="246" y="114" on="1"/>
        <pt x="246" y="136" on="0"/>
        <pt x="263" y="152" on="1"/>
        <pt x="279" y="166" on="0"/>
        <pt x="305" y="166" on="1"/>
        <pt x="306" y="166" on="0"/>
        <pt x="308" y="166" on="1"/>
        <pt x="347" y="165" on="0"/>
        <pt x="374" y="137" on="1"/>
        <pt x="404" y="106" on="0"/>
      </contour>
    </TTGlyph>
</ttFont>
